<svg width="80" height="80" viewBox="0 0 80 80" fill="none" xmlns="http://www.w3.org/2000/svg">
<path d="M27.635 8.83621C27.0537 8.83621 26.5727 8.842 26.0917 8.83528C24.0296 8.80612 22.6463 7.43052 22.6076 5.34906C22.5871 4.25233 22.5956 3.1549 22.6053 2.05794C22.618 0.620542 23.2306 0.00540808 24.6697 0.00448237C31.2248 -0.000146176 37.7802 0.00239952 44.3354 0.00239952C46.1467 0.00239952 47.958 -0.00431187 49.7693 0.0047138C51.1722 0.011888 51.7597 0.600408 51.7726 2.00702C51.7832 3.16161 51.7943 4.31713 51.7671 5.47126C51.7201 7.4576 50.3506 8.79756 48.3597 8.83459C47.8723 8.84361 47.3844 8.83598 46.7464 8.83598C46.7464 9.49809 46.7591 10.119 46.7441 10.7395C46.6994 12.5981 45.8672 14.0142 44.2501 14.8954C43.7067 15.1917 43.5553 15.5159 43.556 16.1C43.5714 27.5615 43.5486 39.0229 43.5875 50.4841C43.5933 52.1953 43.0634 53.4924 41.6591 54.4776C40.6948 55.1541 39.8142 55.9492 38.8798 56.6701C37.7517 57.5408 36.6931 57.557 35.5684 56.6928C34.4042 55.7986 33.2652 54.8713 32.1251 53.946C31.1829 53.1814 30.8446 52.1675 30.8459 50.9657C30.8591 39.4466 30.8473 27.9273 30.8685 16.4083C30.8699 15.6545 30.7468 15.2039 29.998 14.7929C28.4172 13.9253 27.6866 12.4435 27.637 10.6374C27.6214 10.0688 27.6345 9.49925 27.6345 8.83644L27.635 8.83621ZM48.4273 3.40924H25.9576C25.9576 3.83113 25.9527 4.20049 25.9592 4.56962C25.9642 4.85126 25.9836 5.13245 26.0011 5.51106C26.5402 5.51106 27.021 5.50574 27.5017 5.51199C29.5371 5.53814 30.9054 6.86537 30.9868 8.90355C31.0098 9.48004 30.9773 10.0586 31.0008 10.6351C31.0398 11.5946 31.536 12.1759 32.4961 12.1868C35.6288 12.2229 38.7623 12.2227 41.8947 12.1873C42.8731 12.1762 43.3909 11.5638 43.4333 10.5682C43.4532 10.1072 43.4363 9.64482 43.4384 9.18289C43.4492 6.85311 44.7583 5.52495 47.058 5.51129C47.5061 5.50852 47.9541 5.51083 48.427 5.51083V3.40924H48.4273ZM34.1701 38.2661C34.3747 38.1638 34.4619 38.1425 34.5183 38.0888C36.308 36.3879 38.0955 34.6848 39.879 32.9771C39.999 32.8623 40.1691 32.7116 40.1712 32.5751C40.1933 31.2506 40.1846 29.9257 40.1846 28.3962C38.1562 30.3293 36.3034 32.0849 34.4695 33.8602C34.3068 34.0178 34.1885 34.3018 34.1832 34.5302C34.1551 35.7334 34.1701 36.9375 34.1701 38.2661ZM34.1701 47.3344C36.2388 45.3675 38.1303 43.5707 40.0175 41.7695C40.0951 41.6954 40.1797 41.5783 40.1806 41.4806C40.1915 40.1513 40.1878 38.822 40.1878 37.3163C38.1668 39.236 36.3064 40.9928 34.4651 42.7697C34.3026 42.9264 34.1883 43.2124 34.183 43.4413C34.1553 44.6487 34.1701 45.8572 34.1701 47.3344ZM34.1696 29.3393C34.3609 29.2488 34.4476 29.2303 34.5027 29.1782C36.2997 27.4779 38.0948 25.7755 39.8854 24.0685C40.0055 23.954 40.1719 23.8005 40.1742 23.6628C40.1961 22.3317 40.1873 21 40.1873 19.4876C38.1737 21.3995 36.314 23.1523 34.4778 24.9299C34.2998 25.1021 34.1899 25.4256 34.1832 25.6825C34.1526 26.8628 34.1696 28.0442 34.1696 29.3393ZM40.2023 46.208C38.2059 48.1115 36.4045 49.8289 34.5458 51.6012C35.4907 52.3577 36.3513 53.0469 37.2089 53.7336C38.146 52.984 39.0055 52.3107 39.8448 51.6132C40.0043 51.4808 40.1836 51.2547 40.1871 51.0691C40.2145 49.5255 40.2025 47.981 40.2025 46.2082L40.2023 46.208ZM34.2118 20.558C36.0097 18.8417 37.6477 17.278 39.3689 15.6351H34.2118V20.558Z" fill="url(#paint0_linear_6_9)"/>
<path d="M24.161 53.8087C23.872 54.0674 23.7061 54.2199 23.536 54.3678C21.8662 55.8216 19.5905 55.7663 18.0071 54.2051C17.5579 53.7622 17.1721 53.2533 16.7676 52.7656C16.2795 52.1773 15.8114 52.2181 15.344 52.7853C15.0141 53.1854 14.7 53.6004 14.349 53.9809C12.5596 55.9202 9.90544 55.8978 8.14046 53.9306C7.79451 53.5451 7.48199 53.1294 7.1455 52.7349C6.68869 52.1991 6.22774 52.2081 5.77786 52.7469C5.46372 53.1227 5.16157 53.5087 4.83982 53.8776C4.04929 54.7844 3.076 55.3523 1.85655 55.4053C0.891783 55.4472 0.142508 54.8344 0.0157468 53.9422C-0.108479 53.0686 0.515186 52.424 1.43156 52.063C2.04715 51.8205 2.59753 51.2903 3.04995 50.7761C3.92299 49.7839 4.88937 49.0582 6.26255 48.9952C7.777 48.9258 8.90149 49.6113 9.83261 50.7395C10.7889 51.8982 11.744 51.9037 12.6979 50.7562C14.6763 48.3729 17.4168 48.3572 19.4031 50.7177C20.3556 51.8497 21.3278 51.8453 22.3197 50.7045C22.5839 50.4021 22.8842 50.1304 23.1778 49.8552C23.4963 49.5569 24.0919 49.2822 24.1041 48.9783C24.1486 47.8716 24.1322 46.7254 23.8782 45.6567C23.7058 44.9311 22.884 44.8265 22.1453 44.8279C15.6198 44.8397 9.09462 44.8346 2.56918 44.8346C2.33917 44.8346 2.10892 44.8411 1.87937 44.8325C0.751424 44.7904 -0.0183635 44.0836 0.00168781 43.1137C0.0212782 42.1628 0.742896 41.4792 1.85586 41.4771C8.72609 41.4637 15.5968 41.4338 22.4666 41.4898C25.4733 41.5143 27.4568 43.6449 27.5027 46.7173C27.5354 48.9105 27.5315 51.1049 27.4997 53.2982C27.4868 54.1871 27.8087 54.8235 28.5039 55.369C30.9718 57.3055 33.4109 59.2796 35.8636 61.2359C36.8918 62.0561 37.524 62.0653 38.5606 61.2387C41.0588 59.2468 43.5412 57.235 46.0432 55.2482C46.6605 54.758 46.9184 54.1621 46.9101 53.3775C46.8863 51.1551 46.8937 48.9325 46.9038 46.7099C46.9174 43.6921 48.9433 41.5044 51.942 41.488C60.6519 41.4403 69.362 41.4653 78.0721 41.4745C79.2423 41.4757 79.9883 42.1519 79.9998 43.1278C80.0116 44.1505 79.2056 44.8318 77.9362 44.8325C69.4849 44.8372 61.0333 44.8349 52.5821 44.8353C50.7129 44.8353 50.2231 45.3222 50.2208 47.1818C50.2192 48.5893 50.2206 49.9968 50.3879 51.5069C50.6304 51.2162 50.8712 50.9242 51.116 50.6353C53.0011 48.4083 55.7728 48.4044 57.6636 50.6272C57.9063 50.9124 58.1344 51.21 58.3792 51.4935C59.0234 52.2398 59.3749 52.2299 60.0271 51.4569C60.3613 51.0607 60.6734 50.6425 61.0347 50.2729C62.726 48.5446 65.1674 48.5296 66.8727 50.2384C67.2375 50.6041 67.5519 51.0209 67.8851 51.4178C68.5943 52.2623 68.9158 52.2614 69.6453 51.4002C69.8686 51.1364 70.0779 50.8605 70.3024 50.5979C72.1642 48.4194 74.9347 48.4204 76.7932 50.6004C77.4005 51.313 77.8951 52.0954 78.9888 52.2479C79.6848 52.3449 80.0902 53.2697 79.975 53.9718C79.8387 54.8029 79.1584 55.4037 78.2814 55.4055C77.0221 55.4078 76.0184 54.8362 75.1981 53.9126C74.854 53.5252 74.541 53.1102 74.2036 52.7163C73.7768 52.2178 73.331 52.2049 72.8973 52.7066C72.5583 53.0989 72.245 53.5136 71.9012 53.9012C70.1143 55.9163 67.4569 55.9295 65.6452 53.9302C65.2974 53.5465 64.9874 53.1285 64.6514 52.7339C64.1939 52.1966 63.7318 52.2114 63.2823 52.7467C62.9859 53.0996 62.7052 53.4662 62.4012 53.8124C60.4977 55.982 57.7756 55.9591 55.9177 53.7603C55.6388 53.4303 55.3699 53.0919 55.0938 52.7594C54.6077 52.1739 54.1322 52.2199 53.6674 52.7874C53.3933 53.1216 53.1564 53.499 52.8353 53.7788C52.2993 54.2461 51.7664 54.8441 51.1275 55.0355C50.2197 55.3076 49.7037 55.7971 49.2775 56.6025C49.0065 57.1144 48.5082 57.5323 48.0447 57.9093C45.6102 59.8885 43.1559 61.8431 40.7057 63.8026C38.3608 65.6779 36.0747 65.677 33.7306 63.8052C31.6388 62.135 29.5682 60.4368 27.4497 58.8013C25.8041 57.531 24.2495 56.232 24.1606 53.8091L24.161 53.8087Z" fill="url(#paint1_linear_6_9)"/>
<path d="M70.0065 67.1931C72.9132 67.2022 75.23 69.5616 75.217 72.4991C75.2041 75.4123 72.8316 77.7742 69.9378 77.7552C67.0635 77.7363 64.6767 75.3095 64.7007 72.4303C64.7249 69.528 67.0997 67.1841 70.0065 67.1931ZM68.0645 72.49C68.0792 73.5532 68.953 74.4084 70.0055 74.3901C71.0528 74.3718 71.9208 73.4755 71.901 72.4327C71.8814 71.3924 70.974 70.507 69.9449 70.5236C68.8981 70.5407 68.0497 71.428 68.0645 72.49Z" fill="url(#paint2_linear_6_9)"/>
<path d="M20.4174 60.0693C23.3391 60.0672 25.6801 62.4051 25.6812 65.3269C25.6824 68.2288 23.3094 70.6243 20.4292 70.6289C17.5572 70.6335 15.1647 68.2301 15.1617 65.338C15.1587 62.4206 17.5021 60.0714 20.4174 60.0691V60.0693ZM20.4312 67.2473C21.4958 67.2452 22.3578 66.3834 22.3532 65.3255C22.3486 64.2836 21.4582 63.3966 20.419 63.3986C19.3787 63.4007 18.492 64.2926 18.4948 65.3341C18.4976 66.381 19.3766 67.2496 20.4312 67.2475V67.2473Z" fill="url(#paint3_linear_6_9)"/>
<path d="M8.00932 67.5732C10.6715 67.5749 12.8979 69.8204 12.8813 72.4869C12.8645 75.1673 10.622 77.3834 7.963 77.3471C5.30954 77.311 3.15183 75.1363 3.13731 72.4834C3.12279 69.8123 5.34595 67.5716 8.00932 67.5732ZM9.51479 72.4867C9.52585 71.6195 8.86807 70.9486 8.00679 70.9488C7.17731 70.9491 6.53313 71.5718 6.50501 72.4006C6.47551 73.2673 7.11416 73.9567 7.96715 73.9787C8.83235 74.0009 9.50395 73.3534 9.51502 72.4864L9.51479 72.4867Z" fill="url(#paint4_linear_6_9)"/>
<path d="M35.4647 77.3479C32.7888 77.3604 30.5788 75.1444 30.5864 72.4566C30.5938 69.8036 32.752 67.6117 35.3932 67.5747C38.0499 67.5374 40.2961 69.7494 40.3215 72.4277C40.3466 75.1002 38.1402 77.3356 35.4649 77.3481L35.4647 77.3479ZM36.9602 72.4784C36.9676 71.6168 36.299 70.944 35.44 70.9491C34.611 70.954 33.9677 71.5814 33.9442 72.4083C33.9195 73.2727 34.5646 73.9614 35.4165 73.9797C36.278 73.9982 36.9526 73.3418 36.9602 72.4784Z" fill="url(#paint5_linear_6_9)"/>
<path d="M61.4662 63.7655C61.3947 66.472 59.1262 68.6486 56.4847 68.5449C53.7898 68.4394 51.6625 66.1735 51.7505 63.5023C51.8376 60.8566 54.1 58.6933 56.7034 58.7659C59.4094 58.8414 61.5374 61.0754 61.4662 63.7652V63.7655ZM56.6366 62.1441C55.7783 62.1358 55.0949 62.8078 55.0986 63.6569C55.1023 64.5014 55.7965 65.1797 56.6456 65.1684C57.4707 65.1573 58.1084 64.5225 58.1273 63.6937C58.1471 62.827 57.4981 62.1526 56.6366 62.1441Z" fill="url(#paint6_linear_6_9)"/>
<path d="M47.5261 76.4199C46.6035 76.3806 45.9259 75.6379 45.9621 74.7055C45.9976 73.7946 46.7566 73.0742 47.6557 73.0985C48.5451 73.1223 49.2964 73.9039 49.2807 74.7888C49.2641 75.7335 48.4821 76.4607 47.5261 76.4199Z" fill="url(#paint7_linear_6_9)"/>
<path d="M66.37 60.9794C65.4559 60.9785 64.7166 60.2523 64.705 59.3442C64.6931 58.4064 65.4686 57.6448 66.4147 57.6649C67.3295 57.6844 68.0412 58.4247 68.0271 59.3423C68.0131 60.2595 67.2834 60.9804 66.37 60.9794Z" fill="url(#paint8_linear_6_9)"/>
<path d="M11.1767 58.3652C12.0813 58.3513 12.8433 59.075 12.8728 59.9761C12.9032 60.9083 12.1341 61.6878 11.1887 61.6825C10.2652 61.6771 9.54842 60.9586 9.54612 60.0354C9.54381 59.1238 10.2707 58.3791 11.1767 58.3652Z" fill="url(#paint9_linear_6_9)"/>
<path d="M74.0474 60.4488C74.9552 60.443 75.6976 61.1699 75.7139 62.0806C75.731 63.0303 74.9771 63.7841 74.0252 63.7693C73.0957 63.7547 72.4071 63.0433 72.414 62.1051C72.4209 61.1805 73.1365 60.4546 74.0474 60.4488Z" fill="url(#paint10_linear_6_9)"/>
<path d="M22.3788 76.031C22.399 75.0992 23.117 74.4012 24.0426 74.4137C24.9536 74.426 25.6829 75.1663 25.6787 76.0747C25.6746 77.0048 24.8654 77.7896 23.9525 77.7493C23.0428 77.7093 22.3585 76.962 22.3788 76.031Z" fill="url(#paint11_linear_6_9)"/>
<path d="M55.8322 76.2029C55.8308 75.2744 56.5384 74.5347 57.4444 74.5174C58.3607 74.4998 59.161 75.3102 59.1363 76.2306C59.1121 77.1283 58.3437 77.877 57.4561 77.8682C56.5368 77.8589 55.8336 77.1381 55.8322 76.2029Z" fill="url(#paint12_linear_6_9)"/>
<path d="M46.9912 63.8262C47.899 63.8324 48.6299 64.5714 48.6317 65.4848C48.6336 66.43 47.8476 67.2076 46.9248 67.1735C46.019 67.14 45.3207 66.3888 45.3357 65.4642C45.3509 64.5394 46.078 63.8199 46.9912 63.8264V63.8262Z" fill="url(#paint13_linear_6_9)"/>
<path d="M15.5159 76.6644C16.4316 76.6708 17.1659 77.4028 17.1686 78.3119C17.1714 79.2006 16.4154 79.9802 15.532 79.9997C14.6147 80.0198 13.8173 79.2131 13.8403 78.2878C13.8631 77.37 14.5981 76.6579 15.5159 76.6644Z" fill="url(#paint14_linear_6_9)"/>
<path d="M4.50471 62.2397C3.57451 62.2545 2.85358 61.5623 2.82985 60.6311C2.80588 59.6898 3.57566 58.8951 4.49964 58.9076C5.38489 58.9194 6.14984 59.694 6.14984 60.5788C6.14984 61.4802 5.41209 62.2254 4.50471 62.2397Z" fill="url(#paint15_linear_6_9)"/>
<defs>
<linearGradient id="paint0_linear_6_9" x1="22.595" y1="57.3321" x2="59.6381" y2="51.7053" gradientUnits="userSpaceOnUse">
<stop stop-color="#0075BF"/>
<stop offset="1" stop-color="#005CA9"/>
</linearGradient>
<linearGradient id="paint1_linear_6_9" x1="-1.19209e-06" y1="65.209" x2="51.6804" y2="13.2755" gradientUnits="userSpaceOnUse">
<stop stop-color="#0075BF"/>
<stop offset="1" stop-color="#005CA9"/>
</linearGradient>
<linearGradient id="paint2_linear_6_9" x1="64.7005" y1="77.7554" x2="77.2475" y2="74.0281" gradientUnits="userSpaceOnUse">
<stop stop-color="#0075BF"/>
<stop offset="1" stop-color="#005CA9"/>
</linearGradient>
<linearGradient id="paint3_linear_6_9" x1="15.1617" y1="70.6289" x2="27.7112" y2="66.8989" gradientUnits="userSpaceOnUse">
<stop stop-color="#0075BF"/>
<stop offset="1" stop-color="#005CA9"/>
</linearGradient>
<linearGradient id="paint4_linear_6_9" x1="3.13724" y1="77.3476" x2="14.7604" y2="73.8904" gradientUnits="userSpaceOnUse">
<stop stop-color="#0075BF"/>
<stop offset="1" stop-color="#005CA9"/>
</linearGradient>
<linearGradient id="paint5_linear_6_9" x1="30.5864" y1="77.3481" x2="42.2005" y2="73.8966" gradientUnits="userSpaceOnUse">
<stop stop-color="#0075BF"/>
<stop offset="1" stop-color="#005CA9"/>
</linearGradient>
<linearGradient id="paint6_linear_6_9" x1="51.7479" y1="68.5485" x2="63.3488" y2="65.11" gradientUnits="userSpaceOnUse">
<stop stop-color="#0075BF"/>
<stop offset="1" stop-color="#005CA9"/>
</linearGradient>
<linearGradient id="paint7_linear_6_9" x1="45.9607" y1="76.4216" x2="49.9199" y2="75.2416" gradientUnits="userSpaceOnUse">
<stop stop-color="#0075BF"/>
<stop offset="1" stop-color="#005CA9"/>
</linearGradient>
<linearGradient id="paint8_linear_6_9" x1="64.7049" y1="60.9794" x2="68.6645" y2="59.7954" gradientUnits="userSpaceOnUse">
<stop stop-color="#0075BF"/>
<stop offset="1" stop-color="#005CA9"/>
</linearGradient>
<linearGradient id="paint9_linear_6_9" x1="9.54611" y1="61.6825" x2="13.5114" y2="60.4959" gradientUnits="userSpaceOnUse">
<stop stop-color="#0075BF"/>
<stop offset="1" stop-color="#005CA9"/>
</linearGradient>
<linearGradient id="paint10_linear_6_9" x1="72.4139" y1="63.7695" x2="76.3526" y2="62.6016" gradientUnits="userSpaceOnUse">
<stop stop-color="#0075BF"/>
<stop offset="1" stop-color="#005CA9"/>
</linearGradient>
<linearGradient id="paint11_linear_6_9" x1="22.3783" y1="77.7508" x2="26.3202" y2="76.5877" gradientUnits="userSpaceOnUse">
<stop stop-color="#0075BF"/>
<stop offset="1" stop-color="#005CA9"/>
</linearGradient>
<linearGradient id="paint12_linear_6_9" x1="55.8322" y1="77.8683" x2="59.781" y2="76.7065" gradientUnits="userSpaceOnUse">
<stop stop-color="#0075BF"/>
<stop offset="1" stop-color="#005CA9"/>
</linearGradient>
<linearGradient id="paint13_linear_6_9" x1="45.3354" y1="67.1746" x2="49.2753" y2="66.0175" gradientUnits="userSpaceOnUse">
<stop stop-color="#0075BF"/>
<stop offset="1" stop-color="#005CA9"/>
</linearGradient>
<linearGradient id="paint14_linear_6_9" x1="13.8398" y1="80" x2="17.8099" y2="78.818" gradientUnits="userSpaceOnUse">
<stop stop-color="#0075BF"/>
<stop offset="1" stop-color="#005CA9"/>
</linearGradient>
<linearGradient id="paint15_linear_6_9" x1="2.8293" y1="62.2399" x2="6.79045" y2="61.0623" gradientUnits="userSpaceOnUse">
<stop stop-color="#0075BF"/>
<stop offset="1" stop-color="#005CA9"/>
</linearGradient>
</defs>
</svg>
