<svg width="80" height="79" viewBox="0 0 80 79" fill="none" xmlns="http://www.w3.org/2000/svg">
<path d="M3.33663 75.2101C3.33663 72.9249 3.34907 70.799 3.31728 68.6735C3.31405 68.4603 3.08917 68.1537 2.88688 68.0553C1.10283 67.1857 0.0169201 65.8134 0.0155376 63.8052C0.0141552 61.7469 1.04385 60.2792 2.92858 59.4051C3.12304 59.315 3.3182 58.9809 3.32027 58.7583C3.34677 55.9411 3.35414 53.1235 3.31152 50.3068C3.3076 50.0404 2.98826 49.6745 2.72098 49.5333C1.02541 48.6374 0.0139248 47.2822 0.0130032 45.3509C0.0120815 43.3641 1.00191 41.9347 2.77421 41.0163C3.03134 40.8831 3.31013 40.4921 3.31405 40.2165C3.35391 37.4572 3.32649 34.6969 3.3493 31.9373C3.35322 31.4516 3.15807 31.244 2.74494 31.0433C0.988088 30.1899 -0.0121113 28.7761 0.0136944 26.8075C0.0388088 24.893 0.985784 23.4604 2.72674 22.6438C3.25092 22.398 3.35138 22.0945 3.34746 21.5869C3.32834 19.2008 3.36405 16.8143 3.33064 14.4286C3.3076 12.7888 3.82579 11.5096 5.39371 10.782C5.55799 10.7057 5.74024 10.4509 5.74278 10.2767C5.76812 8.46982 5.75844 6.66227 5.75844 4.82454C5.3762 4.78998 5.06169 4.78583 4.75686 4.72915C3.88777 4.56764 3.33341 3.87596 3.36359 3.02253C3.39423 2.1585 3.9797 1.47304 4.88889 1.46428C8.02174 1.4341 11.158 1.38778 14.2874 1.50253C16.2328 1.57372 17.6737 3.3209 17.7154 5.38559C17.7491 7.04798 17.7221 8.71175 17.7221 10.4347H27.2393C27.2393 8.94607 27.2386 7.46156 27.2393 5.97681C27.2407 2.93958 28.7508 1.43064 31.7982 1.42972C38.5551 1.42765 45.3123 1.42903 52.0692 1.42903C52.213 1.42903 52.3567 1.42718 52.5005 1.43018C53.7443 1.45552 54.4896 2.08016 54.4869 3.09372C54.4843 4.07226 53.7717 4.69851 52.5816 4.76878C52.4415 4.77708 52.3017 4.78929 52.072 4.80634C52.072 6.65651 52.0593 8.48963 52.0925 10.3218C52.0957 10.4963 52.3551 10.7262 52.5494 10.8273C53.8873 11.5229 54.5011 12.622 54.4947 14.1137C54.4836 16.5859 54.5055 19.0587 54.4816 21.5307C54.476 22.1028 54.6005 22.4201 55.1841 22.697C56.8174 23.4726 57.7142 24.8255 57.796 26.6513C57.8798 28.5196 57.084 29.9867 55.4507 30.8396C54.6481 31.2587 54.3763 31.7246 54.4853 32.5502C54.5258 32.8578 54.4919 33.175 54.4919 33.5538H61.5839C61.5839 33.2506 61.5839 32.9458 61.5839 32.6409C61.5839 28.4148 61.5811 24.1887 61.585 19.9625C61.5873 17.5223 62.9318 16.1855 65.3764 16.1802C66.4978 16.1779 67.6192 16.1733 68.7406 16.1813C70.931 16.1972 72.302 17.5341 72.3119 19.7287C72.3315 24.0698 72.3322 28.4109 72.3038 32.7518C72.2994 33.4223 72.4688 33.672 73.1681 33.7953C75.2447 34.1612 76.8622 35.9558 77.1161 38.0498C77.1781 38.5615 77.1924 39.0815 77.1926 39.5979C77.1967 51.0687 77.1958 62.5395 77.1958 74.0104C77.1958 74.376 77.1958 74.7419 77.1958 75.2014C77.6659 75.2014 78.0347 75.1719 78.3974 75.2071C79.3176 75.297 79.9771 75.9808 79.9994 76.831C80.0218 77.6803 79.3935 78.3833 78.4691 78.5123C78.1578 78.5556 77.8384 78.5503 77.5228 78.5503C52.5077 78.5519 27.4923 78.5519 2.47721 78.5496C2.13321 78.5496 1.78392 78.551 1.44637 78.496C0.573354 78.3531 -0.0208668 77.6511 0.000561143 76.8317C0.021989 76.014 0.646163 75.3122 1.51733 75.2216C2.07953 75.1631 2.65278 75.2106 3.33617 75.2106L3.33663 75.2101ZM51.1759 75.1403C51.1759 74.7832 51.1759 74.4751 51.1759 74.1668C51.1761 71.7817 51.1669 69.3965 51.181 67.0113C51.1879 65.8268 51.6922 65.2915 52.8643 65.1432C53.0344 65.1215 53.2072 65.1008 53.3703 65.0517C54.076 64.8388 54.5553 64.4088 54.4647 63.6218C54.3779 62.867 53.8864 62.4746 53.1291 62.4018C51.6022 62.2548 51.1791 61.7983 51.1775 60.2786C51.1734 56.4566 51.1734 52.6343 51.1775 48.8123C51.1791 47.3336 51.5664 46.9013 53.0491 46.6829C53.9191 46.5548 54.4751 46.0318 54.4804 45.3364C54.4857 44.641 53.9201 44.0881 53.0745 43.962C51.525 43.7312 51.1787 43.3385 51.1773 41.7785C51.1741 38.0714 51.1757 34.3642 51.1764 30.6571C51.1766 28.7966 51.3706 28.56 53.1735 28.2081C53.9832 28.0501 54.5018 27.513 54.4896 26.8455C54.4763 26.1119 53.9307 25.5958 53.0738 25.5059C51.6068 25.3522 51.1812 24.8914 51.178 23.4177C51.1725 20.7738 51.1764 18.1301 51.1761 15.4862C51.1761 14.9765 51.1761 14.4671 51.1761 13.9033H30.6295V75.1403H51.1761H51.1759ZM54.5357 40.7653C54.5735 40.7958 54.6127 40.8439 54.6629 40.8649C56.5972 41.6681 57.7275 43.0805 57.7789 45.2016C57.8303 47.3195 56.7863 48.7861 54.8889 49.6948C54.6988 49.7858 54.5115 50.1132 54.5097 50.3326C54.4848 53.2917 54.4929 56.2513 54.4929 59.1827C54.5746 59.2452 54.6145 59.2908 54.665 59.3118C56.5591 60.0981 57.7077 61.4656 57.7941 63.552C57.884 65.7212 56.7979 67.1899 54.871 68.1025C54.7055 68.1808 54.5122 68.4221 54.5104 68.5898C54.4862 70.7649 54.4942 72.9401 54.4942 75.1334H73.8077C73.8206 74.8541 73.8399 74.6295 73.8402 74.4048C73.8416 62.649 73.8429 50.8931 73.8397 39.1371C73.8393 37.5894 73.2453 36.9848 71.7124 36.983C66.2503 36.9765 60.7885 36.9797 55.3265 36.9823C55.076 36.9823 54.8256 37.0115 54.5357 37.0295V40.7653ZM6.68583 13.8961C6.68583 14.3097 6.68583 14.6222 6.68583 14.9346C6.68583 17.808 6.69321 20.6814 6.68169 23.5546C6.67662 24.8195 6.12272 25.4009 4.88866 25.5022C3.92855 25.581 3.39147 26.0389 3.35898 26.8061C3.32695 27.5635 3.86196 28.098 4.78589 28.2314C6.20083 28.436 6.68284 28.9749 6.68422 30.3878C6.68814 34.2093 6.6886 38.0309 6.68399 41.8524C6.68215 43.2943 6.1923 43.8242 4.77668 43.9523C3.68086 44.0516 2.9689 45.0189 3.49792 45.8447C3.76058 46.2548 4.37508 46.5608 4.88243 46.6684C6.04968 46.9158 6.67616 47.47 6.67984 48.6017C6.69321 52.5956 6.69551 56.5897 6.67731 60.5836C6.67224 61.7135 6.04853 62.3158 4.9216 62.3992C3.91265 62.4739 3.36958 62.943 3.35737 63.751C3.34585 64.513 3.86795 65.0109 4.81792 65.1432C6.16212 65.3307 6.68054 65.9056 6.68399 67.2465C6.69021 69.5739 6.68583 71.9015 6.68583 74.2288C6.68583 74.532 6.68583 74.835 6.68583 75.1387H14.3128V13.8961H6.68583ZM27.2078 41.628H17.7571V47.4089H27.2078V41.628ZM17.7825 60.0779V65.9116H27.187V60.0779H17.7825ZM64.9928 19.5743V33.5485H68.9608V19.5743H64.9928ZM27.2121 13.9139H17.7848V19.7059H27.2121V13.9139ZM27.2087 23.1355H17.7827V28.915H27.2087V23.1355ZM17.7546 38.1788H27.1829V32.4022H17.7546V38.1788ZM27.2094 50.8802H17.7889V56.6464H27.2094V50.8802ZM27.208 69.3458H17.7786V75.135H27.208V69.3458ZM40.1028 4.77201C37.1217 4.77201 34.1974 4.75796 31.2738 4.79874C31.0404 4.80196 30.6192 5.17638 30.6123 5.38904C30.5572 7.07056 30.5816 8.7546 30.5816 10.4463H40.1028V4.77201ZM43.5119 4.81602V10.4283H48.6705V4.81602H43.5119ZM14.3715 10.4562C14.3715 8.76244 14.3992 7.15857 14.3441 5.5577C14.3349 5.29089 13.9745 4.82017 13.761 4.81118C12.2283 4.74643 10.6917 4.77662 9.15926 4.77662V10.4564L14.3715 10.4562Z" fill="url(#paint0_linear_1_21)"/>
<path d="M67.0388 4.17756C65.7833 5.70539 64.6483 7.1505 64.0354 8.90022C63.6697 9.94396 64.1181 10.8596 64.8552 11.6418C65.4294 12.251 65.5648 12.9579 65.1354 13.6936C64.7457 14.3606 64.1156 14.6233 63.3691 14.4454C63.0525 14.3701 62.7136 14.189 62.4901 13.9551C60.7701 12.1545 60.0581 10.0536 60.9498 7.6468C61.9751 4.87938 63.8356 2.63936 65.8052 0.500715C66.4268 -0.174379 67.501 -0.16378 68.1295 0.514079C70.0682 2.60457 71.8766 4.8098 72.9206 7.50165C73.8584 9.91977 73.225 12.0683 71.4845 13.9141C70.7845 14.6565 69.7719 14.6966 69.0958 14.0823C68.4046 13.4542 68.3774 12.4872 69.0288 11.6909C70.2327 10.2188 70.3465 9.43546 69.394 7.79219C68.6919 6.58094 67.868 5.44019 67.0388 4.17756Z" fill="url(#paint1_linear_1_21)"/>
<path d="M67.1367 50.6003V44.4533C65.5745 44.4533 64.0587 44.4775 62.5437 44.4457C61.2889 44.4194 60.5072 43.284 60.9615 42.1845C61.2555 41.4732 61.8164 41.1412 62.5903 41.1451C64.1416 41.1532 65.6934 41.1253 67.2443 41.1548C69.0638 41.1893 70.4592 42.5411 70.5055 44.3805C70.5573 46.4472 70.5615 48.5179 70.5029 50.5844C70.4511 52.4146 69.0346 53.7613 67.2146 53.7834C65.175 53.8083 63.1334 53.8348 61.0963 53.7599C60.4735 53.7371 59.7998 53.4848 59.2623 53.1539C58.5777 52.7325 58.4404 51.9892 58.7439 51.2457C59.0492 50.4976 59.6584 50.1826 60.4645 50.2287C62.6599 50.3545 64.8557 50.4736 67.1367 50.6003Z" fill="url(#paint2_linear_1_21)"/>
<path d="M67.1351 67.7187V61.6982C65.7015 61.6982 64.3038 61.6996 62.9062 61.6972C62.5617 61.6968 62.2129 61.7175 61.874 61.671C60.9894 61.5496 60.3482 60.7795 60.3977 59.9399C60.4473 59.1006 61.0733 58.4156 61.956 58.3983C63.8214 58.3619 65.6909 58.3328 67.5535 58.4167C69.1788 58.49 70.4582 59.8805 70.5034 61.5751C70.5585 63.641 70.5576 65.7105 70.5062 67.7766C70.4599 69.6426 69.0408 70.9988 67.1703 71.0239C65.2179 71.0502 63.2647 71.043 61.312 71.026C60.1208 71.0156 59.3386 70.2912 59.3814 69.2945C59.424 68.3003 60.153 67.7173 61.3452 67.7183C63.2389 67.7199 65.1326 67.7187 67.1349 67.7187H67.1351Z" fill="url(#paint3_linear_1_21)"/>
<defs>
<linearGradient id="paint0_linear_1_21" x1="-1.19209e-06" y1="78.5515" x2="94.7894" y2="49.2156" gradientUnits="userSpaceOnUse">
<stop stop-color="#0075BF"/>
<stop offset="1" stop-color="#005CA9"/>
</linearGradient>
<linearGradient id="paint1_linear_1_21" x1="60.564" y1="14.51" x2="76.0953" y2="10.4255" gradientUnits="userSpaceOnUse">
<stop stop-color="#0075BF"/>
<stop offset="1" stop-color="#005CA9"/>
</linearGradient>
<linearGradient id="paint2_linear_1_21" x1="58.5913" y1="53.8091" x2="72.9723" y2="49.7602" gradientUnits="userSpaceOnUse">
<stop stop-color="#0075BF"/>
<stop offset="1" stop-color="#005CA9"/>
</linearGradient>
<linearGradient id="paint3_linear_1_21" x1="59.3797" y1="71.0413" x2="72.9398" y2="67.4786" gradientUnits="userSpaceOnUse">
<stop stop-color="#0075BF"/>
<stop offset="1" stop-color="#005CA9"/>
</linearGradient>
</defs>
</svg>
