<svg width="80" height="81" viewBox="0 0 80 81" fill="none" xmlns="http://www.w3.org/2000/svg">
<path d="M77.7402 76.6254C78.0564 76.6568 78.2852 76.6704 78.511 76.7033C79.3865 76.8312 79.9963 77.5 80 78.328C80.0034 79.1136 79.4308 79.8121 78.6138 79.9677C78.3071 80.0262 77.9845 80.0147 77.6692 80.0147C52.5735 80.0165 27.478 80.0165 2.38229 80.0161C0.500195 80.0161 0.000576129 79.5066 0.000345677 77.5922C-0.000115226 72.5902 -0.000115226 67.5885 0.000345677 62.5866C0.000345677 59.9762 0.815222 58.9611 3.42232 58.3898C3.42232 56.4254 3.43638 54.4454 3.40112 52.466C3.39743 52.2619 3.14209 51.9842 2.93307 51.8738C1.03116 50.869 -0.0319175 49.3116 0.0259258 47.1604C0.0837691 45.0109 1.22543 43.5144 3.17274 42.5988C3.42486 42.4804 3.66476 42.1314 3.72905 41.848C4.76032 37.3086 7.40637 34.0732 11.5909 32.093C12.1041 31.8501 12.2214 31.5588 12.2166 31.043C12.1935 28.5998 12.2021 26.1563 12.2074 23.7128C12.2205 17.5881 16.4143 13.3723 22.5466 13.3317C25.1624 13.3144 27.7785 13.3287 30.3944 13.3287C30.7057 13.3287 31.0168 13.3287 31.4005 13.3287C31.442 12.836 31.4952 12.4166 31.5102 11.9955C31.5959 9.58247 31.6711 7.16919 31.7526 4.75613C31.8577 1.65679 33.5598 0.00467737 36.6491 0.00214241C38.3164 0.000759698 39.9837 -0.00223128 41.651 0.00283866C44.4581 0.0113654 46.2315 1.7038 46.3465 4.51854C46.4508 7.07447 46.5184 9.63202 46.6064 12.1887C46.6182 12.53 46.6543 12.8706 46.6875 13.3285C47.0678 13.3285 47.4019 13.3266 47.7361 13.3287C51.0124 13.3499 54.2959 13.2425 57.5632 13.4229C62.6739 13.7053 66.6398 17.9739 66.7179 23.101C66.7617 25.975 66.7382 28.8501 66.7186 31.7245C66.7151 32.2257 66.8311 32.5424 67.2763 32.8486C68.4133 33.6306 68.9802 34.7639 68.9897 36.1524C68.9998 37.6471 69.0127 39.1425 68.9828 40.6365C68.9729 41.1283 69.1383 41.3855 69.5667 41.6388C75.688 45.2555 78.7514 50.6411 78.0536 57.7185C77.447 63.8688 77.898 70.0034 77.6888 76.1403C77.6842 76.2781 77.7169 76.4171 77.7399 76.6252L77.7402 76.6254ZM34.4526 23.5257C34.4176 24.0028 34.3729 24.4282 34.3572 24.8545C34.2756 27.0945 34.2047 29.3349 34.1228 31.5749C34.0977 32.264 34.0795 32.9553 34.0046 33.6398C33.9025 34.5692 33.2015 35.1884 32.3396 35.1718C31.4443 35.1548 30.747 34.4577 30.7115 33.4974C30.6923 32.9818 30.7382 32.4636 30.7578 31.9467C30.853 29.4195 30.95 26.8926 31.0433 24.3655C31.0535 24.0924 31.0447 23.8186 31.0447 23.5382H22.3567C22.3567 26.2063 22.3408 28.8171 22.3848 31.427C22.3887 31.6535 22.7466 31.9563 23.0084 32.084C27.0494 34.053 29.6786 37.1682 30.7177 41.5629C30.8613 42.1704 31.0993 42.5147 31.6913 42.8002C35.0064 44.3996 35.604 49.0556 32.6023 51.1313C31.2457 52.0694 30.9772 53.0286 31.1095 54.4164C31.1475 54.815 31.1152 55.2206 31.1152 55.623C31.1152 56.5579 31.1152 57.4931 31.1152 58.44C31.4528 58.455 31.6522 58.4695 31.8517 58.4718C37.0791 58.5292 40.2985 61.7917 40.3022 67.0393C40.3042 69.9133 40.3026 72.7875 40.3026 75.6615V76.6015H45.4912C45.5337 76.4729 45.5685 76.4185 45.5671 76.3653C45.3972 70.2276 45.9604 64.0815 45.2195 57.9478C44.4215 51.3408 47.7833 44.9241 53.6029 41.7024C54.0576 41.4507 54.353 41.2207 54.3288 40.6068C54.2703 39.1146 54.3023 37.6185 54.3148 36.124C54.3263 34.7349 54.9004 33.6082 56.0473 32.8353C56.4667 32.5525 56.5907 32.2601 56.5863 31.7874C56.5665 29.6034 56.5776 27.419 56.5776 25.2348C56.5776 24.6715 56.5776 24.1083 56.5776 23.5472H47.1302C47.1302 24.5893 47.1035 25.565 47.1348 26.5391C47.2895 31.3357 47.4632 36.1319 47.6165 40.9285C47.6291 41.3219 47.6102 41.745 47.4789 42.1082C47.2155 42.8357 46.39 43.2325 45.6544 43.0698C44.8181 42.8848 44.3512 42.2402 44.3164 41.2097C44.1341 35.8387 43.9544 30.4678 43.7702 25.0969C43.7527 24.586 43.7105 24.076 43.6774 23.5259H34.4531L34.4526 23.5257ZM61.6353 42.9233C54.33 42.9279 48.4551 48.8171 48.4461 56.1445C48.4371 63.3904 54.4185 69.3298 61.7077 69.3128C68.8945 69.2959 74.851 63.3574 74.8586 56.201C74.8664 48.8316 68.9777 42.9187 61.6353 42.9233ZM3.38453 76.6171H36.9417C36.9417 76.2459 36.9417 75.9339 36.9417 75.6218C36.9417 72.7204 36.8489 69.8151 36.9673 66.9186C37.0899 63.9234 35.005 61.7574 31.8386 61.7793C22.6749 61.8429 13.5108 61.8014 4.34666 61.8035C4.04085 61.8035 3.73481 61.8293 3.38453 61.845V76.6171ZM15.6033 30.8568H18.9942C18.9942 28.4327 18.9889 26.0535 18.9958 23.6744C19.0025 21.3851 20.2259 20.1662 22.5138 20.166C33.812 20.1644 45.1103 20.1641 56.4084 20.166C58.7169 20.1664 59.9014 21.3512 59.9101 23.6769C59.9196 26.1492 59.9108 28.6217 59.9145 31.094C59.915 31.3984 59.944 31.7028 59.9592 31.9976H63.3148C63.3443 31.8383 63.3826 31.728 63.3826 31.6178C63.384 28.8005 63.46 25.9805 63.3605 23.1667C63.224 19.3147 60.4697 16.7235 56.6163 16.6938C54.029 16.6737 51.4415 16.6896 48.8542 16.6896C39.9996 16.6896 31.145 16.6783 22.2905 16.6958C18.766 16.7027 16.0017 18.8847 15.6602 22.3184C15.3807 25.1274 15.6033 27.9863 15.6033 30.8566V30.8568ZM6.79936 52.4172V58.4041H27.7131V52.4172H6.79936ZM27.3812 42.1987C26.7777 37.8557 22.0048 34.1283 17.2077 34.1802C12.4095 34.232 7.65065 38.0184 7.16555 42.1987H27.3812ZM17.2888 49.0102C21.2272 49.0102 25.1659 49.0293 29.1038 48.9874C29.6336 48.9816 30.2503 48.786 30.6658 48.4677C31.2212 48.0425 31.3406 47.3544 31.0521 46.6642C30.7398 45.9171 30.1547 45.5543 29.3647 45.5539C21.2867 45.5484 13.2084 45.5481 5.13043 45.561C4.82854 45.5615 4.49945 45.6606 4.23098 45.8039C3.58295 46.1498 3.317 46.7359 3.37738 47.4588C3.43891 48.1951 3.85764 48.6915 4.53586 48.9208C4.85112 49.0273 5.21685 49.0065 5.55976 49.007C9.46937 49.012 13.3792 49.0102 17.2888 49.0102ZM74.303 76.6206V66.8091C72.5947 68.6822 70.7275 70.1221 68.5525 71.1462C68.4295 71.2041 68.2972 71.4011 68.2958 71.5345C68.2785 73.2194 68.2845 74.9044 68.2845 76.6206H74.3032H74.303ZM55.0218 76.6374C55.0218 74.9118 55.0425 73.2777 54.9971 71.6451C54.9912 71.4262 54.6923 71.1352 54.4583 71.0158C52.5739 70.0536 50.8921 68.8299 49.4479 67.2806C49.3294 67.1536 49.1746 67.0608 49.0112 66.932V76.6374H55.0218ZM57.6266 40.0599C60.3367 39.4285 62.9749 39.478 65.6793 40.036C65.6793 38.7171 65.686 37.5137 65.6765 36.3105C65.6719 35.7244 65.3668 35.3993 64.7692 35.3963C62.7002 35.3857 60.6312 35.3792 58.5622 35.376C58.0283 35.3751 57.6483 35.6217 57.6358 36.1777C57.6077 37.4369 57.6268 38.697 57.6268 40.0602L57.6266 40.0599ZM43.1049 6.98021C43.0595 6.05772 43.0104 5.22994 42.9805 4.40147C42.9547 3.68661 42.5583 3.35384 41.8845 3.34946C39.9897 3.33701 38.094 3.31373 36.2011 3.37572C35.8568 3.38702 35.2795 3.73684 35.2313 4.00578C35.0585 4.97045 35.0663 5.96761 35.0043 6.98021H43.1049ZM64.8632 76.6257V72.5165H58.4286V76.6257H64.8632ZM34.8944 10.3967V13.2589H43.2036V10.3397C40.5342 10.3397 37.9557 10.339 35.3772 10.3418C35.2405 10.3418 35.1039 10.372 34.8946 10.3967H34.8944Z" fill="url(#paint0_linear_1_26)"/>
<path d="M71.4908 55.5962C71.529 56.609 70.8992 57.3734 69.9714 57.4405C68.9874 57.5117 68.252 56.8874 68.1672 55.7842C68.063 54.428 67.6482 53.2043 66.8255 52.13C65.8661 50.877 64.5987 50.0792 63.0606 49.7351C62.3605 49.5786 61.8374 49.2309 61.6185 48.5365C61.2304 47.3068 62.3167 46.1912 63.6374 46.444C67.9586 47.2707 71.3246 51.1932 71.4908 55.5962Z" fill="url(#paint1_linear_1_26)"/>
<path d="M20.0699 70.2921C20.9972 70.2707 21.8635 71.1105 21.8596 72.027C21.8556 72.9029 21.0341 73.7415 20.1519 73.7699C19.2361 73.7994 18.3807 72.9559 18.3795 72.0226C18.3784 71.1158 19.1624 70.3131 20.0699 70.2921Z" fill="url(#paint2_linear_1_26)"/>
<path d="M8.35238 68.1805C7.41698 68.1849 6.57076 67.3384 6.59404 66.4219C6.61639 65.5432 7.45431 64.7164 8.33072 64.7078C9.24561 64.6991 10.0992 65.5663 10.0805 66.4858C10.0621 67.3908 9.26105 68.1764 8.35238 68.1805Z" fill="url(#paint3_linear_1_26)"/>
<path d="M14.1907 68.1789C13.2843 68.1612 12.4867 67.3588 12.4837 66.4614C12.4807 65.5458 13.3546 64.6853 14.2628 64.7095C15.1468 64.733 15.967 65.5656 15.9732 66.4462C15.9799 67.3696 15.1284 68.1974 14.1907 68.1792V68.1789Z" fill="url(#paint4_linear_1_26)"/>
<path d="M27.7403 66.4742C27.728 67.4033 26.8712 68.2108 25.9312 68.1788C25.0108 68.1475 24.2581 67.3586 24.268 66.4361C24.2777 65.5397 25.0827 64.7232 25.9708 64.7087C26.8786 64.6939 27.752 65.5655 27.74 66.4744L27.7403 66.4742Z" fill="url(#paint5_linear_1_26)"/>
<path d="M31.9112 68.1773C30.9843 68.1962 30.1898 67.4546 30.151 66.5342C30.1119 65.6006 30.9145 64.7334 31.8407 64.709C32.7512 64.685 33.6205 65.543 33.6168 66.4625C33.6133 67.3661 32.8252 68.1586 31.9112 68.1773Z" fill="url(#paint6_linear_1_26)"/>
<path d="M8.31825 73.7717C7.40428 73.7542 6.55345 72.8598 6.5947 71.9599C6.63572 71.0657 7.46834 70.2806 8.36342 70.2916C9.30182 70.3034 10.1183 71.1611 10.0757 72.0908C10.0344 72.9884 9.19788 73.7885 8.31802 73.7714L8.31825 73.7717Z" fill="url(#paint7_linear_1_26)"/>
<path d="M14.2317 73.7726C13.3175 73.7763 12.4643 72.9045 12.4846 71.9878C12.5044 71.0939 13.3235 70.2931 14.2208 70.2903C15.115 70.2875 15.9437 71.0854 15.9727 71.9767C16.0025 72.8836 15.144 73.769 14.2317 73.7726Z" fill="url(#paint8_linear_1_26)"/>
<path d="M31.9054 73.7694C31.0207 73.7904 30.1876 72.996 30.1517 72.0968C30.1134 71.1429 30.896 70.3103 31.846 70.2942C32.7542 70.2787 33.5727 71.0454 33.6151 71.9511C33.658 72.8674 32.8307 73.7473 31.9056 73.7694H31.9054Z" fill="url(#paint9_linear_1_26)"/>
<path d="M25.9672 70.2927C26.901 70.2786 27.7523 71.1181 27.7396 72.0406C27.7276 72.9203 26.9026 73.7504 26.0209 73.7702C25.1032 73.7907 24.2598 72.9438 24.2662 72.0081C24.2724 71.0958 25.0553 70.3063 25.9672 70.2927Z" fill="url(#paint10_linear_1_26)"/>
<path d="M20.2172 64.7133C21.1489 64.7875 21.9458 65.7098 21.8492 66.6019C21.7504 67.5151 20.9157 68.2263 20.0045 68.1735C19.0481 68.1182 18.3076 67.2614 18.3899 66.3055C18.4667 65.415 19.3514 64.6442 20.2172 64.7133Z" fill="url(#paint11_linear_1_26)"/>
<defs>
<linearGradient id="paint0_linear_1_26" x1="-1.19209e-06" y1="80.0163" x2="95.3814" y2="51.5646" gradientUnits="userSpaceOnUse">
<stop stop-color="#0075BF"/>
<stop offset="1" stop-color="#005CA9"/>
</linearGradient>
<linearGradient id="paint1_linear_1_26" x1="61.5388" y1="57.446" x2="73.5898" y2="54.2037" gradientUnits="userSpaceOnUse">
<stop stop-color="#0075BF"/>
<stop offset="1" stop-color="#005CA9"/>
</linearGradient>
<linearGradient id="paint2_linear_1_26" x1="18.3795" y1="73.7706" x2="22.5283" y2="72.5324" gradientUnits="userSpaceOnUse">
<stop stop-color="#0075BF"/>
<stop offset="1" stop-color="#005CA9"/>
</linearGradient>
<linearGradient id="paint3_linear_1_26" x1="6.59357" y1="68.1805" x2="10.7483" y2="66.9358" gradientUnits="userSpaceOnUse">
<stop stop-color="#0075BF"/>
<stop offset="1" stop-color="#005CA9"/>
</linearGradient>
<linearGradient id="paint4_linear_1_26" x1="12.4837" y1="68.1795" x2="16.6403" y2="66.9325" gradientUnits="userSpaceOnUse">
<stop stop-color="#0075BF"/>
<stop offset="1" stop-color="#005CA9"/>
</linearGradient>
<linearGradient id="paint5_linear_1_26" x1="24.2679" y1="68.1797" x2="28.4075" y2="66.9443" gradientUnits="userSpaceOnUse">
<stop stop-color="#0075BF"/>
<stop offset="1" stop-color="#005CA9"/>
</linearGradient>
<linearGradient id="paint6_linear_1_26" x1="30.1497" y1="68.1776" x2="34.2837" y2="66.9449" gradientUnits="userSpaceOnUse">
<stop stop-color="#0075BF"/>
<stop offset="1" stop-color="#005CA9"/>
</linearGradient>
<linearGradient id="paint7_linear_1_26" x1="6.59326" y1="73.7717" x2="10.7463" y2="72.5313" gradientUnits="userSpaceOnUse">
<stop stop-color="#0075BF"/>
<stop offset="1" stop-color="#005CA9"/>
</linearGradient>
<linearGradient id="paint8_linear_1_26" x1="12.4843" y1="73.7727" x2="16.6429" y2="72.5295" gradientUnits="userSpaceOnUse">
<stop stop-color="#0075BF"/>
<stop offset="1" stop-color="#005CA9"/>
</linearGradient>
<linearGradient id="paint9_linear_1_26" x1="30.1503" y1="73.7698" x2="34.2849" y2="72.5396" gradientUnits="userSpaceOnUse">
<stop stop-color="#0075BF"/>
<stop offset="1" stop-color="#005CA9"/>
</linearGradient>
<linearGradient id="paint10_linear_1_26" x1="24.2662" y1="73.7705" x2="28.4083" y2="72.5363" gradientUnits="userSpaceOnUse">
<stop stop-color="#0075BF"/>
<stop offset="1" stop-color="#005CA9"/>
</linearGradient>
<linearGradient id="paint11_linear_1_26" x1="18.3837" y1="68.1763" x2="22.5237" y2="66.9389" gradientUnits="userSpaceOnUse">
<stop stop-color="#0075BF"/>
<stop offset="1" stop-color="#005CA9"/>
</linearGradient>
</defs>
</svg>
