<svg width="80" height="80" viewBox="0 0 80 80" fill="none" xmlns="http://www.w3.org/2000/svg">
<path d="M28.3896 63.2198C26.7489 63.2198 25.1962 63.2215 23.6436 63.2193C19.5038 63.2137 16.7813 60.4923 16.7778 56.3518C16.7746 52.4548 16.7772 48.5578 16.7772 44.6608C16.7772 44.3677 16.7772 44.0746 16.7772 43.9934C15.6856 43.3478 14.6389 42.8884 13.788 42.1904C12.3227 40.9883 11.6367 39.3346 11.6212 37.4346C11.6031 35.2041 11.6335 32.9729 11.5995 30.7428C11.5939 30.3777 11.4478 29.9511 11.2246 29.6631C9.84162 27.8797 8.39246 26.1473 7.02689 24.351C6.71258 23.9377 6.52107 23.3501 6.48036 22.8267C6.39742 21.7582 6.44761 20.6785 6.45795 19.6035C6.46829 18.5432 6.92801 18.0766 7.97863 18.0663C9.15894 18.0547 10.3397 18.0637 11.5648 18.0637C11.7714 16.5222 12.637 15.64 14.1861 15.4358C14.1861 14.0631 14.2339 12.7198 14.1721 11.3814C14.1143 10.1308 13.0562 9.13252 11.8039 9.04378C11.3504 9.01169 10.8927 9.03861 10.4485 9.03861C9.85217 10.3055 9.62016 10.4244 8.18587 10.1873C5.90819 9.81077 3.63051 9.43384 1.35435 9.0483C0.359087 8.87965 0.0122543 8.47624 0.00686868 7.48116C-0.00174828 5.92241 -0.00304082 4.36345 0.00751495 2.8047C0.0139777 1.85119 0.37072 1.44045 1.31061 1.28192C3.63999 0.889059 5.97131 0.50718 8.30069 0.11367C9.59043 -0.104301 9.91809 0.0671466 10.3567 1.1514C12.0025 1.30389 13.6398 1.27977 15.1904 1.63408C19.031 2.51134 21.8144 6.04496 21.92 9.98394C21.968 11.7813 21.9282 13.5811 21.9282 15.3638C24.0503 16.0193 24.5187 16.6581 24.5187 18.8451C24.5187 24.7846 24.5187 30.7243 24.5187 36.6638C24.5187 40.4658 23.0335 42.5363 19.3898 43.7657C19.3797 43.9828 19.3593 44.2184 19.3593 44.4543C19.3573 48.4587 19.3541 52.4634 19.3593 56.4678C19.3625 59.034 20.9687 60.6313 23.5424 60.6384C25.1238 60.6427 26.7052 60.6392 28.3894 60.6392V59.6515C28.3894 44.6815 28.3892 29.7118 28.3896 14.7418C28.3896 11.8285 29.8954 10.323 32.8077 10.3223C36.3556 10.3214 39.9034 10.2995 43.4505 10.3421C44.119 10.3501 44.3624 10.1188 44.5755 9.53055C45.5807 6.75617 46.6349 3.99944 47.6763 1.23841C48.0753 0.180439 48.3372 0.00210001 49.466 0.00145385C52.6106 -0.000484618 55.7551 -0.000484618 58.8997 0.00145385C60.0576 0.00210001 60.3176 0.183239 60.7351 1.2942C61.7829 4.08172 62.8426 6.86494 63.8559 9.66495C64.0461 10.1907 64.2945 10.3391 64.8359 10.3354C68.491 10.3105 72.1463 10.3191 75.8014 10.3236C78.3817 10.3266 79.9955 11.9205 79.9959 14.4821C79.9991 32.3545 79.9959 50.227 80 68.0995C80.0004 69.9299 79.2053 71.216 77.5256 71.9823C77.2615 72.1027 77.0196 72.4361 76.9188 72.7241C76.2185 74.724 75.561 76.7389 74.8837 78.7469C74.5384 79.7709 74.2413 79.9882 73.1924 79.9914C71.6872 79.9962 70.1818 79.9746 68.6773 79.9996C67.8292 80.0136 67.3311 79.6544 67.0707 78.8436C66.4309 76.8513 65.7348 74.8769 65.1032 72.8822C64.9436 72.3782 64.7017 72.2388 64.1905 72.2401C57.5253 72.2571 50.86 72.2573 44.1948 72.2401C43.6826 72.2388 43.4419 72.3803 43.2827 72.883C42.6593 74.8521 41.9904 76.8069 41.3312 78.7646C40.9921 79.7713 40.6856 79.9888 39.6278 79.9916C38.1496 79.9957 36.6714 79.9962 35.1931 79.9916C34.1442 79.9884 33.8469 79.7711 33.5014 78.7474C32.8323 76.7647 32.1914 74.772 31.4857 72.8023C31.362 72.4572 31.0337 72.0997 30.7058 71.9285C29.2377 71.1625 28.4172 70.0066 28.3946 68.341C28.3719 66.6763 28.3896 65.0111 28.3896 63.2204V63.2198ZM30.9695 63.2204C30.9695 64.8151 30.9689 66.291 30.9695 67.767C30.9704 69.3094 31.3273 69.6706 32.8564 69.6708C47.0729 69.6712 61.2891 69.6712 75.5056 69.6708C77.0526 69.6708 77.4171 69.3128 77.4171 67.7907C77.4175 50.1079 77.4175 32.4254 77.4171 14.7427C77.4171 13.2752 77.0381 12.9033 75.5468 12.9031C61.3036 12.9026 47.0602 12.9026 32.817 12.9031C31.3418 12.9031 30.97 13.2783 30.97 14.7646C30.9695 29.76 30.9697 44.7554 30.9697 59.7508C30.9697 60.034 30.9697 60.317 30.9697 60.5934H33.7114C33.8282 60.3075 33.9213 60.057 34.0309 59.8141C35.2537 57.1017 38.4587 55.9878 41.088 57.3591C43.748 58.7468 44.6832 62.0698 43.0957 64.6137C42.0059 66.3601 40.3803 67.2124 38.3385 67.0618C36.2597 66.9085 34.8129 65.7727 33.94 63.8769C33.8198 63.6159 33.5389 63.2766 33.3017 63.2504C32.5634 63.1689 31.8103 63.2204 30.97 63.2204H30.9695ZM14.2524 18.1005V36.0618H21.8967V18.1005H14.2524ZM47.0453 10.2784H61.3441C60.3975 7.75728 59.4843 5.30296 58.5386 2.86135C58.4824 2.71639 58.1661 2.59448 57.9699 2.59298C55.4477 2.5751 52.9253 2.56821 50.4036 2.60331C50.1776 2.60654 49.8478 2.87298 49.7515 3.09676C49.3603 4.00591 49.0427 4.94671 48.6955 5.87481C48.1539 7.32328 47.6102 8.77132 47.0453 10.2784ZM19.3577 15.4631C19.3577 14.9701 19.3698 14.4719 19.3556 13.9746C19.3071 12.2864 19.5131 10.5381 19.1434 8.92209C18.1917 4.76148 14.6859 3.33821 10.3925 3.98049V6.2974C11.4771 6.47401 12.5196 6.50804 13.4663 6.82638C15.4446 7.49171 16.733 9.41532 16.7703 11.5341C16.7931 12.8378 16.7746 14.1424 16.7746 15.4629H19.358L19.3577 15.4631ZM40.7733 72.2776H34.0716C34.3696 73.1835 34.6401 74.0459 34.9374 74.8988C35.2267 75.7289 35.3194 76.8713 35.9114 77.2842C36.5128 77.7036 37.6188 77.3993 38.504 77.4115C38.5845 77.4126 38.6793 77.4374 38.7429 77.4042C38.8928 77.3254 39.1117 77.2472 39.1563 77.1182C39.705 75.5271 40.2274 73.9268 40.7735 72.2778L40.7733 72.2776ZM67.611 72.2772C68.1575 73.9253 68.6756 75.5271 69.2357 77.1141C69.2876 77.2612 69.6021 77.39 69.8001 77.3982C70.5778 77.4307 71.3587 77.4309 72.1364 77.398C72.3335 77.3896 72.6456 77.2575 72.6978 77.1094C73.2564 75.5241 73.7734 73.9242 74.3186 72.2772H67.611ZM2.61221 6.65171C4.30673 6.93128 5.98574 7.20805 7.70569 7.49171V2.82925C5.97368 3.11809 4.29316 3.39809 2.61221 3.6783V6.65171ZM38.6791 63.2198H36.5802C37.2802 64.3398 38.359 64.7393 39.4753 64.3803C40.6287 64.0094 41.373 62.9195 41.2838 61.7323C41.1961 60.5643 40.2616 59.5565 39.0973 59.3745C38.0583 59.2119 37.0344 59.7256 36.6515 60.6595H38.6793V63.2198H38.6791ZM14.556 38.7487C15.0077 40.3258 16.6378 41.4005 18.3399 41.2778C19.8881 41.1662 21.3558 40.0005 21.535 38.7487H14.556ZM11.5549 25.9119V20.6826H8.94071C9.04929 21.5047 8.94804 22.3865 9.29875 23.0171C9.86208 24.0301 10.7242 24.8768 11.5549 25.9119ZM60.7254 43.8669C64.8378 43.8669 68.9503 43.8658 73.0627 43.8676C74.4341 43.8682 74.8359 44.2697 74.8363 45.6419C74.8376 52.2002 74.8378 58.7583 74.8363 65.3165C74.8361 66.6866 74.4324 67.0894 73.0603 67.0896C64.7818 67.0909 56.5031 67.0909 48.2245 67.0896C46.8536 67.0896 46.4531 66.6879 46.4527 65.314C46.4514 58.7557 46.4514 52.1976 46.4527 45.6393C46.4529 44.2665 46.8525 43.868 48.2269 43.8674C52.393 43.8656 56.5593 43.8667 60.7254 43.8667V43.8669ZM72.2178 46.5015H49.0964V48.9877H72.2178V46.5015ZM72.2178 51.6622H49.0964V54.1486H72.2178V51.6622ZM72.22 56.825H49.0985V59.3071H72.22V56.825ZM72.2191 61.9847H49.0977V64.4686H72.2191V61.9847ZM65.799 41.2838C60.8357 41.2804 56.7728 37.2115 56.7764 32.2477C56.7799 27.2824 60.8458 23.2226 65.8118 23.2261C70.7799 23.2295 74.8367 27.2919 74.8339 32.2606C74.8311 37.2268 70.7652 41.2872 65.799 41.2838ZM65.7527 38.7035C69.313 38.7265 72.2407 35.8367 72.2536 32.2863C72.2665 28.7574 69.41 25.8454 65.8975 25.8068C62.3301 25.7676 59.3867 28.6363 59.3568 32.1816C59.3266 35.7454 62.2051 38.6804 65.7527 38.7033V38.7035ZM41.2901 38.7058C39.2474 38.7058 37.2048 38.7106 35.1619 38.7039C34.0046 38.7002 33.555 38.2503 33.552 37.0917C33.5458 34.7266 33.5458 32.3614 33.552 29.9963C33.555 28.8377 34.004 28.3876 35.163 28.3863C39.2483 28.3815 43.3338 28.3815 47.4191 28.3863C48.5763 28.3876 49.0276 28.8399 49.0307 29.9974C49.0371 32.3625 49.0371 34.7277 49.0307 37.0928C49.0274 38.2492 48.575 38.7002 47.418 38.7039C45.3754 38.7106 43.3327 38.7058 41.2898 38.7058H41.2901ZM36.1832 31.0052V36.0669H46.4139V31.0052H36.1832ZM41.2345 25.804C39.2455 25.804 37.2567 25.8064 35.2677 25.8032C33.9872 25.801 33.554 25.3819 33.5516 24.1344C33.5471 21.7961 33.5464 19.4577 33.5518 17.1195C33.5546 15.9195 33.998 15.4849 35.2185 15.4838C39.2771 15.4804 43.3355 15.4799 47.3941 15.4842C48.5931 15.4855 49.0289 15.9316 49.0313 17.1511C49.0358 19.4893 49.0367 21.8278 49.0309 24.166C49.0279 25.3633 48.5804 25.7999 47.3624 25.8027C45.3198 25.8073 43.2773 25.804 41.2345 25.804ZM46.4059 23.1854V18.1154H36.1914V23.1854H46.4059ZM38.7778 43.8686C41.6164 43.8979 43.9064 46.2573 43.8687 49.1137C43.8312 51.9478 41.4587 54.2328 38.6031 54.185C35.8041 54.138 33.5326 51.797 33.5527 48.9795C33.5729 46.139 35.9241 43.8391 38.7776 43.8686H38.7778ZM38.7388 46.4494C37.3334 46.4345 36.1582 47.5754 36.1334 48.9782C36.1089 50.3798 37.2446 51.5691 38.6416 51.6051C40.0725 51.6417 41.284 50.4653 41.2881 49.0351C41.2922 47.6351 40.1378 46.4643 38.7386 46.4496L38.7388 46.4494ZM59.2926 15.5237H56.8223V18.0327H59.2926V15.5237ZM64.4535 15.5237H61.9832V18.0327H64.4535V15.5237ZM69.6144 15.5237H67.1441V18.0327H69.6144V15.5237ZM72.3214 18.0202H74.7876V15.5116H72.3214V18.0202ZM16.8155 23.1787H19.3052V20.6748H16.8155V23.1787ZM69.6732 32.2253C69.6872 34.3656 67.9326 36.1288 65.7939 36.1234C63.6887 36.118 61.9507 34.3876 61.9376 32.2837C61.9242 30.1412 63.6754 28.3822 65.8165 28.3874C67.9242 28.3925 69.6594 30.1193 69.6732 32.2253ZM65.8374 30.9713C65.1401 30.953 64.5403 31.5234 64.5222 32.2227C64.5041 32.9204 65.0741 33.5204 65.773 33.539C66.4684 33.5575 67.0707 32.9846 67.089 32.2871C67.1075 31.5908 66.5358 30.9897 65.8374 30.9713Z" fill="url(#paint0_linear_7_3)"/>
<defs>
<linearGradient id="paint0_linear_7_3" x1="-1.19209e-06" y1="80" x2="95.3782" y2="51.5435" gradientUnits="userSpaceOnUse">
<stop stop-color="#0075BF"/>
<stop offset="1" stop-color="#005CA9"/>
</linearGradient>
</defs>
</svg>
