<svg width="80" height="81" viewBox="0 0 80 81" fill="none" xmlns="http://www.w3.org/2000/svg">
<path d="M63.5827 10.8392C64.8726 7.60784 66.0644 4.51705 67.3435 1.46314C67.9255 0.0740012 68.4665 -0.120546 69.9291 0.05378C72.2152 0.32609 74.5043 0.571541 76.7937 0.813647C77.7436 0.914009 78.2609 1.4339 78.4919 2.35309C81.2567 13.3584 80.237 23.9761 75.2915 34.1924C74.5375 35.7501 74.2872 35.8652 72.522 35.7057C72.349 35.69 72.1733 35.7035 71.9424 35.7035V56.6457C72.1756 56.6695 72.4271 56.6999 72.6795 56.7199C74.7302 56.8814 76.4691 58.5062 76.5323 60.5824C76.6261 63.6715 76.6285 66.768 76.5312 69.8569C76.4646 71.9699 74.6899 73.6233 72.5824 73.6999C70.9604 73.7588 69.3325 73.7608 67.7107 73.698C65.5485 73.6143 63.7918 71.8291 63.7563 69.6552C63.7082 66.7119 63.7122 63.7669 63.7534 60.8233C63.784 58.6408 65.5063 56.8833 67.6646 56.7201C67.8684 56.7047 68.0727 56.6947 68.3592 56.6771V35.3068C67.5356 35.2055 66.6977 35.0773 65.8551 35.005C64.861 34.9199 64.3434 34.3779 64.0839 33.4311C63.0962 29.8269 62.6651 26.1489 62.5654 22.4227C62.5576 22.1275 62.5645 21.8319 62.5645 21.4281C60.9105 21.1793 59.2895 20.932 57.6673 20.6925C53.3759 20.0589 49.0853 19.4211 44.7908 18.8106C44.4139 18.7571 43.984 18.8206 43.6253 18.9556C43.041 19.1756 42.9487 19.5802 43.1561 20.224C48.4219 36.5725 53.6591 52.9306 58.9202 69.2809C59.0333 69.6326 59.2992 70.0338 59.6072 70.206C61.0457 71.0096 61.724 72.2246 61.7337 73.8475C61.7437 75.5128 61.7472 77.1783 61.734 78.8436C61.7212 80.4237 61.1141 80.9982 59.4817 80.9985C45.0394 80.9999 30.5971 80.9994 16.1548 80.9994C11.518 80.9994 6.88098 81.0013 2.24421 80.9982C0.5931 80.997 0.0125848 80.4089 0.00595577 78.7339C-0.000199771 77.1876 0.0196874 75.641 0.00051054 74.0947C-0.0186663 72.5276 0.500767 71.2634 1.83462 70.3589C2.05954 70.2065 2.20254 69.7786 2.20798 69.4749C2.24136 67.5723 2.22479 65.6688 2.22503 63.7654C2.22503 45.3276 2.22361 26.8895 2.22645 8.45163C2.22692 4.85 3.97202 2.12788 7.01333 0.947075C10.0279 -0.223261 13.3819 0.697815 15.5137 3.22209C15.7987 3.55956 16.2904 3.84519 16.7235 3.91225C22.1763 4.75724 27.6346 5.56824 33.0972 6.34807C33.5101 6.40705 34.0435 6.28076 34.3891 6.04484C37.9196 3.63591 42.4498 4.28849 45.1256 7.61329C45.3292 7.86633 45.6365 8.15245 45.9296 8.1974C51.8778 9.10755 57.8311 9.98464 63.5825 10.8387L63.5827 10.8392ZM17.2078 69.6997C18.6859 69.9491 18.7392 69.9265 19.0656 68.9084C24.2649 52.6945 29.4614 36.4798 34.673 20.2701C34.8598 19.6893 34.8645 19.3362 34.2814 18.9549C33.6744 18.5578 33.2144 17.9392 32.6575 17.4557C32.3903 17.2236 32.0654 16.9638 31.7366 16.9122C28.2092 16.3602 24.6759 15.8463 21.1438 15.3245C19.8455 15.1329 18.546 14.9485 17.2078 14.7552V69.6997ZM5.6674 69.7339H13.6767V14.3616C10.9597 15.9203 8.31878 15.8596 5.6674 14.3585V69.7339ZM3.45992 77.5008H58.2052C58.2428 77.3802 58.2757 77.3238 58.2762 77.2672C58.2835 76.3752 58.289 75.4831 58.2902 74.591C58.2913 73.7188 57.8648 73.2825 57.0108 73.282C39.5849 73.282 22.159 73.282 4.73317 73.282C4.4969 73.282 4.22226 73.2083 4.03405 73.3046C3.80464 73.4221 3.49425 73.6763 3.48526 73.8835C3.43293 75.0673 3.45992 76.2546 3.45992 77.5008ZM29.2493 69.6126C29.2644 69.6528 29.2796 69.6932 29.2947 69.7334H55.4456C54.4055 66.4911 53.3927 63.334 52.3595 60.1134C44.6142 63.2971 36.9319 66.4548 29.2493 69.6126ZM48.0241 46.5992C42.3923 49.7456 36.907 52.8105 31.1987 55.9997H51.0413C50.0285 52.8443 49.0462 49.7832 48.0241 46.5992ZM44.216 59.7336C44.2037 59.6734 44.1914 59.6132 44.1788 59.5531C41.8591 59.5531 39.5392 59.5531 37.2195 59.5531C33.6169 59.5531 30.0142 59.5445 26.4118 59.569C26.1185 59.5709 25.631 59.7319 25.5638 59.9317C24.6203 62.733 23.7344 65.5539 22.7779 68.5469C30.0327 65.5643 37.1243 62.6491 44.216 59.7336ZM34.4505 12.5734C34.4538 15.0801 36.4719 17.1116 38.9478 17.1006C41.4072 17.0897 43.4113 15.0232 43.3926 12.5172C43.3743 10.0703 41.3596 8.04352 38.9348 8.03305C36.4645 8.02235 34.4469 10.0648 34.4502 12.5734H34.4505ZM63.162 14.2541C57.6874 13.45 52.2921 12.6576 46.9394 11.8713C46.7476 13.1775 46.5814 14.3107 46.3986 15.5555C51.81 16.3498 57.2352 17.1463 62.7027 17.9489C62.8616 16.6718 63.0039 15.5272 63.1623 14.2543L63.162 14.2541ZM46.6422 42.2765C45.6734 39.2618 44.7458 36.3746 43.7733 33.3481C40.324 36.3485 36.9946 39.2447 33.5094 42.2765H46.6422ZM31.4411 9.60008C26.725 8.9061 21.9848 8.20834 17.2197 7.50724V11.2587C21.8075 11.9334 26.3488 12.6012 30.8791 13.2673C31.0685 12.0316 31.2425 10.8965 31.4411 9.60008ZM9.65382 3.90322C7.42788 3.91678 5.6146 5.77349 5.63899 8.01404C5.66337 10.2455 7.53158 12.1015 9.72698 12.0754C11.9307 12.0492 13.7724 10.1571 13.7501 7.94221C13.7276 5.70071 11.8909 3.88967 9.65382 3.90322ZM42.0161 46.0104C41.991 45.9447 41.9659 45.8791 41.9406 45.8132C38.14 45.8132 34.3394 45.8023 30.5393 45.8406C30.3123 45.843 29.9702 46.1978 29.8828 46.4573C29.0985 48.7856 28.3577 51.1286 27.61 53.4693C27.5563 53.6377 27.5482 53.821 27.4985 54.1195C32.4189 51.3712 37.2176 48.6907 42.0161 46.0104ZM35.5994 28.5566H42.2349C41.3897 25.9134 40.5899 23.3514 39.7191 20.8143C39.6533 20.6228 39.0818 20.5384 38.744 20.5346C38.5169 20.532 38.1417 20.7096 38.0811 20.8911C37.2373 23.4111 36.4363 25.9458 35.5992 28.5569L35.5994 28.5566ZM73.1622 66.5589H67.1423C67.1423 67.5452 67.1205 68.4604 67.1501 69.3738C67.1695 69.9701 67.5247 70.2873 68.1236 70.2895C69.4781 70.294 70.8326 70.2959 72.1868 70.289C72.8319 70.2856 73.1617 69.947 73.1622 69.2932C73.1627 68.4071 73.1622 67.5212 73.1622 66.5589ZM66.3016 27.222C66.5895 28.7122 66.8102 29.9943 67.108 31.2581C67.1563 31.4633 67.5303 31.6893 67.7818 31.7299C68.7122 31.8807 69.6545 31.9559 70.592 32.0631C71.8741 32.2099 72.7486 31.6825 73.2155 30.4809C73.2453 30.4043 73.2493 30.3177 73.2761 30.1817C71.0231 29.2256 68.7764 28.2722 66.3016 27.2217V27.222ZM75.4549 4.13844C74.1814 3.99479 73.045 3.84925 71.9053 3.74175C70.03 3.56481 70.0285 3.57502 69.3202 5.36394C69.3008 5.41293 69.3178 5.4762 69.3178 5.6013C71.5563 6.55188 73.8121 7.50984 76.2487 8.54461C75.9641 6.96522 75.7141 5.57728 75.4549 4.13844ZM39.7582 32.2812C39.7423 32.2146 39.7265 32.148 39.7106 32.0812C38.1902 32.0812 36.6691 32.1078 35.1496 32.0672C34.5965 32.0524 34.3818 32.2615 34.231 32.7664C33.7483 34.3831 33.217 35.9851 32.7049 37.5928C32.6166 37.8706 32.5311 38.1493 32.4442 38.4273C32.4999 38.4499 32.5555 38.4725 32.6109 38.4949C34.9933 36.4236 37.3758 34.3522 39.758 32.281L39.7582 32.2812ZM73.1631 62.9632C73.1631 62.2912 73.1598 61.7287 73.1641 61.1662C73.1688 60.5179 72.8558 60.1496 72.2116 60.1422C70.8273 60.1262 69.44 60.0891 68.0609 60.1755C67.7434 60.1955 67.2616 60.6359 67.193 60.9563C67.0557 61.5955 67.1523 62.2859 67.1523 62.9632H73.1631ZM66.1913 17.5872C66.1205 19.0125 66.0554 20.3241 65.9853 21.7411C68.1284 21.2212 70.1015 20.7424 72.0746 20.2639C72.075 20.2035 72.0757 20.1431 72.0762 20.0827C70.1602 19.2703 68.2441 18.4579 66.1913 17.5872ZM70.2615 15.5664C72.3946 16.4728 74.3249 17.293 76.3986 18.1744C76.463 16.7367 76.5208 15.4472 76.5833 14.0505C74.465 14.5585 72.4742 15.0358 70.2613 15.5664H70.2615ZM66.9157 12.825C69.1973 12.2721 71.2945 11.7638 73.3916 11.2556C73.3847 11.194 73.3776 11.1324 73.3708 11.0708C71.6198 10.3278 69.8687 9.58462 68.0079 8.79504C67.6466 10.1283 67.3087 11.3747 66.916 12.825H66.9157ZM69.2439 24.5024C69.2312 24.5712 69.2186 24.6399 69.2058 24.7089C70.968 25.4547 72.7304 26.2003 74.5704 26.9792C74.9298 25.6124 75.2572 24.3662 75.6244 22.9694C73.3921 23.506 71.3179 24.004 69.2439 24.5024Z" fill="url(#paint0_linear_1_39)"/>
<defs>
<linearGradient id="paint0_linear_1_39" x1="-1.19209e-06" y1="81" x2="95.5699" y2="52.8383" gradientUnits="userSpaceOnUse">
<stop stop-color="#0075BF"/>
<stop offset="1" stop-color="#005CA9"/>
</linearGradient>
</defs>
</svg>
