<svg width="80" height="74" viewBox="0 0 80 74" fill="none" xmlns="http://www.w3.org/2000/svg">
<path d="M73.2138 28.2914C73.5465 25.8232 74.3212 23.9838 75.6519 22.5027C75.9698 22.1487 76.2752 21.7217 76.5595 21.2332C76.7544 20.8979 76.9895 20.4507 77.0773 19.9627C77.3068 18.6858 77.5139 17.3854 77.7144 16.1277C77.782 15.7033 77.8496 15.2786 77.9182 14.8544L78.4112 11.8056C78.9327 8.58232 79.4543 5.35878 79.9686 2.1343C80.0743 1.47143 79.9112 0.884853 79.509 0.482641C79.1157 0.0890863 78.5483 -0.0711873 77.9112 0.0291902C76.0896 0.319092 74.2693 0.617185 72.4489 0.915042L70.5247 1.22974C69.5857 1.38276 69.0176 1.95202 68.8812 2.87554C68.8096 3.36105 68.7251 3.85594 68.6437 4.33466C68.5166 5.08129 68.3851 5.85342 68.2953 6.62368C68.2602 6.92458 68.1921 6.99782 67.8407 7.1134C66.5889 7.52474 65.3207 7.95339 64.0942 8.36753C62.2822 8.97986 60.4085 9.61277 58.5568 10.2008C52.0164 12.2778 46.6325 15.9349 42.5542 21.071C42.5215 21.1124 42.4887 21.1536 42.4557 21.195C42.2954 20.1108 42.1368 19.0263 41.9784 17.942C41.6515 15.7049 41.3132 13.392 40.9638 11.1187C40.4753 7.93957 38.3334 6.11548 35.0879 6.11407C27.4169 6.1108 19.7461 6.11033 12.0755 6.11407C8.49465 6.11595 6.18012 8.4431 6.17848 12.0431C6.17661 16.3849 6.17708 20.7264 6.17754 25.0681V30.8324C6.05494 30.831 5.93374 30.8294 5.81394 30.8277C5.23343 30.8196 4.68452 30.8118 4.13092 30.8434C2.13671 30.9571 0.794129 32.0716 0.0266736 34.2504L0 34.3258V53.1076L0.103185 53.2358C0.125647 53.2636 0.150449 53.2908 0.175953 53.3177L0.180633 53.3226C0.998159 55.5035 2.40625 56.4776 4.7402 56.4797C8.14579 56.4825 11.5514 56.4821 14.9569 56.4814L19.725 56.4808V58.0165L16.0574 58.016C13.4656 58.0155 10.874 58.0149 8.2822 58.0174C4.00527 58.0219 1.11515 60.3212 0.13875 64.4926C0.137112 64.4949 0.135474 64.497 0.133837 64.4989C0.111374 64.5293 0.0893805 64.5602 0.0701941 64.5913L0.000233852 64.7043V66.9098L0.0175485 66.9719C0.058495 67.1179 0.0971016 67.2645 0.135942 67.411C0.221345 67.7341 0.30979 68.0685 0.42093 68.3973C1.54497 71.717 4.56215 73.78 8.2946 73.7809C14.6886 73.7826 21.0816 73.783 27.4758 73.783C32.8103 73.783 38.1458 73.783 43.4803 73.7823L51.9246 73.7818C52.167 73.7818 52.4045 73.7807 52.6451 73.7673C56.8139 73.5383 60.0756 70.3068 60.2319 66.2509C60.3161 64.0621 59.5454 61.9988 58.0615 60.4419C56.5984 58.9066 54.6105 58.05 52.4644 58.0294C49.214 57.9985 45.9104 58.005 42.7159 58.0113C41.305 58.0141 39.8939 58.0151 38.4832 58.0165H38.04V56.4808L42.1103 56.4823C45.0812 56.4834 48.0523 56.4855 51.0229 56.4776C53.5892 56.4713 55.5785 55.0978 56.2144 52.8933C56.7849 50.9154 56.7877 48.7988 56.2224 46.7723C55.6335 44.6604 53.6781 43.2226 51.357 43.1948C49.9751 43.1782 48.6007 43.1814 47.1458 43.1859C46.6437 43.1873 46.1332 43.1887 45.6114 43.1894C45.6098 43.0628 45.606 42.9376 45.602 42.8141C45.5866 42.3061 45.5718 41.8262 45.7361 41.53C47.6814 38.0222 49.8167 34.3145 52.66 29.5083C55.6372 24.4754 60.055 20.6758 66.5252 17.5957C66.1885 19.6957 65.8497 21.7954 65.5112 23.8954C65.1696 26.0129 64.8282 28.1304 64.4884 30.2482C64.3511 31.1053 64.2119 31.9619 64.0729 32.8187C63.6583 35.3726 63.2296 38.0131 62.8536 40.6189C62.5785 42.5249 63.4667 44.1417 65.229 44.9431C65.4674 45.0516 65.4943 45.0961 65.4922 45.378C65.4845 46.4471 65.4845 47.5164 65.4843 48.5854C65.4843 49.8882 65.4843 51.2355 65.4695 52.5589C65.4669 52.791 65.3729 53.0758 65.2355 53.2669C64.3076 54.559 63.3279 55.8507 62.3805 57.1L62.2907 57.2186C61.9196 57.7081 61.5461 58.3754 61.9556 59.2009C62.4488 60.1941 63.4592 60.1883 63.7924 60.1904C64.4358 60.1876 65.0797 60.1962 65.7236 60.2044C67.1228 60.2217 68.5695 60.2395 69.9949 60.152C71.5289 60.0584 72.754 59.7842 73.7403 59.3141C77.2083 57.6615 78.9042 54.7047 78.7807 50.5254C78.6637 46.5667 76.0475 43.2332 72.2709 42.2308C71.8848 42.1283 71.4952 42.0602 71.1183 41.9945C71.0993 41.991 71.0804 41.9879 71.0617 41.9844C71.2594 40.7539 71.4615 39.5264 71.6634 38.3009C72.2035 35.023 72.7617 31.6338 73.2126 28.2905L73.2138 28.2914ZM49.1878 62.7401C50.031 61.8943 51.1577 61.4281 52.3603 61.4279H52.3615C53.5639 61.4279 54.6912 61.8942 55.5352 62.7408C56.3766 63.5848 56.838 64.7078 56.834 65.9035C56.8303 67.0947 56.352 68.2204 55.4877 69.0734C54.6288 69.9216 53.5033 70.3919 52.3283 70.3704C49.8883 70.3463 47.8969 68.3437 47.8892 65.9061C47.8854 64.7083 48.3466 63.5841 49.1875 62.7403L49.1878 62.7401ZM12.3539 65.9112C12.3485 67.1015 11.8684 68.2264 11.002 69.0786C10.1412 69.9254 9.02532 70.3898 7.84114 70.3704C5.37172 70.3409 3.38382 68.3027 3.40956 65.827C3.43459 63.4006 5.44144 61.4279 7.8842 61.4279H7.88794C9.08943 61.4291 10.2153 61.8966 11.0584 62.744C11.8995 63.5896 12.3598 64.7147 12.3542 65.9112H12.3539ZM45.855 70.3187H14.3879C16.2153 67.367 16.2174 64.3969 14.3938 61.4689H45.844C44.0252 64.4023 44.029 67.3724 45.855 70.3187ZM23.2125 57.9601V56.5241H34.5556V57.9601H23.2125ZM46.5686 49.1168C46.4614 48.442 46.3683 47.7726 46.2698 47.0636C46.2499 46.9202 46.2298 46.7759 46.2094 46.6301C46.6397 46.6282 47.0672 46.6242 47.4926 46.6202C48.9494 46.6069 50.3249 46.594 51.7185 46.6575C52.4483 46.6907 53.0899 47.4757 53.1196 48.3718C53.1528 49.3709 53.1523 50.3468 53.1186 51.2725C53.084 52.221 52.3697 52.9567 51.3823 53.0613C51.2143 53.0795 51.0355 53.0772 50.846 53.0753L50.66 53.0739C35.4517 53.0743 20.2435 53.0739 5.03572 53.0744C3.59043 53.0744 3.40769 52.893 3.40769 51.4557V48.4116C3.40722 44.1501 3.40699 39.8884 3.40815 35.6269C3.40815 34.4884 3.6522 34.2417 4.78092 34.2375C5.17377 34.2361 5.56662 34.2361 5.99013 34.2369H6.17825V38.5985C6.17825 42.1943 6.17778 45.7901 6.17918 49.3859C6.17965 50.9133 6.79291 51.5366 8.29553 51.5369C20.3642 51.5392 32.4329 51.5394 44.5019 51.5369C45.3252 51.5369 45.895 51.338 46.2434 50.9297C46.5915 50.5219 46.698 49.9287 46.5688 49.1161L46.5686 49.1168ZM10.0642 10.3596C10.5268 9.79014 11.2795 9.48128 12.1979 9.49111C19.9735 9.57043 27.5336 9.57067 34.6686 9.49182C35.7208 9.48363 36.4698 9.7108 36.9539 10.1972C37.3956 10.6411 37.6343 11.3169 37.6788 12.2547H9.60418C9.51036 11.4989 9.66666 10.8489 10.0642 10.3596ZM25.7132 39.4143V15.7276H38.2125L41.6962 39.4143H25.7132ZM42.9648 48.0934H9.65238V42.9418H42.2159L42.9648 48.0934ZM45.9022 34.3597C45.5026 35.0481 45.103 35.7364 44.704 36.425L44.0266 31.8603C43.9555 31.3802 43.8858 30.9001 43.8161 30.4197C43.652 29.2901 43.4824 28.1218 43.2964 26.9739C43.1988 26.3716 43.2788 25.943 43.5723 25.494C47.2092 19.925 52.2232 16.0058 58.4747 13.8452C60.6219 13.1031 62.8153 12.374 64.9365 11.6688C65.828 11.3723 66.7194 11.0761 67.6102 10.7778C67.6015 10.8309 67.5934 10.8835 67.5849 10.9362C67.4525 11.7628 67.3271 12.5455 67.167 13.3192C67.1104 13.3579 67.0098 13.4107 66.9443 13.4449C66.8879 13.4744 66.8329 13.5032 66.7838 13.5315C65.9569 14.0046 65.1057 14.473 64.2823 14.9265C62.5085 15.9029 60.6743 16.9122 58.949 18.0417C55.041 20.6 51.7559 24.1785 49.1843 28.6777C48.0993 30.576 46.9825 32.4995 45.9025 34.3594L45.9022 34.3597ZM22.2038 15.7566V39.4361H9.64817V15.7566H22.2038ZM68.8894 47.719C68.8908 47.0547 68.8922 46.3905 68.8922 45.7262V45.378C71.425 45.1782 73.0984 45.8303 74.284 47.4647C75.6315 49.3225 75.814 51.4332 74.8257 53.7381C74.1001 55.4305 72.7323 56.4624 70.9741 56.643C69.8906 56.7542 68.7953 56.7277 67.6359 56.6996C67.4123 56.6945 67.1853 56.6889 66.9562 56.6844C66.9569 56.6833 66.9579 56.6821 66.9588 56.6807C67.3765 56.1065 67.771 55.5642 68.1977 55.0358C68.6893 54.4273 68.9135 53.7709 68.9036 52.9698C68.8819 51.221 68.8854 49.4409 68.8891 47.7192L68.8894 47.719ZM66.8905 41.9374C66.6654 41.9102 66.4967 41.8246 66.3893 41.6826C66.2431 41.4895 66.1974 41.1858 66.2573 40.8044C66.7784 37.4751 67.3224 34.0918 67.8489 30.8196L68.3496 27.7034C68.6868 25.6018 69.0248 23.5 69.3627 21.3984C70.1706 16.3748 71.006 11.1802 71.8165 6.06915L71.8328 5.96595C71.9533 5.20435 72.0261 4.74458 72.1883 4.57892C72.3476 4.41654 72.776 4.33489 73.5828 4.19333C74.3006 4.06745 75.022 3.95466 75.7859 3.83557C75.9376 3.81193 76.0908 3.78807 76.2459 3.7635L76.0082 5.25864C75.7719 6.74629 75.5419 8.19439 75.3096 9.64203L75.0768 11.0941C74.6729 13.6134 74.2555 16.218 73.8252 18.7761C73.7763 19.0667 73.6436 19.3966 73.4415 19.7305C73.1469 20.2174 72.8193 20.728 72.4213 21.1616C70.725 23.0091 70.2188 25.2579 69.9479 27.2142C69.4823 30.5722 68.9238 33.9776 68.3833 37.2706C68.1795 38.5126 67.9757 39.7543 67.7763 40.9968C67.7375 41.2375 67.5606 42.0197 66.8905 41.9374Z" fill="url(#paint0_linear_1_40)"/>
<path d="M20.1953 67.5929C20.3099 67.6041 20.4211 67.6071 20.5294 67.6071C20.5874 67.6071 20.6445 67.6062 20.7009 67.6055L21.8332 67.6038C27.685 67.6045 33.5364 67.6048 39.388 67.6015H39.4601C39.7586 67.6043 40.0953 67.6022 40.4226 67.5177C40.9128 67.3905 41.3179 67.0692 41.5338 66.6356C41.7456 66.2107 41.7598 65.7084 41.5731 65.2582C41.1295 64.1884 40.1086 64.1919 39.7689 64.1921C37.3566 64.1994 34.9442 64.1978 32.5324 64.1973L26.4203 64.1957C24.4179 64.1941 22.3481 64.1933 20.3116 64.2034C19.2821 64.2085 18.5368 64.9182 18.5397 65.8904C18.5422 66.798 19.2229 67.4978 20.1953 67.5923V67.5929Z" fill="url(#paint1_linear_1_40)"/>
<defs>
<linearGradient id="paint0_linear_1_40" x1="-1.19209e-06" y1="73.783" x2="94.0284" y2="43.3653" gradientUnits="userSpaceOnUse">
<stop stop-color="#0075BF"/>
<stop offset="1" stop-color="#005CA9"/>
</linearGradient>
<linearGradient id="paint1_linear_1_40" x1="18.5396" y1="67.6071" x2="24.4417" y2="55.6626" gradientUnits="userSpaceOnUse">
<stop stop-color="#0075BF"/>
<stop offset="1" stop-color="#005CA9"/>
</linearGradient>
</defs>
</svg>
