<svg width="80" height="81" viewBox="0 0 80 81" fill="none" xmlns="http://www.w3.org/2000/svg">
<path d="M75.5757 8.81904C75.9663 8.81904 76.3617 8.76562 76.7518 8.6533C79.0643 7.98879 80.42 5.65951 79.8374 3.35028C79.4299 1.73526 78.3129 0.646701 76.4223 0.0232541L76.3518 0H74.7991L74.5037 0.114579C74.3394 0.178408 74.1752 0.242205 74.0101 0.304055C71.8036 1.12913 70.6502 3.53881 71.3845 5.79039C71.9822 7.62362 73.7274 8.81904 75.5757 8.81904ZM74.7303 4.40988C74.7323 4.19514 74.8342 3.97672 75.0099 3.81047C75.1724 3.65659 75.3753 3.57002 75.5707 3.57002C75.5806 3.57002 75.5905 3.57 75.6004 3.57074C76.026 3.59004 76.424 4.00468 76.4196 4.42377C76.4173 4.63629 76.3186 4.85076 76.1484 5.01256C75.977 5.17584 75.7543 5.26222 75.5403 5.25579C75.1049 5.23872 74.7264 4.84333 74.7303 4.40988Z" fill="url(#paint0_linear_1_53)"/>
<path d="M34.7216 6.19537C34.8901 6.19537 35.0598 6.18103 35.2283 6.15134C36.7223 5.8891 37.7941 4.59202 37.7767 3.06755C37.7609 1.67939 37.0049 0.687758 35.4648 0.0366025L35.3785 0H33.9284L33.6472 0.155108C33.5106 0.230565 33.374 0.305807 33.237 0.380522C31.9114 1.10293 31.2966 2.66845 31.7751 4.10287C32.1902 5.34753 33.4257 6.19537 34.7214 6.19537H34.7216Z" fill="url(#paint1_linear_1_53)"/>
<path d="M79.9994 27.3778C80.014 26.7014 79.7535 26.2791 79.1545 26.009C78.018 25.4964 76.8725 24.9466 75.7647 24.415C75.3852 24.2326 75.0057 24.0505 74.6254 23.8692C74.3372 23.7316 74.069 23.3737 73.926 22.9343C73.7894 22.514 73.7927 22.0899 73.9349 21.8277L74.1252 21.4766C74.858 20.1238 75.6155 18.7253 76.379 17.3618C76.5861 16.9925 76.7654 16.4915 76.3109 15.8925C75.9275 15.3871 75.547 14.8624 75.1791 14.3549C74.6981 13.6919 74.2011 13.0061 73.6855 12.3468C73.4114 11.9962 72.8097 11.7578 72.3691 11.8303C71.0831 12.0356 69.7853 12.2827 68.53 12.5217C68.1092 12.6019 67.6883 12.6821 67.2673 12.7607C67.0743 12.7966 66.6925 12.6974 66.2759 12.3943C65.8539 12.0871 65.6391 11.7484 65.6136 11.5495L65.4454 10.2477C65.2858 9.01808 65.1206 7.74669 64.9763 6.4956C64.9256 6.05522 64.7693 5.51986 64.0045 5.28928C62.6849 4.89146 61.3455 4.45773 59.9093 3.96368C59.3062 3.75636 58.8445 3.87485 58.4128 4.34813C57.5637 5.27835 56.6788 6.20786 55.8228 7.10667C55.5393 7.40429 55.2558 7.70216 54.9727 8.00053C54.7434 8.24249 54.3401 8.38721 53.8941 8.38745H53.8928C53.4332 8.38745 53.0146 8.23576 52.7729 7.98168C52.4861 7.67986 52.1982 7.37905 51.9104 7.07822C51.0737 6.20341 50.2086 5.29894 49.3842 4.3895C48.9171 3.87392 48.4112 3.75414 47.7447 3.99956L47.4028 4.12621C46.5777 4.43274 45.7245 4.7499 44.8754 4.92012C43.3351 5.22986 42.6057 6.04037 42.6515 7.39562C42.6461 7.39562 42.6406 7.3949 42.6352 7.39465C41.1815 7.30608 39.7277 7.21652 38.274 7.12696C34.2904 6.88129 30.1709 6.62719 26.1176 6.40131C25.2942 6.35554 24.7559 6.22543 24.2697 5.67101C23.8895 5.23757 23.8692 4.74227 23.8457 4.1688L23.8425 4.09064C23.8063 3.23488 23.5829 2.20494 22.1651 1.83409C21.4128 1.6374 20.6926 1.33855 20.0822 0.970423C18.8079 0.201258 17.7191 0.342003 16.5531 1.42759C15.6362 2.28137 14.8176 2.28483 13.7268 1.4407C13.634 1.36895 13.5432 1.29276 13.4527 1.21631C13.2139 1.01592 12.967 0.808587 12.6684 0.654952C12.3592 0.495874 11.8485 0.363073 11.4277 0.511018C11.0151 0.656242 10.614 0.831867 10.2261 1.00183C9.71448 1.22622 9.23131 1.43797 8.72859 1.5827C7.16453 2.03297 6.44361 2.94244 6.39067 4.53198C6.3496 5.76948 5.72244 6.35731 4.2947 6.49759C4.1616 6.51045 4.03592 6.53319 3.91445 6.55545C3.74448 6.58613 3.58318 6.61383 3.44909 6.60715C2.43722 6.55001 2.1401 7.33775 2.01343 7.67545C1.9595 7.8187 1.90631 7.9629 1.85311 8.10713C1.57677 8.85577 1.29078 9.62992 0.904338 10.309C0.185147 11.5727 0.327155 12.6393 1.3645 13.7677C2.23906 14.7187 2.24054 15.5578 1.36994 16.6639C1.30636 16.7446 1.24525 16.8275 1.18439 16.9106C1.06614 17.0716 0.954313 17.2238 0.83086 17.3458C0.296725 17.873 0.199497 18.4724 0.532991 19.1778C0.960003 20.0808 1.32665 21.0187 1.68142 21.9256C1.78755 22.1973 1.83703 22.4355 1.82491 22.6141C1.72595 24.0505 1.60967 25.5109 1.49686 26.9231C1.44763 27.5408 1.39839 28.1583 1.35015 28.7761C1.21507 30.5146 1.0743 32.2526 0.933531 33.9903C0.609438 37.9905 0.274706 42.127 0.0166686 46.2019C-0.159727 48.9909 1.07232 51.6519 3.31277 53.3199C5.57598 55.0051 8.51236 55.4252 11.1679 54.4433C12.6402 53.8993 14.1058 53.2774 15.5232 52.6762C16.1944 52.3914 16.8653 52.1066 17.539 51.8291C17.8923 51.6836 18.2465 51.5406 18.6317 51.3857C18.0224 54.8293 19.0721 57.6734 21.7599 59.8592C20.5842 60.2367 19.4081 60.6127 18.2319 60.9885C15.4178 61.8878 12.5076 62.8181 9.65288 63.7577C6.82188 64.6891 4.94907 66.6846 4.23681 69.5288C3.56561 72.2091 4.13463 74.9127 5.7979 76.9458C7.48195 79.0044 10.0579 80.1112 12.8703 79.9826C18.2547 79.7357 23.7269 79.4465 29.0188 79.1665L32.1781 78.9997C40.603 78.5564 50.3998 78.0386 60.0514 77.499C60.6738 77.4624 60.7292 77.6091 60.7886 77.9144C60.9687 78.8416 61.5694 79.3592 62.6253 79.4962C63.0684 79.5539 63.5031 79.6462 63.9635 79.7436C64.3895 79.8342 64.8301 79.9274 65.2762 79.9903C65.3365 79.9989 65.3991 80.0029 65.4627 80.0029C65.8393 80.0029 66.2549 79.8596 66.5075 79.6313C66.8855 79.2901 67.2494 78.9279 67.601 78.5776C68.1309 78.0497 68.6317 77.5512 69.1863 77.1076C69.5322 76.831 70.1039 76.641 70.6428 76.6237C71.3978 76.5989 72.2237 76.7016 73.0292 76.9198C74.4186 77.2951 75.2924 76.7875 76.2511 75.8444C77.8171 74.3041 78.1929 72.7868 77.5084 70.7709L77.4665 70.6482C77.088 69.5342 76.8795 68.9206 76.928 68.5352C76.9703 68.1994 77.2313 67.8939 77.87 67.1742C78.02 67.0055 78.1867 66.8177 78.3713 66.605C79.3982 65.4214 80.4163 63.7794 79.1625 61.5664C79.0526 61.3725 78.9759 61.1469 78.947 60.9314C78.8055 59.8742 78.0121 59.5669 77.4279 59.4279C76.7238 59.2602 76.0091 59.0501 75.3179 58.8473C75.1237 58.7901 74.9292 58.733 74.7343 58.6766C74.6954 57.6996 74.6598 56.7266 74.6239 55.7565C74.525 53.0745 74.4228 50.3008 74.26 47.5861C74.1779 46.2205 74.4661 45.2915 75.2236 44.4798C75.4577 44.2292 75.6467 43.9538 75.8295 43.6871C75.9725 43.4785 76.1076 43.2816 76.258 43.1045C76.7904 42.4756 76.5776 41.9173 76.3711 41.5514C75.6487 40.2718 74.9369 38.9557 74.2484 37.6828L73.9263 37.0875C73.7924 36.8404 73.7949 36.4071 73.9327 35.9836C74.0702 35.5601 74.3228 35.2082 74.5759 35.0873L75.4846 34.6521C76.6912 34.0737 77.9391 33.4757 79.1753 32.9136C79.7575 32.6492 80.0113 32.2471 79.9984 31.6108C79.969 30.168 79.9692 28.7435 79.9989 27.3774L79.9994 27.3778ZM73.4802 69.5127C73.6217 70.1715 73.7875 70.8326 73.9475 71.4718C74.0166 71.7479 74.0856 72.0238 74.1531 72.3003C74.2216 72.5814 73.8691 73.2852 73.6301 73.3721C73.6083 73.3751 73.5433 73.3699 73.5002 73.3664C73.4488 73.3622 73.3971 73.3583 73.3463 73.3573C73.1477 73.3335 72.9483 73.3139 72.7491 73.2944C72.311 73.2516 71.8973 73.211 71.4938 73.1267C69.484 72.7061 67.7722 73.264 66.4056 74.7842C66.2749 74.9295 66.1248 75.0658 65.9657 75.21C65.7551 75.401 65.5374 75.5987 65.3467 75.8354C64.9066 76.3817 64.5468 76.3157 64.2237 76.1628C63.9625 76.0391 63.8264 75.9114 63.7891 75.8399C63.5048 75.2909 63.2505 74.6915 63.034 74.0574C62.3861 72.1621 61.0528 70.9879 59.0714 70.5671C58.8831 70.5273 58.6939 70.4686 58.4932 70.407C58.2174 70.3222 57.9319 70.2341 57.6273 70.1888C57.0798 70.1067 56.8381 69.8701 56.7931 69.3724C56.7696 69.1126 56.8087 68.9186 56.8579 68.8417C57.1981 68.3088 57.59 67.7875 58.0224 67.2923C59.3332 65.79 59.6906 64.0753 59.0848 62.1958C59.0269 62.0164 58.9868 61.8232 58.9445 61.6184C58.8789 61.3029 58.8111 60.9767 58.6694 60.6605C58.4534 60.1783 58.5509 59.8566 59.0289 59.4742C59.1528 59.375 59.3272 59.3127 59.4217 59.3127C59.4259 59.3127 59.4299 59.3126 59.4338 59.3131C60.1978 59.3614 60.8801 59.4455 61.5194 59.5697C63.3784 59.9316 64.9907 59.3831 66.3123 57.9396C66.4541 57.7847 66.6146 57.64 66.7846 57.4866C67.025 57.2694 67.2742 57.0449 67.4877 56.7735C67.7977 56.3799 68.1067 56.3018 68.5545 56.5024C68.7591 56.5942 68.9518 56.7533 69.0233 56.8893C69.288 57.3928 69.5354 57.9759 69.7796 58.6726C70.4288 60.5239 71.7224 61.6654 73.6244 62.0655C73.8221 62.107 74.022 62.1723 74.2338 62.2416C74.5217 62.3353 74.8194 62.4328 75.1405 62.4786C75.6971 62.5583 75.948 62.816 76.0061 63.3682C76.0264 63.5619 75.9861 63.7458 75.9376 63.8205C75.6059 64.3331 75.2439 64.8111 74.8612 65.2413C73.9728 66.2403 73.5089 67.2774 73.4421 68.4301C73.4228 68.7648 73.4008 69.1436 73.4802 69.5127ZM26.7907 48.4043H26.7994C28.0762 48.4068 29.2783 48.909 30.1841 49.8185C31.0898 50.7276 31.5871 51.9317 31.5841 53.2083C31.5811 54.4834 31.0772 55.687 30.1648 56.5974C29.2561 57.5041 28.0594 58.0029 26.7939 58.0029H26.7803C25.5102 57.9994 24.3078 57.4925 23.3949 56.5762C22.4823 55.6598 21.9815 54.4572 21.9852 53.1898C21.9929 50.5493 24.148 48.4043 26.7907 48.4043ZM20.5105 70.1314C20.1364 68.0721 19.0832 66.36 17.3752 65.03L18.0063 64.8254C19.1718 64.4469 20.296 64.0818 21.4212 63.7198C22.2942 63.4385 23.1683 63.1609 24.0424 62.8833C25.7403 62.3442 27.4958 61.7867 29.2157 61.2117C31.8659 60.3263 33.8891 58.4007 34.7659 55.9292C35.6192 53.5247 35.2872 50.854 33.855 48.6017C31.8468 45.4431 27.7385 43.9996 24.2989 45.2433C22.5001 45.8937 20.7119 46.6498 18.9828 47.3811C18.1998 47.7118 17.417 48.0431 16.631 48.3657C16.5857 48.3843 16.5402 48.4028 16.4945 48.4211C17.16 44.8707 16.0531 41.9346 13.2637 39.892C10.4297 37.8166 7.35008 37.662 4.09901 39.4282L5.29197 24.1567C5.76351 24.3789 6.30581 24.8939 6.36568 25.2534C6.37879 25.3321 6.39487 25.4115 6.41095 25.4914C6.44757 25.6718 6.48245 25.842 6.47008 25.977C6.34391 27.3815 7.02129 28.2811 8.54106 28.7271C9.47871 29.0025 10.3839 29.428 11.2597 29.8392C11.9067 30.1435 12.4599 30.0559 12.9507 29.5713C13.0766 29.4468 13.2298 29.3338 13.3918 29.2145C13.4745 29.1534 13.5571 29.0923 13.6375 29.0292C14.8134 28.1054 15.6343 28.1086 16.6652 29.0406C17.7359 30.0077 18.7574 30.1442 19.9778 29.4822C20.508 29.1947 21.0704 28.9738 21.6658 28.74C22.0815 28.5767 22.5112 28.4078 22.9276 28.2146C23.3118 28.0364 23.5654 27.6015 23.6656 27.2833C23.7682 26.9575 23.795 26.6297 23.8212 26.3128C23.8284 26.224 23.8358 26.1349 23.8447 26.0468C23.9909 24.6359 24.5706 24.0325 25.8454 23.9644C27.4491 23.8786 28.3343 23.1928 28.7152 21.7411C28.8523 21.2186 29.0769 20.7164 29.3147 20.1845C29.4881 19.7968 29.6672 19.3957 29.8122 18.9816C29.9649 18.5454 29.832 18.0081 29.6719 17.6803C29.5228 17.3752 29.3125 17.1276 29.1089 16.8884C29.0317 16.7976 28.9545 16.707 28.8822 16.6137C28.071 15.5667 28.0698 14.7124 28.8783 13.8441C29.6004 13.0687 30.4339 11.8508 29.3399 10.2353C29.3263 10.215 29.3132 10.192 29.3006 10.166L42.1849 10.9235C42.1827 11.8921 41.7648 12.4777 40.8638 12.7976C40.8076 12.8146 40.6285 12.7817 40.5323 12.7642L40.5033 12.759C39.9788 12.6625 39.4551 12.5635 38.9311 12.4646C37.7772 12.2461 36.5843 12.0205 35.4025 11.8308C34.9586 11.7583 34.355 11.9923 34.0848 12.3391C33.5836 12.9811 33.1007 13.6494 32.6336 14.2953C32.2536 14.821 31.8607 15.3641 31.4631 15.8864C31.0002 16.4942 31.1751 16.991 31.379 17.3557C32.1229 18.6857 32.8589 20.0513 33.5707 21.3719L33.8523 21.8942C33.9673 22.1075 33.9539 22.5296 33.8191 22.9445C33.6815 23.3673 33.4379 23.724 33.2122 23.8323L32.4497 24.1987C31.1964 24.8019 29.9005 25.4256 28.6148 26.0087C28.0077 26.2841 27.743 26.7054 27.7566 27.3756C27.785 28.7722 27.785 30.1969 27.7566 31.6103C27.7437 32.2417 28.001 32.6437 28.5903 32.9134C29.8941 33.5101 31.2105 34.1417 32.4836 34.7528L33.1895 35.0912C33.4329 35.208 33.6786 35.5554 33.8156 35.9772C33.9552 36.4064 33.9601 36.8414 33.8285 37.0853L33.3186 38.0306C32.6939 39.1899 32.048 40.389 31.3906 41.553C31.0769 42.109 31.1088 42.5825 31.4935 43.0884C31.8842 43.6018 32.2699 44.1362 32.6432 44.6527C33.1016 45.2876 33.5759 45.9439 34.0677 46.575C34.3463 46.9323 34.9458 47.1752 35.3762 47.1075C36.682 46.8996 37.9997 46.6485 39.274 46.406C39.6758 46.3296 40.0776 46.2532 40.4793 46.1777C40.7159 46.1319 41.1132 46.2757 41.4682 46.5315C41.8257 46.7895 42.0884 47.1265 42.1218 47.37L42.2267 48.1349C42.4227 49.5633 42.6255 51.0408 42.8024 52.4953C42.8531 52.9116 43.004 53.4178 43.726 53.6373C44.3257 53.8194 44.9338 54.0183 45.5221 54.2105C46.3063 54.4671 47.1176 54.7323 47.9278 54.9649C48.3481 55.0853 48.9718 54.9183 49.2907 54.6002C50.1403 53.7511 50.9765 52.8651 51.7852 52.0081C52.1323 51.6403 52.4797 51.2724 52.8288 50.9063C53.0388 50.6863 53.4403 50.5495 53.8773 50.5495H53.8792C54.3327 50.55 54.7523 50.6952 54.974 50.9287C55.2523 51.2219 55.5314 51.5146 55.8104 51.8073C56.6719 52.7105 57.5625 53.6447 58.418 54.5787C58.8549 55.0559 59.3168 55.1771 59.9158 54.972C61.3138 54.4918 62.6918 54.045 64.0117 53.6445C64.6109 53.4626 64.9108 53.0915 64.9843 52.4413C65.1376 51.0809 65.319 49.6984 65.4944 48.3612L65.6216 47.3897C65.6535 47.1453 65.9209 46.8021 66.2871 46.5359C66.7005 46.2356 67.0817 46.1374 67.2729 46.1732L70.7081 46.8138L70.9721 53.426C70.8127 53.3612 70.6475 53.3031 70.4718 53.2615C70.0421 53.1606 69.6057 53.0762 69.1834 52.9945C68.6876 52.8988 68.175 52.7998 67.6846 52.6749C66.9194 52.4807 66.4649 52.8139 66.1544 53.1262C65.5733 53.7105 64.9657 54.2919 64.3781 54.854C64.1018 55.1185 63.8252 55.3829 63.5503 55.6491C63.156 56.0304 62.7351 56.1623 62.1859 56.0762C60.9143 55.8768 59.6676 55.7172 58.4811 55.6017C58.0919 55.5633 57.6063 55.7486 57.3253 56.042C56.4796 56.9228 55.7666 57.7278 55.1454 58.5029C54.8698 58.8468 54.735 59.4069 54.8253 59.8349C55.0447 60.8789 55.3248 61.9219 55.5954 62.9301L55.6954 63.3029C55.8604 63.9202 55.757 64.415 55.3602 64.9068C54.5828 65.8704 53.8382 66.8516 53.1467 67.8227C52.9201 68.1411 52.8355 68.6507 52.9453 69.0344C53.1039 69.5886 53.2887 70.1396 53.4676 70.6727C53.6192 71.1245 53.7758 71.592 53.9136 72.0527C54.0957 72.662 54.4507 73.0028 55.0643 73.1566C56.0727 73.41 57.1204 73.7031 58.2614 74.0505L19.369 76.093C20.5214 74.2071 20.8947 72.2484 20.51 70.1314H20.5105ZM4.79494 43.7821C5.63709 42.9125 6.76053 42.4237 7.95794 42.4054C7.9812 42.4049 8.00421 42.4046 8.02746 42.4046C10.477 42.4046 12.4915 44.3784 12.5326 46.8358C12.5526 48.0418 12.1113 49.172 11.2899 50.0183C10.447 50.8864 9.2892 51.3739 8.02895 51.3904C8.00866 51.3904 7.98887 51.3909 7.96858 51.3909C5.52477 51.3909 3.58639 49.431 3.54384 46.9028C3.52454 45.7435 3.96887 44.6354 4.79494 43.7821ZM9.96089 5.21185C10.0007 5.1312 10.1746 4.9674 10.2699 4.87759C10.3119 4.83776 10.3533 4.79893 10.3916 4.76132C10.4136 4.75192 10.4564 4.73829 10.4861 4.72889C10.5836 4.69796 10.7048 4.65962 10.8231 4.58193C11.3711 4.22246 11.7877 4.28558 12.2615 4.79968C12.8164 5.40111 13.5333 5.65544 14.3916 5.55969C14.759 5.51788 15.1115 5.51759 15.4393 5.55891C16.6409 5.70933 17.6399 5.36421 18.4086 4.53047C18.607 4.31524 18.7829 4.2378 19.1431 4.44265C19.414 4.59728 19.7218 4.72393 20.0343 4.80904C20.3576 4.89711 20.4143 5.05844 20.4011 5.29001C20.3351 6.44858 20.7913 7.39811 21.7962 8.19375C21.9701 8.3313 22.132 8.49335 22.2641 8.66258C22.9632 9.55618 23.816 9.97798 24.8902 9.94928C25.0819 9.94582 25.3039 10.0008 25.3815 10.0463C25.7175 10.6522 25.9357 11.2199 26.031 11.7345C25.9751 11.8431 25.7695 12.0529 25.6552 12.17C25.6069 12.2194 25.5602 12.2669 25.5174 12.3124C24.9182 12.9492 24.6792 13.6437 24.7875 14.4354C24.8192 14.6682 24.8195 14.9196 24.7878 15.162C24.6077 16.5492 24.9723 17.6783 25.9031 18.613C25.9243 18.6845 25.9263 18.8623 25.9278 18.9717C25.9285 19.0313 25.9293 19.0902 25.9315 19.1466C25.9276 19.1538 25.9238 19.1609 25.9199 19.1684C25.8845 19.2352 25.8363 19.3267 25.811 19.4408C25.6289 20.2666 25.2101 20.5919 24.412 20.535C23.7279 20.4833 23.1463 20.7569 22.6324 21.3667C22.3751 21.672 22.1275 21.9199 21.8754 22.124C20.8047 22.9919 20.3188 23.9795 20.3898 25.1425C20.4014 25.335 20.3801 25.4912 19.9991 25.604C19.6503 25.7072 19.3279 25.8506 18.987 26.0025C18.9073 26.0379 18.826 26.0743 18.7431 26.1104C18.6555 26.0599 18.5699 26.0079 18.5226 25.9567C17.8279 25.2022 16.9757 24.8314 15.9292 24.8314C15.7389 24.8314 15.542 24.8435 15.3384 24.8682C15.0717 24.9004 14.7896 24.8999 14.5227 24.8677C13.5276 24.747 12.7152 25.0342 12.1053 25.719C11.7419 26.1267 11.4228 26.1673 10.9277 25.8682C10.7991 25.7905 10.6692 25.7475 10.5549 25.7096C10.4925 25.6889 10.3983 25.6574 10.3743 25.6389L10.3387 25.6064C10.2214 25.499 9.97746 25.2757 9.95124 25.1898C9.89731 24.0186 9.46807 23.0971 8.55987 22.2012C7.66502 21.3185 6.65266 20.3138 5.01933 20.3809C4.97059 20.3403 4.89934 20.2658 4.85704 20.2213L4.82117 20.1842C4.8177 20.1735 4.81473 20.1624 4.81127 20.1515C4.78826 20.0763 4.75659 19.9734 4.68905 19.871C4.16605 19.0776 4.2373 18.486 4.93447 17.8304C5.32413 17.464 5.41715 16.8426 5.48519 16.3889C5.52675 16.111 5.51611 15.8436 5.50572 15.585C5.49731 15.3728 5.48914 15.1726 5.5119 14.9898C5.66851 13.7256 5.30706 12.6776 4.43745 11.8753C4.2284 11.6823 4.2133 11.5527 4.36966 11.2969C4.50821 11.0703 4.60791 10.8216 4.65763 10.5779C4.74596 10.1467 4.94239 9.8825 5.63734 9.90501C6.54381 9.93717 7.2818 9.58858 7.82336 8.88201C7.98887 8.66603 8.18456 8.47009 8.38965 8.31497C9.4218 7.53492 9.9359 6.52008 9.96064 5.21257L9.96089 5.21185ZM72.0393 32.3805C71.6262 32.6007 71.238 33.0458 71.0737 33.4879C70.976 33.7508 70.8632 34.0161 70.7435 34.2966C70.3617 35.1934 69.9669 36.1207 70.0512 37.0541C70.1297 37.9225 70.6302 38.7035 71.1143 39.4586C71.3164 39.7735 71.5072 40.0716 71.6673 40.3722C71.7071 40.4469 71.7444 40.5231 71.782 40.5998C71.8879 40.8153 71.9973 41.0382 72.1576 41.2465C72.618 41.845 72.5896 42.2594 72.0445 42.8888C71.6888 43.2995 71.5074 43.3715 71.074 43.2762C69.8212 42.9996 68.4798 42.7472 66.7254 42.4578C66.3692 42.4001 65.914 42.5014 65.5639 42.7188C65.2994 42.8831 65.0572 43.0714 64.8229 43.2532C64.5288 43.4818 64.251 43.6975 63.9536 43.8499C62.344 44.6745 62.0924 46.103 62.0434 47.1059C61.9878 48.2425 61.7849 49.3971 61.606 50.4159C61.5934 50.4881 61.4487 50.6725 61.2827 50.7695C60.4331 51.2655 59.8559 51.1331 59.2241 50.2969C58.5808 49.4458 57.8097 48.691 57.064 47.9615C56.9225 47.8232 56.7812 47.6849 56.641 47.5461C56.4185 47.3261 56.1333 47.2356 55.8814 47.1554C55.7973 47.1287 55.713 47.1027 55.6333 47.0693C55.5138 47.0204 55.4091 47.0295 55.3777 47.0335C55.0348 47.0327 54.6811 47.0092 54.3058 46.9813C53.4121 46.9152 52.4881 46.8459 51.6848 47.1859C50.8825 47.5255 50.2914 48.2388 49.72 48.9283C49.4812 49.2165 49.2556 49.4886 49.0178 49.7321C48.975 49.7759 48.93 49.8182 48.8847 49.8607C48.7504 49.9872 48.598 50.1301 48.4812 50.3179C47.9793 51.1259 47.4224 51.262 46.4956 50.8031C46.1525 50.6331 46.1208 50.5802 46.0965 50.3595C45.9328 48.8667 45.7262 47.3143 45.482 45.745C45.4197 45.3442 45.1631 44.9053 44.8442 44.6525C43.9748 43.9637 43.1013 43.3296 42.2477 42.7685C41.9536 42.5751 41.5535 42.4627 41.1904 42.4627C41.1055 42.4627 41.0224 42.4692 40.9432 42.4818C39.4059 42.7282 37.9099 43.0224 36.5224 43.3034C36.2293 43.3631 36.0976 43.3299 35.7931 42.9969C35.1852 42.3322 35.1553 41.8487 35.6743 41.0805C36.348 40.0835 36.8864 38.9915 37.4071 37.9356L37.4848 37.7783C37.6827 37.377 37.7339 36.8285 37.6147 36.3815C37.3586 35.4215 37.0336 34.4191 36.6491 33.4023C36.4942 32.9923 36.1404 32.5895 35.7686 32.3995C34.4712 31.7367 33.0826 31.0713 31.642 30.4213C31.4084 30.3157 31.3439 30.2469 31.2951 29.8612C31.1739 28.9038 31.4327 28.4746 32.3204 28.1609C33.3998 27.7789 34.4245 27.2388 35.4156 26.7163L35.728 26.5517C36.1276 26.3417 36.4913 25.9325 36.6545 25.509C37.0108 24.5847 37.3374 23.583 37.6248 22.531C37.7433 22.0978 37.6963 21.5744 37.5053 21.1976C36.7377 19.6815 36.0769 18.466 35.4257 17.3717C35.1367 16.8861 35.1778 16.7159 35.448 16.4509C35.6028 16.2988 35.7179 16.1251 35.8196 15.9717C35.8898 15.8656 35.9564 15.7654 36.0264 15.6855C36.0546 15.6533 36.1056 15.6184 36.1565 15.5867C36.559 15.6612 36.9546 15.736 37.345 15.8097C38.5447 16.036 39.6778 16.2501 40.8309 16.4247C41.3438 16.5024 41.9524 16.3696 42.3475 16.0947C42.5763 15.9354 42.8163 15.7822 43.0701 15.6201C43.9306 15.0712 44.8205 14.5036 45.315 13.6536C45.7626 12.8839 45.8101 11.9381 45.8563 11.0233C45.8756 10.6408 45.8939 10.2793 45.9394 9.9337L45.955 9.82383C45.9778 9.66995 46.0035 9.49528 45.9929 9.3085C45.9446 8.47204 46.2791 8.08363 47.2264 7.87508C47.6309 7.78577 47.7487 7.83899 47.9699 8.08243C49.0606 9.28232 50.076 10.3508 51.0737 11.3483C51.378 11.6529 51.8726 11.8666 52.3048 11.88C52.6056 11.8891 52.9136 11.9146 53.2397 11.9418C54.2122 12.0227 55.2179 12.1061 56.0883 11.7429C56.8935 11.4075 57.4831 10.6873 58.0531 9.99035C58.2914 9.69917 58.5162 9.4243 58.7535 9.17888C58.8015 9.12915 58.852 9.08113 58.9024 9.03289C59.0464 8.89534 59.2095 8.73927 59.3361 8.54159C59.7985 7.81993 60.2899 7.69796 61.1491 8.09059C61.5687 8.28257 61.6364 8.35702 61.6676 8.66082C61.8294 10.2407 62.0174 11.6773 62.2426 13.0531C62.319 13.5197 62.6087 14.0198 62.9806 14.3275C63.7727 14.9836 64.6077 15.5912 65.4627 16.1333C65.8573 16.3839 66.4207 16.4994 66.8989 16.4247C68.5003 16.1791 70.0653 15.8678 71.2499 15.6236C71.643 15.5427 71.7605 15.632 71.8897 15.877C72.0285 16.1399 72.2108 16.3925 72.4174 16.6068C72.5742 16.7698 72.6138 16.8537 72.4421 17.1545C71.7823 18.3106 71.0114 19.6854 70.2991 21.1166C70.0896 21.5377 70.0339 22.135 70.1574 22.6379C70.2717 23.1028 70.4283 23.5545 70.5797 23.9912C70.7254 24.411 70.863 24.8076 70.9661 25.2156C71.1457 25.9249 71.5539 26.3868 72.2892 26.7126C72.9265 26.9954 73.5688 27.3053 74.1897 27.6049C74.8223 27.9102 75.4762 28.2259 76.1323 28.5166C76.3562 28.6158 76.401 28.6668 76.4614 29.0807C76.5982 30.0154 76.3144 30.4651 75.377 30.7996C74.2362 31.2068 73.1546 31.7842 72.1086 32.3426L72.0393 32.3798V32.3805ZM17.0504 71.7056C17.0471 72.979 16.5425 74.1779 15.6293 75.0814C14.7273 75.9743 13.5373 76.4564 12.2963 76.4505C9.61898 76.4295 7.45597 74.2457 7.47428 71.5829C7.48269 70.366 8.01237 69.1524 8.92775 68.2536C9.83372 67.3637 11.0418 66.8561 12.2486 66.8561C12.2644 66.8561 12.2805 66.8561 12.2963 66.8561C14.969 66.8858 17.0573 69.0162 17.0504 71.7056Z" fill="url(#paint2_linear_1_53)"/>
<path d="M53.1917 15.814C53.1724 15.814 53.1529 15.814 53.1336 15.814C49.4986 15.8296 46.0728 17.2664 43.4875 19.8604C40.9014 22.4549 39.4871 25.875 39.5044 29.4905C39.5219 33.1228 40.962 36.5485 43.559 39.1375C46.1399 41.71 49.5302 43.1239 53.1133 43.1239C53.1371 43.1239 53.1613 43.1239 53.1851 43.1239C60.7295 43.0843 66.8435 36.9471 66.8138 29.4422C66.7997 25.8114 65.3623 22.3873 62.7668 19.8015C60.1847 17.2288 56.7865 15.8142 53.192 15.8142L53.1917 15.814ZM63.249 29.407C63.321 34.8976 58.8295 39.451 53.2365 39.5578C53.1747 39.5591 53.1123 39.5596 53.0507 39.5596C47.6814 39.5596 43.2211 35.1141 43.0679 29.5627C42.9964 26.9727 43.9858 24.4779 45.8531 22.5378C47.7601 20.5564 50.4075 19.4037 53.116 19.375C53.1519 19.3745 53.1868 19.3743 53.2222 19.3743C58.688 19.3743 63.1763 23.8529 63.249 29.407Z" fill="url(#paint3_linear_1_53)"/>
<path d="M15.1513 22.4363H15.1706C17.0988 22.4313 18.9224 21.6602 20.3054 20.2651C21.6752 18.8834 22.4234 17.0774 22.412 15.1796C22.3885 11.2457 19.0808 7.93896 15.1803 7.93896H15.1414C11.14 7.96148 7.89459 11.2227 7.90671 15.2086C7.91883 19.1981 11.1669 22.4363 15.1513 22.4363ZM11.4653 15.2102C11.4618 14.2281 11.854 13.2957 12.5699 12.5849C13.2711 11.8887 14.1815 11.5064 15.1375 11.5064C15.1501 11.5064 15.1624 11.5064 15.1748 11.5064C17.1906 11.5275 18.8408 13.1771 18.8531 15.1843C18.8591 16.1531 18.4756 17.0742 17.7735 17.7778C17.0654 18.4873 16.1337 18.8772 15.1483 18.8772H15.133C13.1179 18.8688 11.4725 17.2238 11.4653 15.2102Z" fill="url(#paint4_linear_1_53)"/>
<path d="M66.4494 59.3536C62.6305 59.2601 59.4094 62.3671 59.2884 66.2906C59.2335 68.0749 59.9047 69.8013 61.1785 71.1516C62.4987 72.5511 64.3529 73.3839 66.2656 73.4363C66.3269 73.438 66.3878 73.4388 66.4486 73.4388C68.1757 73.4388 69.8323 72.7661 71.1307 71.5326C72.5065 70.2261 73.3214 68.3978 73.3667 66.5163C73.4592 62.6673 70.3561 59.4541 66.4491 59.3536H66.4494ZM62.8455 66.3718C62.8589 64.4686 64.4254 62.9179 66.3376 62.9154H66.3423C68.2767 62.9154 69.8002 64.4287 69.8113 66.3624C69.8167 67.2951 69.4333 68.2125 68.7596 68.8787C68.106 69.5252 67.2599 69.879 66.3712 69.879C66.3526 69.879 66.3338 69.879 66.3153 69.8785C64.4212 69.8468 62.8322 68.2409 62.8455 66.3718Z" fill="url(#paint5_linear_1_53)"/>
<path d="M26.7868 56.295H26.7912C27.6128 56.295 28.3867 55.9709 28.9706 55.3824C29.5616 54.7861 29.8822 53.9962 29.8741 53.158C29.8572 51.4799 28.475 50.115 26.793 50.115H26.792C25.956 50.115 25.1708 50.445 24.5814 51.0435C23.9968 51.6372 23.6817 52.418 23.6943 53.2423C23.7198 54.9232 25.1072 56.2925 26.7873 56.295H26.7868Z" fill="url(#paint6_linear_1_53)"/>
<path d="M12.2951 68.5544C12.2832 68.5544 12.2713 68.5544 12.2595 68.5544C10.5831 68.5742 9.20482 69.9555 9.18676 71.6333C9.1781 72.4495 9.49551 73.2231 10.0809 73.8114C10.6729 74.4067 11.4579 74.7337 12.2931 74.7337H12.3104C14.0153 74.7243 15.3562 73.3805 15.3631 71.6747C15.3665 70.8305 15.0387 70.0383 14.4403 69.4443C13.8611 68.8696 13.1006 68.5544 12.2951 68.5544Z" fill="url(#paint7_linear_1_53)"/>
<path d="M8.30229 49.6823H8.32456C9.16052 49.6823 9.94527 49.3574 10.5361 48.7664C11.1212 48.1813 11.4401 47.4085 11.4341 46.5903C11.422 44.9157 10.0462 43.5317 8.36761 43.5055C7.55218 43.4986 6.77807 43.807 6.18678 44.3904C5.58387 44.9854 5.2531 45.7764 5.25507 46.618C5.25903 48.3246 6.59771 49.6707 8.30229 49.6823Z" fill="url(#paint8_linear_1_53)"/>
<path d="M52.8246 21.1078C48.1354 21.4037 44.5355 25.2757 44.7997 29.7398C44.9372 32.0641 46.005 34.2744 47.7299 35.8033C49.2279 37.1316 51.0792 37.8481 52.9879 37.8481C53.1427 37.8481 53.2978 37.8434 53.4532 37.834C55.7699 37.6927 57.9739 36.6205 59.5001 34.8917C60.937 33.2646 61.656 31.226 61.5246 29.1525C61.2258 24.4331 57.3258 20.8302 52.8248 21.1081L52.8246 21.1078ZM56.899 32.4659C56.0455 33.481 54.7642 34.1297 53.3834 34.2452C52.2058 34.3449 51.0482 33.9669 50.1264 33.1841C49.1111 32.3217 48.4916 31.0827 48.3815 29.695C48.1772 27.1174 50.1767 24.918 52.9329 24.6879C53.0584 24.6775 53.1828 24.6723 53.3063 24.6723C55.7031 24.6723 57.703 26.6117 57.9383 29.245C58.0417 30.4021 57.6726 31.5456 56.899 32.4659Z" fill="url(#paint9_linear_1_53)"/>
<defs>
<linearGradient id="paint0_linear_1_53" x1="71.1637" y1="8.81904" x2="81.6676" y2="5.68889" gradientUnits="userSpaceOnUse">
<stop stop-color="#0075BF"/>
<stop offset="1" stop-color="#005CA9"/>
</linearGradient>
<linearGradient id="paint1_linear_1_53" x1="31.6138" y1="6.19537" x2="38.9679" y2="4.01263" gradientUnits="userSpaceOnUse">
<stop stop-color="#0075BF"/>
<stop offset="1" stop-color="#005CA9"/>
</linearGradient>
<linearGradient id="paint2_linear_1_53" x1="-1.19209e-06" y1="80.0029" x2="95.2911" y2="51.4137" gradientUnits="userSpaceOnUse">
<stop stop-color="#0075BF"/>
<stop offset="1" stop-color="#005CA9"/>
</linearGradient>
<linearGradient id="paint3_linear_1_53" x1="39.5042" y1="43.1239" x2="72.0636" y2="33.4097" gradientUnits="userSpaceOnUse">
<stop stop-color="#0075BF"/>
<stop offset="1" stop-color="#005CA9"/>
</linearGradient>
<linearGradient id="paint4_linear_1_53" x1="7.90668" y1="22.4363" x2="25.1989" y2="17.2742" gradientUnits="userSpaceOnUse">
<stop stop-color="#0075BF"/>
<stop offset="1" stop-color="#005CA9"/>
</linearGradient>
<linearGradient id="paint5_linear_1_53" x1="59.2853" y1="73.4388" x2="76.0766" y2="68.4303" gradientUnits="userSpaceOnUse">
<stop stop-color="#0075BF"/>
<stop offset="1" stop-color="#005CA9"/>
</linearGradient>
<linearGradient id="paint6_linear_1_53" x1="23.6939" y1="56.295" x2="31.0622" y2="54.0966" gradientUnits="userSpaceOnUse">
<stop stop-color="#0075BF"/>
<stop offset="1" stop-color="#005CA9"/>
</linearGradient>
<linearGradient id="paint7_linear_1_53" x1="9.18658" y1="74.7337" x2="16.551" y2="72.5376" gradientUnits="userSpaceOnUse">
<stop stop-color="#0075BF"/>
<stop offset="1" stop-color="#005CA9"/>
</linearGradient>
<linearGradient id="paint8_linear_1_53" x1="5.25507" y1="49.6823" x2="12.6216" y2="47.4837" gradientUnits="userSpaceOnUse">
<stop stop-color="#0075BF"/>
<stop offset="1" stop-color="#005CA9"/>
</linearGradient>
<linearGradient id="paint9_linear_1_53" x1="44.786" y1="37.8481" x2="64.7607" y2="31.889" gradientUnits="userSpaceOnUse">
<stop stop-color="#0075BF"/>
<stop offset="1" stop-color="#005CA9"/>
</linearGradient>
</defs>
</svg>
