<svg width="80" height="77" viewBox="0 0 80 77" fill="none" xmlns="http://www.w3.org/2000/svg">
<path d="M12.5743 53.5807C11.6511 53.5807 10.7278 53.5793 9.80408 53.5779H9.71442C7.23166 53.5744 4.66418 53.5711 2.14175 53.595C1.18916 53.6103 0.526634 53.3108 0.0628891 52.6429L0 52.5525V43.1082L0.0201797 43.0308C0.0377808 42.9818 0.0572662 42.9327 0.0769806 42.8838C0.109833 42.8029 0.140572 42.7264 0.153008 42.6611C0.633179 40.1629 1.92538 38.1451 3.99368 36.6632C5.13191 35.8475 6.47339 35.3208 8.0925 35.0547L8.0939 33.7198C8.09578 32.4872 8.09766 31.2711 8.08968 30.0549C8.08006 28.5895 7.42364 27.8566 5.96059 27.6777C4.85169 27.5428 4.21569 26.838 4.30064 25.8385C4.38161 24.8871 5.09155 24.3182 6.1873 24.3447C8.91672 24.3973 11.2542 26.6221 11.3976 29.3046C11.4783 30.8144 11.4617 32.3488 11.4457 33.8339L11.4373 34.6679C11.4352 34.9031 11.4786 34.9524 11.4786 34.9524C11.491 34.9624 11.5591 34.9861 11.7262 34.9728C12.0418 34.9488 12.3622 34.9547 12.6715 34.9601L12.7945 34.962L12.7928 34.1866C12.7905 33.3527 12.7881 32.5651 12.798 31.7578C12.8139 30.4555 13.4178 29.847 14.6987 29.8427C17.9329 29.831 21.1902 29.8315 24.3805 29.8427C25.6612 29.8474 26.2613 30.4597 26.2691 31.7698C26.274 32.5733 26.2728 33.3769 26.2716 34.1894L26.2709 34.9082H28.1646V34.3703C28.1646 33.7395 28.1635 33.1091 28.1623 32.4783C28.1588 30.6388 28.1552 28.7366 28.1822 26.8542C28.1888 26.3982 28.3155 25.7658 28.6518 25.3586C32.6697 20.4921 36.309 16.1389 39.7777 12.0499C40.1417 11.6211 40.8748 11.2177 41.4688 11.2829C42.7392 11.4186 43.8237 11.0219 44.8835 10.0348C45.1328 9.80274 45.4067 9.60844 45.6716 9.42022C45.7887 9.33714 45.9058 9.25407 46.0201 9.16817L49.1835 6.7856C51.7357 4.86304 54.2877 2.94028 56.8451 1.02452C58.5191 -0.23035 60.4943 -0.313694 61.9998 0.805766C62.337 1.05665 62.4917 1.06629 62.9191 0.866099C65.8081 -0.488048 68.6938 -0.250784 71.265 1.55326C73.8614 3.37491 74.9881 5.95061 74.6138 9.20949C74.5415 9.83751 74.472 10.4658 74.4002 11.1137L74.3296 11.7481L74.8461 11.9292C75.4176 12.1292 75.9836 12.3273 76.5471 12.5322C77.6525 12.9335 78.0121 13.5106 77.8734 14.6615C77.7168 15.9577 77.5521 17.2534 77.3871 18.5486L76.3446 26.7226C75.9339 29.9432 75.523 33.1636 75.113 36.3844C74.9813 37.4173 74.8536 38.4509 74.7206 39.5255L74.58 40.6588C74.7386 40.6686 74.8806 40.6769 75.0228 40.6776C75.408 40.6797 75.7936 40.6787 76.1791 40.678L76.3871 40.6776C76.9393 40.6769 77.4925 40.6759 78.0449 40.6825C79.2268 40.6966 79.9757 41.3232 79.9994 42.319C80.0243 43.3586 79.2899 43.9984 78.0346 44.0313C77.9142 44.0345 77.7943 44.0336 77.6741 44.0336L77.4831 44.0329C77.1064 44.0329 76.7297 44.0322 76.353 44.0313L76.1273 44.0308C74.9433 44.0273 73.4692 44.0235 72.0695 44.0495C71.9703 44.0514 71.844 44.1094 71.7074 44.1801C71.7811 44.281 71.8534 44.368 71.9278 44.4133C76.1254 46.9808 78.051 50.7459 77.6509 55.6037C77.2911 59.9729 74.1061 63.8325 69.7257 65.208C67.9709 65.7584 67.318 65.036 67.0798 64.3329C66.928 63.8842 66.9425 63.4773 67.123 63.1234C67.3657 62.6483 67.8965 62.2893 68.7463 62.0262C71.8426 61.0672 74.1442 58.2043 74.3436 55.0635C74.5624 51.6173 72.7612 48.487 69.755 47.0878C69.4591 46.9503 69.2946 46.9567 69.0205 47.1158C67.2986 48.1186 65.4718 48.1371 63.7383 47.1692C63.3755 46.9672 63.1293 46.9663 62.7252 47.1674C59.7463 48.6473 58.0549 51.7124 58.311 55.1667C58.5386 58.2322 60.8134 61.0501 63.843 62.02C63.9205 62.0447 63.9989 62.0672 64.0786 62.0905C64.2795 62.1487 64.4875 62.2087 64.6905 62.3038C65.4077 62.6401 65.7358 63.2677 65.6144 64.071C65.5023 64.814 64.9885 65.3217 64.2403 65.4292C63.8308 65.4883 63.4009 65.3616 63.0291 65.2383C58.403 63.7007 55.712 60.5326 55.0319 55.8227C54.3687 51.2319 56.6186 46.7468 60.7637 44.3966C60.8336 44.3567 60.9068 44.261 60.9791 44.1559C60.8644 44.0911 60.7534 44.0348 60.6768 44.0336C59.5302 44.0151 58.3358 44.016 57.3063 44.0167C56.4689 44.0167 55.6318 44.0174 54.7946 44.0101C53.7364 44.0007 53.0136 43.3466 52.9958 42.3823C52.9786 41.4422 53.674 40.756 54.7263 40.675C54.8709 40.6635 55.0113 40.6651 55.1528 40.6665L55.2955 40.6675C55.7083 40.6675 56.1213 40.6628 56.5341 40.6583L56.5905 40.6576C57.537 40.6466 58.61 40.6337 59.6484 40.6855C60.6569 40.7358 61.2957 40.6893 61.6564 39.6281C61.698 39.5056 61.7419 39.3875 61.7853 39.2706C61.9547 38.8158 62.1007 38.4227 62.0317 37.9273C61.6928 35.5001 61.3858 33.0378 61.0892 30.6566L61.0852 30.625C60.9613 29.6301 60.8371 28.6348 60.7104 27.64C60.5759 26.5815 60.4365 25.5238 60.299 24.478L60.1368 23.244C56.1286 23.2377 52.5027 23.2323 48.7751 23.2372C48.6484 23.2372 48.5512 23.2715 48.5355 23.2823C47.9556 23.8706 47.4027 24.4566 46.8174 25.0769L46.5775 25.3304C49.9188 26.655 51.8333 29.4609 51.8383 33.0545C51.8463 39.0289 51.8427 45.105 51.8392 50.9808L51.8387 51.6396C51.838 53.0027 51.2769 53.5628 49.9028 53.5736C49.6871 53.5755 49.4712 53.5748 49.2562 53.5743H43.8305V55.7952L44.6662 55.794C45.4107 55.7926 46.1379 55.7912 46.8655 55.7969C52.3952 55.8372 56.9024 60.3617 56.9132 65.883C56.924 71.4618 52.4438 76.0119 46.926 76.0267C40.6366 76.0436 34.5113 76.0523 28.7201 76.0523C22.2179 76.0523 16.0904 76.0417 9.98737 76.0201C6.33398 76.007 3.39803 74.3144 1.4973 71.1253C1.00821 70.3048 0.711571 69.3756 0.423134 68.4721C0.296638 68.0764 0.165924 67.6671 0.0218201 67.2789L0.00727081 67.2395L0 64.6359L0.0222931 64.5547C0.170853 64.1581 0.305092 63.741 0.434875 63.3376C0.728943 62.4237 1.03309 61.4789 1.53579 60.6478C3.42948 57.5164 6.28822 55.8851 10.0327 55.7994C10.7759 55.7826 11.5051 55.7867 12.2775 55.791H12.3272C12.5741 55.7928 12.8231 55.7943 13.0747 55.7952V53.5805H12.5741L12.5743 53.5807ZM37.5977 19.8509H64.6116V14.5885L59.7069 14.589C54.7019 14.5897 48.4731 14.5914 42.5561 14.5775C42.1048 14.5775 41.8516 14.6929 41.5881 15.0192C40.5357 16.321 39.4815 17.5871 38.3653 18.9279L37.5977 19.8509ZM57.5808 11.1987H58.6226L58.5532 10.4754L57.5808 11.1987ZM49.0363 11.2367C49.9152 11.24 50.9113 11.244 51.8873 11.2191C52.0084 11.2161 52.241 11.0417 52.3534 10.9577C54.3337 9.47139 56.33 7.95768 58.2051 6.5343C58.2375 6.50989 58.2711 6.48544 58.306 6.46033C58.3898 6.39954 58.5168 6.30804 58.5417 6.25383C58.8942 5.48335 59.2241 4.71873 59.5794 3.89521L59.8026 3.37868C59.5583 3.30686 59.3065 3.37021 59.0366 3.57274C56.2222 5.68329 53.4102 7.79668 50.598 9.91051L48.834 11.236L49.0361 11.2367H49.0363ZM67.732 37.008L67.9911 34.9894C68.1972 33.3839 68.4068 31.7531 68.6149 30.1218L68.8841 28.0117C69.5485 22.8068 70.2127 17.6022 70.8731 12.3966C70.9264 11.9783 70.9879 11.5601 71.0496 11.1414C71.1991 10.128 71.3537 9.08018 71.3727 8.05765C71.3957 6.83493 70.9186 5.6786 70.0296 4.80204C69.0672 3.85297 67.7086 3.32983 66.3068 3.37747C65.0319 3.41925 63.8017 3.9919 62.9308 4.94895C62.0639 5.90155 61.629 7.11722 61.7062 8.37209C61.7484 9.05879 61.8357 9.74713 61.928 10.4768C61.9594 10.726 61.9916 10.9795 62.0225 11.2388L63.0242 11.2381C63.9855 11.2367 64.9249 11.2365 65.8644 11.2397C67.4302 11.2449 68.0137 11.8321 68.0167 13.4064C68.0219 15.9619 68.0212 18.5167 68.0169 21.0724C68.0144 22.7099 67.4781 23.2363 65.8106 23.2387L64.4966 23.2391H63.5353L65.2819 37.0078H67.7316L67.732 37.008ZM64.8275 43.8726C65.2373 44.2843 65.7764 44.511 66.346 44.511V44.6283L66.3469 44.511C67.5034 44.51 68.4511 43.5638 68.4593 42.4011C68.4636 41.8257 68.2425 41.2842 67.8365 40.8766C67.4321 40.4708 66.8937 40.2472 66.3133 40.2472C65.1507 40.2507 64.2007 41.1943 64.1955 42.3509C64.1929 42.9204 64.4175 43.4607 64.8275 43.8726ZM70.9104 38.6538C70.9836 39.1059 71.1249 39.5644 71.2711 40.0127C71.9228 34.9169 72.5734 29.8209 73.2237 24.7249L73.8834 19.5658C74.0339 18.3975 74.1841 17.23 74.3286 16.0612C74.3659 15.7601 74.4082 15.4186 74.362 15.3592C74.3131 15.2989 74.0625 15.2247 73.871 15.1731L73.6912 16.5843C73.5225 17.9077 73.3566 19.2077 73.1925 20.5081L71.0829 37.2253C71.0611 37.3976 71.0273 37.5686 70.9944 37.7353C70.9287 38.0678 70.8665 38.3821 70.9109 38.6538H70.9104ZM12.7963 39.2782V38.3558C12.3758 38.3509 11.9616 38.3378 11.5598 38.3248L11.5192 38.3236C10.3906 38.2877 9.32461 38.2542 8.28494 38.3898C5.09296 38.8069 2.83292 41.8066 3.24291 45.0585C3.25652 45.0918 3.33984 45.1789 3.37551 45.2028C6.34924 45.2267 9.47645 45.2274 12.6715 45.2056C12.7006 45.1887 12.752 45.1434 12.7776 45.1129C12.798 43.1622 12.797 41.1878 12.7961 39.2779L12.7963 39.2782ZM3.30276 48.5068V50.2944H48.5764V48.5068H3.30252H3.30276ZM31.3892 36.2427C31.3885 37.7768 30.9274 38.245 29.4157 38.2462C27.6274 38.2476 25.8389 38.2469 24.0506 38.2469H21.2129V45.204C21.3373 45.2139 21.4561 45.2216 21.5699 45.2218C22.6506 45.2223 23.7314 45.2218 24.8124 45.2209H25.0325C27.5774 45.2202 30.2099 45.2178 32.7974 45.2375C33.106 45.2317 33.1801 45.193 33.2003 45.173C33.2205 45.1526 33.2677 45.0726 33.2656 44.7691C33.2435 41.2767 33.2473 37.7275 33.2508 34.2955L33.2529 31.993C33.2538 30.4046 33.8154 29.8408 35.3984 29.8387C38.0823 29.8357 40.7667 29.8345 43.4508 29.8387C45.6036 29.8425 46.7451 30.9901 46.7512 33.1584C46.762 36.8524 46.7702 40.7921 46.7406 44.7743C46.738 45.1033 46.7958 45.1821 46.8136 45.1986C46.8249 45.2091 46.8974 45.2608 47.1861 45.235C47.3872 45.2171 47.6043 45.2087 47.8685 45.2087C48.0441 45.2087 48.2192 45.2124 48.3912 45.2159L48.5637 45.2193C48.5658 43.9712 48.578 42.7252 48.5895 41.5178C48.6209 38.2847 48.6505 35.2305 48.5085 32.1178C48.4003 29.7404 46.3809 28.0138 43.7068 28.0124C40.772 28.0112 37.837 28.0117 34.834 28.0117H31.3897V31.2058C31.3897 32.8846 31.3897 34.5635 31.389 36.2425L31.3892 36.2427ZM36.5672 33.1864V45.1681H43.4529V33.1864H36.5672ZM35.8197 24.7446L36.0818 24.7484C37.9642 24.7737 39.9107 24.8002 41.834 24.8472C42.2848 24.8615 42.5524 24.7502 42.8237 24.4311C43.1569 24.0396 43.5064 23.6771 43.9173 23.2509L43.9284 23.2396H42.7322C40.0628 23.2386 37.5423 23.2374 35.0093 23.2525C34.888 23.2532 34.6979 23.3398 34.6103 23.4339C34.2555 23.8159 33.9175 24.2274 33.5585 24.6641L33.5193 24.7118C34.2862 24.724 35.0529 24.7346 35.8199 24.7449L35.8197 24.7446ZM23.0013 34.9317V33.177H16.1237V34.9317H23.0013ZM17.91 39.1864V38.2882H16.0782V45.2206L16.357 45.2225C16.8644 45.2253 17.3444 45.2281 17.8194 45.2061C17.8398 45.1936 17.8731 45.165 17.8935 45.1427C17.9114 43.1619 17.9107 41.1411 17.9097 39.1864H17.91ZM28.392 59.2697H28.1574L28.04 59.2481C26.622 59.2481 25.204 59.247 23.7858 59.2461L23.0574 59.2456C18.932 59.2427 14.6661 59.2402 10.4335 59.2531C6.86743 59.2643 4.23564 61.3568 3.56513 64.7138C3.20277 66.5286 3.65666 68.442 4.81062 69.9628C5.95942 71.4768 7.66936 72.4247 9.5018 72.5632C9.83482 72.5883 10.1296 72.6007 10.4028 72.6007L16.9275 72.6021C26.7774 72.6035 36.627 72.6054 46.4766 72.5993C49.723 72.597 52.287 70.78 53.168 67.8572C53.7845 65.8121 53.4194 63.654 52.1666 61.9363C50.9685 60.2942 49.1288 59.3319 47.1187 59.2967C44.9173 59.2578 42.5355 59.2397 39.6226 59.2397C37.7692 59.2397 35.9241 59.247 34.1057 59.2543L33.8546 59.2554C32.0339 59.2625 30.213 59.2697 28.3923 59.2697H28.392ZM16.5227 53.6382V55.7591H40.3787V53.6382H16.5227Z" fill="url(#paint0_linear_1_43)"/>
<path d="M22.3534 71.2439H22.339C20.9218 71.2401 19.5892 70.6832 18.5869 69.6755C17.5845 68.668 17.0346 67.3323 17.0384 65.9148C17.0421 64.4966 17.6002 63.1634 18.6101 62.161C19.6155 61.1626 20.948 60.6128 22.378 60.6128C25.3022 60.6212 27.6756 63.0171 27.6686 65.9535C27.665 67.3809 27.1116 68.7146 26.11 69.7085C25.1121 70.6987 23.7779 71.2439 22.3531 71.2439H22.3534ZM24.2442 65.9296C24.2478 65.421 24.0541 64.946 23.6991 64.5923C23.3451 64.2396 22.8692 64.0453 22.3379 64.0453H22.3369C21.2846 64.0564 20.4871 64.8568 20.4822 65.9075C20.4796 66.4243 20.6763 66.9054 21.0356 67.2621C21.4003 67.6245 21.8786 67.8155 22.3801 67.8019C23.4184 67.789 24.2372 66.9667 24.2442 65.9296Z" fill="url(#paint1_linear_1_43)"/>
<path d="M34.5134 60.6128H34.5357C37.4664 60.6128 39.8661 62.9704 39.8894 65.8784C39.9006 67.3018 39.3594 68.6436 38.3655 69.6562C37.3714 70.6691 36.0419 71.2331 34.622 71.2439H34.5798C33.1634 71.2439 31.8344 70.706 30.8375 69.7297C29.8288 68.7419 29.2681 67.4133 29.2587 65.9888C29.2392 63.0463 31.5964 60.6348 34.5129 60.6133H34.5134V60.6128ZM33.1963 67.2237C33.5582 67.5915 34.052 67.8024 34.5554 67.8024C35.5911 67.7998 36.4113 66.9853 36.423 65.9475C36.4289 65.4236 36.2393 64.9404 35.8891 64.587C35.5422 64.237 35.067 64.0444 34.545 64.0444C33.5192 64.0472 32.6694 64.8763 32.6509 65.8927C32.6417 66.3842 32.8353 66.8569 33.1963 67.2237Z" fill="url(#paint2_linear_1_43)"/>
<path d="M10.1228 71.2436H10.099C8.67614 71.2378 7.34288 70.6799 6.34476 69.6724C5.34616 68.6644 4.80027 67.3251 4.80755 65.9012C4.8228 62.9852 7.21427 60.6128 10.1387 60.6128H10.1655C13.0869 60.6269 15.4532 63.0291 15.4401 65.9676C15.4267 68.9261 13.0911 71.2436 10.1225 71.2436H10.1228ZM12.0277 65.9064C12.0254 64.8991 11.1664 64.0448 10.1526 64.0413H10.1451C9.62569 64.0413 9.14669 64.2352 8.7956 64.5872C8.44521 64.939 8.25417 65.4171 8.25792 65.9334C8.26543 66.9702 9.08074 67.7909 10.1131 67.8022H10.1159C10.6346 67.8022 11.1012 67.6116 11.4654 67.2502C11.8294 66.8895 12.0291 66.4121 12.0279 65.9062L12.0277 65.9064Z" fill="url(#paint3_linear_1_43)"/>
<path d="M46.7979 60.6116H46.8038C48.1912 60.6132 49.5142 61.175 50.529 62.1938C51.5421 63.2109 52.0981 64.5332 52.0941 65.9167C52.0859 68.8249 49.7219 71.2056 46.8235 71.2239H46.789C45.3738 71.2239 44.046 70.6797 43.0497 69.6909C42.0441 68.6933 41.4893 67.3572 41.4874 65.9282C41.4855 64.4982 42.0349 63.1603 43.0344 62.1603C44.033 61.1615 45.3696 60.6113 46.7981 60.6113L46.7979 60.6116ZM45.4034 67.2014C45.7657 67.5806 46.26 67.801 46.7592 67.8057C46.7672 67.8057 46.7751 67.8057 46.7831 67.8057C47.7944 67.8057 48.6301 66.9878 48.6508 65.9716C48.6616 65.4487 48.4783 64.965 48.1349 64.6085C47.7916 64.2518 47.3144 64.0509 46.7916 64.0422C46.781 64.0422 46.7704 64.0422 46.7599 64.0422C45.7716 64.0422 44.9124 64.8735 44.8763 65.873C44.8589 66.3482 45.0511 66.8327 45.4034 67.2014Z" fill="url(#paint4_linear_1_43)"/>
<path d="M66.3824 9.89912H66.3441C65.8229 9.89912 65.338 9.70524 64.9792 9.35251C64.61 8.98992 64.407 8.49381 64.407 7.95544C64.4073 7.41965 64.615 6.92306 64.9916 6.55671C65.3702 6.18872 65.8647 5.99815 66.3932 6.01411C67.4526 6.04298 68.2794 6.89982 68.2756 7.96507C68.2716 9.04791 67.458 9.87941 66.3826 9.89889L66.3824 9.89912Z" fill="url(#paint5_linear_1_43)"/>
<path d="M52.9366 15.3115H52.9376C53.4672 15.3096 53.9711 15.5089 54.3408 15.8764C54.7144 16.2474 54.9176 16.7433 54.9134 17.2723C54.9045 18.3355 54.0631 19.1803 52.9979 19.1956H52.969C52.4468 19.1956 51.954 18.9917 51.5813 18.6206C51.2079 18.2491 51.0047 17.7593 51.0096 17.2416C51.0195 16.1927 51.8838 15.327 52.9361 15.3113L52.9366 15.3115Z" fill="url(#paint6_linear_1_43)"/>
<path d="M60.502 15.3113C60.5114 15.3113 60.5205 15.3113 60.5299 15.3113H60.5306C61.583 15.3315 62.4407 16.2022 62.4426 17.2522C62.4436 17.776 62.2382 18.2669 61.8641 18.6347C61.4961 18.9966 61.0073 19.1958 60.4879 19.1958H60.4485C59.3835 19.1749 58.5473 18.3261 58.5449 17.2629C58.5435 16.7328 58.7496 16.2374 59.1248 15.8684C59.4907 15.5087 59.9786 15.3113 60.502 15.3113Z" fill="url(#paint7_linear_1_43)"/>
<path d="M45.4695 15.3162C46.5303 15.3354 47.3634 16.1842 47.3664 17.2492C47.3679 17.7878 47.166 18.2844 46.7985 18.6475C46.4399 19.0012 45.9539 19.196 45.4305 19.196H45.3965C44.319 19.1784 43.5033 18.3499 43.4988 17.2683C43.4967 16.7315 43.7004 16.2338 44.0724 15.8665C44.4432 15.5008 44.9372 15.3077 45.4697 15.3159L45.4695 15.3162Z" fill="url(#paint8_linear_1_43)"/>
<defs>
<linearGradient id="paint0_linear_1_43" x1="80" y1="76.0523" x2="-14.555" y2="46.377" gradientUnits="userSpaceOnUse">
<stop stop-color="#0075BF"/>
<stop offset="1" stop-color="#005CA9"/>
</linearGradient>
<linearGradient id="paint1_linear_1_43" x1="27.6686" y1="71.2439" x2="14.9948" y2="67.4629" gradientUnits="userSpaceOnUse">
<stop stop-color="#0075BF"/>
<stop offset="1" stop-color="#005CA9"/>
</linearGradient>
<linearGradient id="paint2_linear_1_43" x1="39.8895" y1="71.2439" x2="27.215" y2="67.4624" gradientUnits="userSpaceOnUse">
<stop stop-color="#0075BF"/>
<stop offset="1" stop-color="#005CA9"/>
</linearGradient>
<linearGradient id="paint3_linear_1_43" x1="15.4401" y1="71.2436" x2="2.76393" y2="67.461" gradientUnits="userSpaceOnUse">
<stop stop-color="#0075BF"/>
<stop offset="1" stop-color="#005CA9"/>
</linearGradient>
<linearGradient id="paint4_linear_1_43" x1="52.0941" y1="71.2239" x2="39.4473" y2="67.4527" gradientUnits="userSpaceOnUse">
<stop stop-color="#0075BF"/>
<stop offset="1" stop-color="#005CA9"/>
</linearGradient>
<linearGradient id="paint5_linear_1_43" x1="68.2756" y1="9.89912" x2="63.66" y2="8.52817" gradientUnits="userSpaceOnUse">
<stop stop-color="#0075BF"/>
<stop offset="1" stop-color="#005CA9"/>
</linearGradient>
<linearGradient id="paint6_linear_1_43" x1="54.9135" y1="19.1956" x2="50.2629" y2="17.8011" gradientUnits="userSpaceOnUse">
<stop stop-color="#0075BF"/>
<stop offset="1" stop-color="#005CA9"/>
</linearGradient>
<linearGradient id="paint7_linear_1_43" x1="62.4426" y1="19.1958" x2="57.7983" y2="17.8055" gradientUnits="userSpaceOnUse">
<stop stop-color="#0075BF"/>
<stop offset="1" stop-color="#005CA9"/>
</linearGradient>
<linearGradient id="paint8_linear_1_43" x1="47.3665" y1="19.196" x2="42.7528" y2="17.824" gradientUnits="userSpaceOnUse">
<stop stop-color="#0075BF"/>
<stop offset="1" stop-color="#005CA9"/>
</linearGradient>
</defs>
</svg>
