<svg width="90" height="101" viewBox="0 0 90 101" fill="none" xmlns="http://www.w3.org/2000/svg">
<path d="M44.4916 100.532C43.6578 100.05 43.3079 99.3398 43.3248 98.173C43.3637 95.4703 43.3579 92.7227 43.3524 90.0661C43.3497 88.7583 43.3469 87.4508 43.3492 86.1431C43.3513 85.0535 43.8358 84.3629 44.7141 84.1991C44.8114 84.1809 44.9108 84.1717 45.0097 84.1717C45.8951 84.1717 46.6218 84.8798 46.6294 85.7505C46.6634 89.5766 46.6536 93.4683 46.6442 97.2317L46.64 98.9557C46.6384 99.6915 46.1484 100.098 45.4955 100.532H44.4916ZM82.4518 87.6173C82.2772 87.523 82.1128 87.4406 81.9634 87.3657C81.5891 87.1782 81.2934 87.0304 81.0833 86.8233C78.6129 84.3896 75.9542 81.7263 72.9549 78.6814C72.1708 77.8855 72.1243 76.9468 72.8337 76.2316C73.1635 75.8986 73.5557 75.7226 73.9676 75.7226C74.4203 75.7226 74.8711 75.9325 75.2717 76.3298C77.585 78.6242 79.9202 80.9747 82.1786 83.2478L83.3995 84.4765C83.8582 84.9378 84.3054 85.6462 83.8309 86.4028C83.615 86.7472 83.2441 87.0227 82.8508 87.3141C82.7193 87.4118 82.5841 87.512 82.4518 87.6173ZM7.59786 87.4392C7.19727 87.4392 6.81272 87.2648 6.48551 86.9347C5.76245 86.2052 5.83188 85.2626 6.67147 84.4135C8.41771 82.6466 10.1724 80.8878 11.9268 79.129C12.8356 78.2182 13.744 77.3075 14.6518 76.3954C14.9656 76.0804 15.4498 75.7047 15.9753 75.7047C16.2005 75.7047 16.4248 75.774 16.6426 75.9104C16.9819 76.1236 17.2539 76.4998 17.5416 76.8984C17.6408 77.0356 17.7421 77.1758 17.8496 77.3143C17.7473 77.4922 17.6568 77.6603 17.5745 77.8136C17.3636 78.2053 17.1971 78.5149 16.9711 78.7459C14.2104 81.567 11.3902 84.3822 8.99586 86.7638C8.5516 87.2058 8.06816 87.4392 7.59786 87.4392ZM44.7262 77.6168C36.4218 77.548 28.1764 74.9907 20.2175 70.0152C12.754 65.3498 6.17304 59.1753 0.657064 51.6636C-0.222503 50.4654 -0.220407 50.0449 0.671786 48.8504C8.51214 38.3572 17.3507 31.0887 27.6922 26.63C33.4383 24.1525 39.2702 22.8964 45.0263 22.8964C51.3263 22.8964 57.7043 24.4007 63.983 27.3674C73.7524 31.9839 82.076 39.0556 89.4289 48.9866C90.1615 49.9762 90.1836 50.5173 89.5281 51.3996C80.9597 62.9329 71.21 70.6319 59.722 74.9359C55.0056 76.7029 50.1001 77.5796 44.7262 77.6165V77.6168ZM45.0097 26.2264C38.9761 26.2264 32.8633 27.7136 26.8413 30.6463C18.502 34.7077 11.1324 40.8592 4.31158 49.4524C3.67479 50.2549 4.10379 50.7976 4.41705 51.1938C9.72444 57.9073 15.4348 63.1226 21.8743 67.1378C29.3956 71.8275 37.0742 74.237 44.697 74.3C50.4584 74.2802 55.851 73.1331 61.1862 70.7934C70.3041 66.7945 78.3191 60.3445 85.6895 51.0745C86.2179 50.4103 86.054 49.9298 85.6453 49.4129C79.4817 41.6174 72.8297 35.8381 65.309 31.7444C58.5817 28.083 51.7522 26.2264 45.0097 26.2264ZM44.9192 67.7917C39.8559 67.7435 35.0667 65.4902 31.7773 61.6077C28.4658 57.6992 27.0196 52.5514 27.8098 47.4842C27.9805 46.3885 28.6015 45.7344 29.4703 45.7344C29.5394 45.7344 29.6102 45.7386 29.6823 45.7467C30.1581 45.801 30.54 45.9994 30.7865 46.3205C31.0805 46.7036 31.1847 47.255 31.0876 47.9149C30.5147 51.8085 31.3333 55.3519 33.5201 58.4463C36.1601 62.1826 40.442 64.4127 44.9742 64.4124C46.7091 64.4124 48.4191 64.0929 50.0567 63.4629C55.9738 61.1867 59.753 55.0684 59.0431 48.9139C58.2808 42.3082 53.4348 37.2265 46.984 36.2689C46.3488 36.1748 45.6986 36.1269 45.0518 36.1269C43.4794 36.1269 41.8781 36.399 40.1563 36.9586C39.8625 37.054 39.5808 37.1027 39.3188 37.1027C38.61 37.1027 38.0855 36.7473 37.8419 36.1021C37.6728 35.6542 37.6778 35.2161 37.8569 34.8346C38.0671 34.3868 38.4987 34.0398 39.105 33.8317C41.1422 33.1322 43.1685 32.7776 45.1278 32.7776C48.1121 32.7776 51.0339 33.5996 53.8117 35.2209C60.0834 38.8812 63.4372 46.12 62.1576 53.234C60.8238 60.649 55.2315 66.2434 47.9109 67.4861C47.2421 67.5999 46.545 67.6558 45.8706 67.7095C45.5534 67.7351 45.2362 67.7603 44.92 67.7917H44.9192ZM44.9342 57.8499C42.9344 57.8362 41.0525 57.0348 39.6353 55.5929C38.2039 54.1366 37.4253 52.2123 37.4434 50.1751C37.48 46.0431 40.8812 42.6818 45.0252 42.6818L45.1128 42.6823C49.234 42.7292 52.5731 46.1496 52.5563 50.3068C52.5395 54.4664 49.1438 57.8504 44.9871 57.8504H44.9342V57.8499ZM44.9955 46.0002C42.6527 46.0023 40.7481 47.9168 40.7497 50.2686C40.7515 52.6186 42.658 54.5307 44.9992 54.5307C47.3467 54.5283 49.2516 52.613 49.2495 50.261C49.2474 47.9115 47.3404 46.0002 44.9984 46.0002H44.9952H44.9955ZM33.1845 42.0387C32.751 42.0387 32.3388 41.8632 32.024 41.5445C31.7076 41.2241 31.5361 40.8063 31.5408 40.3676C31.5503 39.494 32.2926 38.7458 33.1621 38.734H33.1626C33.6198 38.734 34.0335 38.9102 34.3494 39.2303C34.6656 39.5507 34.8368 39.9674 34.8318 40.4037C34.8219 41.2768 34.0785 42.0255 33.2087 42.0384H33.1845V42.0387ZM16.0556 26.7841C15.5858 26.7841 15.1 26.5481 14.651 26.1016C12.2382 23.702 9.79967 21.2472 7.44109 18.8733L6.59494 18.0218C6.13674 17.561 5.69116 16.8526 6.17013 16.0963C6.38739 15.753 6.76012 15.4795 7.15466 15.19C7.28696 15.093 7.42268 14.9935 7.55577 14.8883C7.72963 14.9832 7.89324 15.0664 8.04238 15.1418C8.41588 15.3312 8.71072 15.4806 8.92167 15.6879C11.3223 18.0521 13.8842 20.616 16.9838 23.7574C17.8215 24.6065 17.8881 25.5501 17.1616 26.2817C16.8352 26.6103 16.4527 26.7839 16.0558 26.7839L16.0556 26.7841ZM73.9599 26.7826C73.5691 26.7826 73.1906 26.6182 72.865 26.3073C72.5257 25.9833 72.3434 25.5957 72.3373 25.1863C72.3305 24.7121 72.5546 24.2303 72.9854 23.7935C74.9994 21.7515 77.06 19.6879 79.0527 17.6925L81.0346 15.7066C81.335 15.4055 81.8008 15.0464 82.3143 15.0464C82.5289 15.0464 82.7422 15.1102 82.9484 15.2364C83.2946 15.4476 83.5784 15.8157 83.879 16.2059C83.9821 16.3394 84.0873 16.4759 84.1989 16.6113C84.1002 16.7915 84.0137 16.962 83.9351 17.1171C83.7344 17.5123 83.5758 17.8247 83.354 18.0516C80.5012 20.9706 77.6873 23.7779 75.3106 26.1395C74.8874 26.5602 74.4202 26.7826 73.9599 26.7826ZM44.9892 16.3581C44.1031 16.3581 43.376 15.65 43.3689 14.7795C43.3371 10.9508 43.3461 7.05703 43.3545 3.29128L43.3582 1.57517C43.3597 0.840141 43.85 0.434165 44.5037 0H45.5079C46.3414 0.481323 46.691 1.19185 46.6744 2.35919C46.636 5.03795 46.6415 7.76097 46.6471 10.3941C46.6497 11.7256 46.6526 13.0568 46.6497 14.3883C46.6473 15.5093 46.12 16.2219 45.2023 16.3439C45.131 16.3534 45.0597 16.3581 44.9892 16.3581Z" fill="#0075BF"/>
</svg>
