<svg width="19" height="19" viewBox="0 0 19 19" fill="none" xmlns="http://www.w3.org/2000/svg">
<path d="M9.375 14.3229C9.16864 14.3202 8.97146 14.2371 8.82552 14.0911C8.67958 13.9452 8.59646 13.748 8.59375 13.5417V8.33333C8.59375 8.12614 8.67604 7.92739 8.8226 7.78094C8.96906 7.63437 9.16781 7.55208 9.375 7.55208C9.58219 7.55208 9.78094 7.63437 9.92739 7.78094C10.074 7.92739 10.1562 8.12614 10.1562 8.33333V13.5417C10.1535 13.748 10.0704 13.9452 9.92448 14.0911C9.77854 14.2371 9.58135 14.3202 9.375 14.3229Z" fill="#0075BF"/>
<path d="M9.375 6.51041C9.16864 6.50772 8.97146 6.42454 8.82552 6.27861C8.67958 6.13268 8.59646 5.93553 8.59375 5.72917V5.20833C8.59375 5.00113 8.67604 4.80241 8.8226 4.6559C8.96906 4.50939 9.16781 4.42708 9.375 4.42708C9.58219 4.42708 9.78094 4.50939 9.92739 4.6559C10.074 4.80241 10.1562 5.00113 10.1562 5.20833V5.72917C10.1535 5.93553 10.0704 6.13268 9.92448 6.27861C9.77854 6.42454 9.58135 6.50772 9.375 6.51041Z" fill="#0075BF"/>
<path d="M9.375 18.75C7.52083 18.75 5.70824 18.2002 4.16653 17.17C2.62482 16.1399 1.42321 14.6757 0.713634 12.9627C0.00406104 11.2496 -0.181595 9.36458 0.180144 7.54604C0.541874 5.72746 1.43476 4.057 2.74587 2.74587C4.057 1.43476 5.72746 0.541874 7.54604 0.180144C9.36458 -0.181595 11.2496 0.00406104 12.9627 0.713634C14.6757 1.42321 16.1399 2.62482 17.17 4.16653C18.2002 5.70824 18.75 7.52083 18.75 9.375C18.75 11.8615 17.7623 14.2459 16.0042 16.0042C14.2459 17.7623 11.8615 18.75 9.375 18.75ZM9.375 1.5625C7.82979 1.5625 6.31937 2.0207 5.03461 2.87914C3.74985 3.73759 2.7485 4.95774 2.1572 6.38529C1.56588 7.81281 1.41118 9.38364 1.71261 10.8992C2.01406 12.4146 2.75813 13.8067 3.85073 14.8993C4.94333 15.9919 6.33538 16.7359 7.85083 17.0374C9.36635 17.3389 10.9372 17.1842 12.3647 16.5928C13.7923 16.0015 15.0124 15.0001 15.8708 13.7154C16.7293 12.4306 17.1875 10.9202 17.1875 9.375C17.1875 7.30302 16.3644 5.31586 14.8993 3.85073C13.4342 2.3856 11.447 1.5625 9.375 1.5625Z" fill="#0075BF"/>
</svg>
