<svg width="90" height="90" viewBox="0 0 90 90" fill="none" xmlns="http://www.w3.org/2000/svg">
<path d="M0.880628 89.9962C0.283224 89.5627 -0.208508 89.0644 0.0897247 88.2453C0.383495 87.4394 1.06802 87.2705 1.81266 87.3713C2.53171 87.4685 2.91213 87.1198 3.29936 86.5811C8.63185 79.1633 14.0794 71.8256 19.2797 64.3167C21.3469 61.3318 24.7 60.5778 27.1756 63.5369C28.2459 62.06 29.3104 60.5961 30.3695 59.1287C34.5166 53.3831 38.6618 47.6361 42.8079 41.8899C42.8936 41.7711 42.9605 41.6269 43.0718 41.5405C44.2476 40.6263 44.2803 39.3772 44.2758 38.019C44.2396 26.9163 44.2526 15.8133 44.2582 4.71063C44.2594 2.41494 45.4377 0.74249 47.411 0.177022C49.6421 -0.462416 51.95 0.67392 52.7252 2.88436C52.9466 3.51558 53.2495 3.64615 53.8516 3.64286C57.982 3.61985 62.1127 3.62642 66.2433 3.63253C68.7555 3.63628 70.0809 4.96988 70.0905 7.48841C70.0959 8.9211 70.0915 10.354 70.0915 11.9189C71.3152 11.9189 72.4797 11.9833 73.6348 11.9072C77.5383 11.65 79.0795 12.9848 78.7759 17.099C78.7543 17.3904 78.7827 17.6854 78.7679 17.9775C78.7252 18.8224 78.2348 19.3386 77.4813 19.3466C76.7341 19.3543 76.1902 18.8433 76.1503 18.009C76.1096 17.1612 76.1338 16.3102 76.1362 15.4608C76.1376 14.8966 75.8854 14.5657 75.3016 14.5636C73.6075 14.5572 71.9133 14.5612 70.0915 14.5612C70.0915 15.8096 70.0964 16.998 70.0893 18.1867C70.0861 18.7426 70.1093 19.305 70.0339 19.8526C69.7918 21.6115 68.4556 22.8023 66.6752 22.8352C65.0675 22.8648 63.4592 22.8415 61.7428 22.8415C61.7428 24.5264 61.7067 26.1566 61.7813 27.7816C61.7926 28.0279 62.3175 28.4511 62.6082 28.4542C66.8262 28.4985 71.0449 28.4859 75.2633 28.4842C75.8945 28.4842 76.1425 28.131 76.1374 27.5306C76.1289 26.564 76.1313 25.597 76.1376 24.6304C76.1449 23.5317 76.6211 22.899 77.4416 22.8814C78.271 22.8636 78.7663 23.4894 78.7714 24.5818C78.7766 25.6658 78.7937 26.7502 78.7623 27.8333C78.7094 29.649 77.3315 31.0882 75.5193 31.1037C71.1254 31.1411 66.7308 31.1437 62.3369 31.1021C60.4816 31.0845 59.1301 29.586 59.0949 27.6304C59.067 26.0798 59.0893 24.5285 59.0893 22.9103H53.0849C53.0706 23.2156 53.046 23.5004 53.0457 23.7853C53.0434 28.9999 53.0304 34.2145 53.0676 39.4286C53.0708 39.8887 53.3355 40.394 53.6037 40.7949C54.1558 41.6203 54.8093 42.3769 55.3919 43.1831C62.0972 52.463 68.7971 61.7468 75.4979 71.0298C76.2916 72.1292 76.3346 72.8798 75.6402 73.4147C74.9195 73.9698 74.1681 73.6925 73.3549 72.5663C72.2063 70.9758 71.0845 69.3648 69.8909 67.8089C69.654 67.5001 69.1489 67.2406 68.7602 67.2302C66.6524 67.1741 64.542 67.1802 62.4332 67.2105C60.6791 67.2356 59.3394 66.5485 58.3287 65.1135C56.8619 63.0308 55.3351 60.9908 53.8686 58.9079C53.3299 58.1426 52.6799 57.7622 51.7293 57.8115C50.7651 57.8615 49.7964 57.8268 48.8296 57.8209C47.2591 57.8115 45.9947 57.1876 45.0691 55.9108C43.7284 54.0618 42.3955 52.2071 41.057 50.3566C40.8907 50.1267 40.7088 49.9081 40.4852 49.6216C39.5691 50.8878 38.6956 52.0937 37.8241 53.3009C34.9449 57.2895 32.075 61.2849 29.1765 65.2593C28.8457 65.713 28.8238 66.0063 29.1594 66.4692C34.077 73.2475 38.9698 80.0439 43.8937 86.8175C44.0922 87.0904 44.5383 87.3365 44.8694 87.3372C57.7007 87.3633 70.5318 87.3595 83.363 87.3579C83.526 87.3579 83.6892 87.3367 83.9851 87.3163C83.4457 86.5597 82.9789 85.8989 82.5057 85.2425C80.8278 82.9147 79.1483 80.5882 77.4688 78.2616C77.0659 77.7034 76.9287 77.043 77.4515 76.5908C77.8063 76.2838 78.4415 76.1556 78.9288 76.1998C79.2418 76.2279 79.5619 76.6786 79.796 77.0003C82.1393 80.2198 84.4789 83.4423 86.7831 86.69C87.1504 87.2078 87.5284 87.4542 88.1498 87.3626C88.9538 87.244 89.5757 87.5396 90 88.2383V89.9952C60.2935 89.9962 30.5872 89.9962 0.880628 89.9962ZM6.00858 87.3109H40.9286C40.7005 86.9728 40.5331 86.7088 40.3504 86.4557C35.2959 79.4524 30.2396 72.4502 25.1842 65.4477C23.9972 63.8034 22.9689 63.8135 21.7635 65.4831C18.3528 70.2069 14.9419 74.9303 11.532 79.6546C9.71888 82.1665 7.90717 84.6794 6.00882 87.3111L6.00858 87.3109ZM67.5351 64.5159C66.4664 63.0313 65.4829 61.6618 64.496 60.2943C60.4015 54.6211 56.3164 48.9408 52.206 43.2791C50.3088 40.666 47.0148 40.6605 45.0911 43.2411C44.199 44.4378 43.3205 45.6464 42.4855 46.883C42.3434 47.0932 42.3258 47.5619 42.465 47.7608C44.0109 49.9659 45.6002 52.1404 47.1752 54.325C47.6017 54.9165 48.1714 55.1976 48.9024 55.1878C49.8394 55.1753 50.7782 55.2185 51.7138 55.1781C53.5811 55.0978 54.9664 55.8718 56.0264 57.389C57.4849 59.4767 58.9798 61.5394 60.5055 63.5784C60.8 63.9722 61.2941 64.4513 61.7177 64.4731C63.6003 64.5701 65.4909 64.5152 67.5349 64.5152L67.5351 64.5159ZM53.1157 6.31145V20.2056H53.7904C57.9189 20.2056 62.0474 20.2074 66.1759 20.2044C67.2503 20.2037 67.4517 20.0045 67.4532 18.9203C67.4579 15.1431 67.4574 11.3661 67.4539 7.58892C67.4527 6.4183 67.3045 6.26942 66.1379 6.26848C62.0678 6.26496 57.998 6.26637 53.928 6.26895C53.6708 6.26895 53.4135 6.29525 53.1159 6.31145H53.1157ZM50.3663 20.1779C50.3832 19.8989 50.4058 19.7 50.4058 19.5011C50.4076 14.588 50.4098 9.6749 50.4018 4.76182C50.4013 4.4448 50.3722 4.10923 50.267 3.81428C49.9925 3.04428 49.4082 2.63051 48.5936 2.64883C47.7787 2.66715 47.21 3.1105 46.9721 3.88802C46.8725 4.21373 46.8953 4.58288 46.8948 4.9323C46.8906 9.69909 46.8911 14.4661 46.8937 19.2329C46.8937 19.5405 46.9204 19.8482 46.9357 20.1776H50.3661L50.3663 20.1779ZM46.9432 22.8676V38.7596H50.3396V22.8678H46.9432V22.8676Z" fill="#0075BF"/>
</svg>
