<?xml version="1.0" encoding="UTF-8"?><svg id="Layer_2" xmlns="http://www.w3.org/2000/svg" xmlns:xlink="http://www.w3.org/1999/xlink" viewBox="0 0 175 64.377"><defs><style>.cls-1{fill:url(#linear-gradient);}.cls-2{fill:#1d1d1b;}</style><linearGradient id="linear-gradient" x1="1.089" y1="40.522" x2="63.288" y2="23.856" gradientUnits="userSpaceOnUse"><stop offset=".168" stop-color="#009fe3"/><stop offset="1" stop-color="#005ca9"/></linearGradient></defs><g id="Layer_1-2"><g><path class="cls-2" d="M81.452,14.146c.606,.617,1.331,1.098,2.175,1.438,.843,.34,1.774,.512,2.791,.512s1.944-.172,2.782-.512,1.564-.821,2.175-1.438c.614-.619,1.087-1.353,1.421-2.203,.336-.848,.503-1.782,.503-2.798s-.166-1.948-.503-2.791c-.335-.845-.808-1.575-1.421-2.194-.612-.617-1.338-1.098-2.175-1.438-.837-.342-1.765-.512-2.782-.512s-1.948,.17-2.791,.512c-.845,.34-1.569,.821-2.175,1.438-.608,.619-1.078,1.349-1.414,2.194-.335,.843-.503,1.774-.503,2.791s.168,1.95,.503,2.798c.336,.85,.806,1.584,1.414,2.203Zm.2-7.099c.253-.647,.608-1.211,1.065-1.691,.457-.479,1-.852,1.63-1.118,.63-.264,1.32-.397,2.072-.397s1.442,.133,2.072,.397c.628,.266,1.175,.639,1.638,1.118,.462,.481,.817,1.044,1.066,1.691,.248,.647,.371,1.346,.371,2.098s-.124,1.449-.371,2.098c-.25,.647-.604,1.211-1.066,1.689-.462,.481-1.009,.856-1.638,1.127-.63,.272-1.321,.407-2.072,.407s-1.442-.135-2.072-.407-1.174-.647-1.63-1.127c-.457-.479-.811-1.042-1.065-1.689-.255-.649-.383-1.347-.383-2.098s.128-1.451,.383-2.098Zm15.826,12.681c.161-.168,.242-.379,.242-.634v-4.68c.405,.486,.893,.871,1.464,1.153,.573,.283,1.199,.425,1.881,.425,.843,0,1.601-.211,2.271-.634,.669-.421,1.198-.994,1.586-1.715,.386-.723,.58-1.541,.58-2.454s-.211-1.732-.632-2.46c-.423-.728-.991-1.303-1.708-1.726-.717-.421-1.532-.632-2.445-.632-.9,0-1.71,.211-2.427,.632-.715,.423-1.283,.998-1.699,1.726s-.63,1.549-.641,2.46v7.905c0,.255,.083,.466,.251,.634,.168,.166,.379,.251,.632,.251,.266,0,.481-.085,.643-.251Zm.571-10.211c.266-.49,.632-.878,1.102-1.161,.468-.283,.991-.425,1.567-.425,.59,0,1.116,.142,1.578,.425s.83,.671,1.102,1.161c.27,.492,.407,1.05,.407,1.673,0,.614-.137,1.164-.407,1.656-.272,.492-.639,.878-1.102,1.163-.462,.283-.989,.423-1.578,.423-.577,0-1.1-.14-1.567-.423-.469-.285-.835-.671-1.102-1.163s-.399-1.042-.399-1.656c0-.623,.133-1.181,.399-1.673Zm10.489-1.238h-.798c-.242,0-.438-.07-.588-.209-.152-.139-.225-.312-.225-.519,0-.231,.074-.416,.225-.554,.15-.139,.346-.209,.588-.209h.798v-2.495c0-.255,.081-.462,.242-.625,.163-.163,.37-.242,.625-.242,.253,0,.462,.079,.623,.242,.163,.163,.244,.37,.244,.625v2.495h1.473c.242,0,.44,.07,.59,.209s.225,.323,.225,.554c0,.207-.076,.381-.225,.519s-.347,.209-.59,.209h-1.473v4.28c0,.464,.128,.85,.381,1.163,.255,.312,.566,.468,.937,.468h.588c.209,0,.384,.081,.53,.242,.144,.163,.216,.371,.216,.625,0,.255-.096,.462-.286,.625-.19,.161-.436,.242-.737,.242h-.311c-.578,0-1.1-.148-1.562-.442-.462-.296-.826-.697-1.09-1.205-.266-.508-.399-1.081-.399-1.717v-4.28Zm8.25-1.595c.163,.163,.244,.375,.244,.641v7.714c0,.253-.081,.464-.244,.632-.161,.168-.375,.251-.641,.251-.253,0-.466-.083-.632-.251-.168-.168-.251-.379-.251-.632V7.324c0-.266,.083-.479,.251-.641,.166-.163,.379-.242,.632-.242,.266,0,.481,.079,.641,.242Zm-1.447-2.124c-.225-.225-.338-.493-.338-.806s.113-.58,.338-.806,.493-.338,.806-.338,.58,.113,.806,.338,.338,.493,.338,.806-.113,.58-.338,.806-.493,.338-.806,.338-.58-.113-.806-.338Zm5.234,11.128c-.168-.166-.251-.377-.251-.632V7.341c0-.264,.083-.479,.251-.641,.168-.161,.379-.242,.632-.242,.266,0,.481,.081,.643,.242,.159,.161,.239,.373,.241,.633,.185-.184,.38-.356,.608-.495,.532-.323,1.139-.484,1.82-.484,.658,0,1.242,.144,1.75,.432,.405,.231,.718,.572,.981,.974,.286-.365,.616-.688,1.04-.922,.584-.323,1.251-.484,2.002-.484,.66,0,1.242,.144,1.75,.432,.51,.29,.906,.713,1.188,1.275,.283,.56,.425,1.238,.425,2.037v4.957c0,.255-.081,.466-.244,.632-.161,.168-.375,.251-.641,.251-.253,0-.464-.083-.632-.251-.168-.166-.251-.377-.251-.632v-4.957c0-.728-.179-1.27-.538-1.621-.359-.353-.826-.529-1.403-.529-.603,0-1.096,.207-1.482,.623-.388,.416-.582,.948-.582,1.595v4.889c0,.255-.079,.466-.242,.632-.161,.168-.375,.251-.641,.251-.253,0-.466-.083-.632-.251-.168-.166-.251-.377-.251-.632v-4.957c0-.728-.179-1.27-.538-1.621-.359-.353-.826-.529-1.405-.529-.601,0-1.098,.207-1.49,.623-.394,.416-.59,.948-.59,1.595v4.889c0,.255-.081,.466-.242,.632-.163,.168-.377,.251-.643,.251-.253,0-.464-.083-.632-.251Zm16.362-1.689c-.364-.66-.545-1.467-.545-2.427V7.307c0-.255,.083-.466,.251-.634,.168-.166,.379-.251,.632-.251,.255,0,.466,.085,.634,.251,.166,.168,.251,.379,.251,.634v4.264c0,.647,.12,1.181,.364,1.602,.242,.423,.571,.736,.987,.937s.885,.303,1.405,.303c.497,0,.939-.098,1.325-.294,.388-.198,.697-.462,.928-.798,.231-.335,.347-.71,.347-1.127V7.307c0-.266,.083-.481,.251-.643,.166-.161,.379-.242,.632-.242,.266,0,.481,.081,.641,.242,.163,.163,.244,.377,.244,.643v7.731c0,.253-.081,.464-.244,.632-.161,.168-.375,.251-.641,.251-.253,0-.466-.083-.632-.251-.168-.168-.251-.379-.251-.632v-.202c-.257,.257-.543,.486-.876,.669-.606,.335-1.297,.503-2.072,.503-.797,0-1.51-.17-2.14-.512-.63-.34-1.127-.841-1.492-1.499Zm22.493-5.521c-.359-.353-.826-.529-1.403-.529-.603,0-1.096,.207-1.482,.623-.388,.416-.582,.948-.582,1.595v4.889c0,.255-.079,.466-.242,.632-.161,.168-.375,.251-.641,.251-.253,0-.466-.083-.632-.251-.168-.166-.251-.377-.251-.632v-4.957c0-.728-.179-1.27-.538-1.621-.359-.353-.826-.529-1.405-.529-.601,0-1.098,.207-1.49,.623-.394,.416-.59,.948-.59,1.595v4.889c0,.255-.081,.466-.242,.632-.163,.168-.377,.251-.643,.251-.253,0-.464-.083-.632-.251-.168-.166-.251-.377-.251-.632V7.341c0-.264,.083-.479,.251-.641,.168-.161,.379-.242,.632-.242,.266,0,.481,.081,.643,.242,.159,.161,.239,.373,.241,.633,.185-.184,.38-.356,.608-.495,.532-.323,1.139-.484,1.82-.484,.658,0,1.242,.144,1.75,.432,.405,.231,.718,.572,.981,.974,.286-.365,.616-.688,1.04-.922,.584-.323,1.251-.484,2.002-.484,.66,0,1.242,.144,1.75,.432,.51,.29,.906,.713,1.188,1.275,.283,.56,.425,1.238,.425,2.037v4.957c0,.255-.081,.466-.244,.632-.161,.168-.375,.251-.641,.251-.253,0-.464-.083-.632-.251-.168-.166-.251-.377-.251-.632v-4.957c0-.728-.179-1.27-.538-1.621Zm-66.615,15.575c.253,0,.468,.083,.641,.251s.259,.384,.259,.651v11.734c0,.255-.089,.469-.268,.641-.179,.174-.39,.261-.632,.261-.255,0-.468-.087-.641-.261-.174-.172-.261-.386-.261-.641v-8.618l-4.195,8.55c-.196,.299-.457,.451-.78,.451-.381,0-.658-.179-.832-.538l-4.144-8.305v8.46c0,.255-.087,.469-.259,.641-.174,.174-.388,.261-.641,.261-.255,0-.469-.087-.641-.261-.174-.172-.261-.386-.261-.641v-11.734c0-.266,.087-.482,.261-.651,.172-.168,.386-.251,.641-.251,.346,0,.612,.161,.797,.484l5.146,10.307,5.012-10.307c.185-.323,.451-.484,.798-.484Zm10.919,4.619c-.715-.421-1.525-.632-2.427-.632s-1.713,.211-2.436,.632c-.721,.423-1.294,.998-1.715,1.726s-.632,1.549-.632,2.46,.192,1.732,.58,2.454c.386,.721,.915,1.294,1.586,1.715,.669,.423,1.427,.634,2.271,.634s1.601-.211,2.27-.634c.422-.265,.767-.611,1.076-.994v.691c0,.255,.083,.466,.251,.632,.166,.168,.379,.251,.632,.251,.255,0,.466-.083,.632-.251,.168-.166,.251-.377,.251-.632v-3.866c0-.911-.211-1.732-.632-2.46s-.991-1.303-1.708-1.726Zm.244,5.842c-.266,.492-.63,.878-1.092,1.163-.462,.283-.989,.423-1.578,.423-.578,0-1.1-.14-1.569-.423-.468-.285-.837-.671-1.109-1.163s-.407-1.042-.407-1.656c0-.623,.135-1.181,.407-1.673,.272-.49,.641-.878,1.109-1.161,.469-.283,.991-.425,1.569-.425,.59,0,1.116,.142,1.578,.425s.826,.671,1.092,1.161c.264,.492,.397,1.05,.397,1.673,0,.614-.133,1.164-.397,1.656Zm8.944-6.474c.682,0,1.307,.129,1.872,.39,.567,.261,1.076,.651,1.527,1.17,.161,.185,.218,.375,.172,.573-.046,.196-.172,.37-.381,.519-.163,.116-.34,.153-.538,.113-.196-.041-.375-.14-.536-.303-.567-.601-1.272-.902-2.116-.902-.59,0-1.109,.137-1.56,.408s-.804,.649-1.057,1.135c-.255,.486-.381,1.057-.381,1.715,0,.625,.129,1.179,.39,1.665,.259,.484,.621,.869,1.083,1.153,.462,.283,1,.423,1.612,.423,.405,0,.76-.048,1.066-.146s.586-.251,.841-.46c.185-.15,.375-.235,.571-.251,.198-.017,.37,.037,.521,.164,.196,.163,.305,.344,.329,.547,.022,.201-.046,.384-.209,.545-.832,.774-1.872,1.163-3.12,1.163-.924,0-1.748-.211-2.469-.634-.723-.421-1.29-.994-1.7-1.715-.41-.723-.614-1.541-.614-2.454,0-.935,.201-1.767,.606-2.495s.959-1.297,1.663-1.708c.706-.41,1.514-.615,2.427-.615Zm12.967,2.807c-.242-.416-.569-.725-.98-.926-.41-.203-.882-.303-1.412-.303-.486,0-.926,.098-1.318,.294-.394,.196-.706,.46-.937,.789s-.346,.708-.346,1.135v4.889c0,.255-.081,.466-.242,.632-.163,.168-.377,.251-.643,.251-.253,0-.464-.083-.632-.251-.168-.166-.251-.377-.251-.632v-11.788c0-.266,.083-.479,.251-.641,.168-.161,.379-.242,.632-.242,.266,0,.481,.081,.643,.242,.161,.163,.242,.375,.242,.641v4.257c.258-.256,.547-.484,.883-.668,.614-.336,1.301-.503,2.063-.503,.798,0,1.512,.17,2.142,.51,.628,.342,1.126,.841,1.49,1.501,.364,.658,.547,1.467,.547,2.427v4.264c0,.255-.085,.466-.251,.632-.168,.168-.379,.251-.634,.251-.253,0-.464-.083-.632-.251-.168-.166-.251-.377-.251-.632v-4.264c0-.66-.122-1.196-.364-1.613Zm7.28-5.425c0,.312-.113,.58-.338,.806s-.493,.338-.806,.338-.58-.113-.806-.338-.338-.493-.338-.806,.113-.58,.338-.806,.493-.338,.806-.338,.58,.113,.806,.338,.338,.493,.338,.806Zm-.503,2.929c.163,.163,.244,.375,.244,.641v7.714c0,.253-.081,.464-.244,.632-.161,.168-.375,.251-.641,.251-.253,0-.466-.083-.632-.251-.168-.168-.251-.379-.251-.632v-7.714c0-.266,.083-.479,.251-.641,.166-.163,.379-.242,.632-.242,.266,0,.481,.079,.641,.242Zm5.062,9.005c-.163,.168-.377,.251-.643,.251-.253,0-.464-.083-.632-.251-.168-.166-.251-.377-.251-.632v-7.731c0-.266,.083-.479,.251-.641s.379-.242,.632-.242c.266,0,.481,.079,.643,.242,.161,.163,.242,.375,.242,.641v.2c.258-.256,.547-.484,.883-.668,.614-.336,1.301-.503,2.063-.503,.798,0,1.512,.17,2.142,.51,.628,.342,1.126,.841,1.49,1.501,.364,.658,.547,1.467,.547,2.427v4.264c0,.255-.085,.466-.251,.632-.168,.168-.379,.251-.634,.251-.253,0-.464-.083-.632-.251-.168-.166-.251-.377-.251-.632v-4.264c0-.66-.122-1.196-.364-1.613-.242-.416-.569-.725-.98-.926-.41-.203-.882-.303-1.412-.303-.486,0-.926,.098-1.318,.294-.394,.196-.706,.46-.937,.789s-.346,.708-.346,1.135v4.889c0,.255-.081,.466-.242,.632Zm16.815-8.718c-.649-.399-1.421-.599-2.323-.599-.913,0-1.723,.205-2.427,.615-.706,.41-1.257,.976-1.656,1.699s-.597,1.558-.597,2.504c0,.937,.211,1.767,.632,2.488,.421,.723,1.005,1.29,1.75,1.7s1.599,.615,2.558,.615c.53,0,1.089-.1,1.673-.296,.582-.196,1.072-.451,1.464-.763,.196-.15,.288-.329,.277-.536-.011-.209-.115-.399-.312-.573-.15-.128-.325-.187-.529-.181-.201,.006-.39,.072-.562,.198-.233,.174-.536,.327-.911,.46s-.743,.2-1.1,.2c-.66,0-1.244-.144-1.752-.434-.508-.288-.907-.68-1.196-1.177-.191-.33-.295-.701-.36-1.092h6.566c.231,0,.421-.072,.571-.216,.152-.146,.225-.327,.225-.547,0-.913-.17-1.719-.51-2.417-.342-.7-.835-1.249-1.482-1.647Zm-4.014,1.325c.469-.288,1.031-.432,1.691-.432,.577,0,1.068,.133,1.473,.397,.405,.266,.717,.628,.937,1.085,.154,.321,.238,.683,.289,1.065h-5.741c.059-.328,.147-.64,.286-.926,.242-.503,.597-.898,1.065-1.188Zm14.457-1.621c.342,.225,.471,.493,.39,.806-.035,.163-.102,.286-.2,.373s-.211,.142-.338,.164c-.126,.024-.264,.017-.416-.017-.739-.152-1.403-.163-1.992-.035s-1.055,.364-1.395,.71c-.342,.347-.512,.787-.512,1.318v5.062c0,.277-.072,.492-.216,.641s-.362,.225-.651,.225c-.277,0-.492-.072-.641-.216s-.225-.362-.225-.651v-7.748c0-.279,.076-.492,.225-.643,.15-.15,.364-.224,.641-.224,.288,0,.506,.072,.651,.216s.216,.36,.216,.651v.363c.286-.33,.607-.626,1.005-.849,.578-.323,1.214-.486,1.907-.486s1.211,.113,1.551,.338Zm9.906,.944l-5.304,11.927c-.139,.359-.364,.538-.676,.538-.115,0-.253-.035-.416-.104-.508-.231-.647-.595-.416-1.092l1.729-3.904-3.895-7.398c-.116-.22-.131-.431-.044-.634,.087-.201,.24-.349,.46-.442,.218-.092,.427-.102,.623-.026,.198,.076,.347,.222,.451,.442l3.178,6.312,2.786-6.294c.231-.486,.595-.625,1.092-.418,.519,.22,.664,.584,.432,1.092Zm-86.099,18.098h-3.728v10.971c0,.255-.087,.469-.259,.641-.174,.174-.388,.261-.641,.261-.255,0-.469-.087-.643-.261-.172-.172-.259-.386-.259-.641v-10.971h-3.744c-.242,0-.442-.078-.599-.233-.155-.157-.233-.357-.233-.599s.078-.442,.233-.599c.157-.155,.357-.233,.599-.233h9.274c.242,0,.442,.078,.597,.233,.157,.157,.235,.357,.235,.599s-.078,.442-.235,.599c-.155,.155-.355,.233-.597,.233Zm6.423,2.626c.342,.225,.471,.493,.39,.806-.035,.163-.102,.286-.2,.373s-.211,.142-.338,.164c-.126,.024-.264,.017-.416-.017-.739-.152-1.403-.163-1.992-.035s-1.055,.364-1.395,.71c-.342,.347-.512,.787-.512,1.318v5.06c0,.277-.072,.492-.216,.641s-.362,.225-.651,.225c-.277,0-.492-.072-.641-.216s-.225-.362-.225-.651v-7.746c0-.279,.076-.492,.225-.643,.15-.15,.364-.224,.641-.224,.288,0,.506,.072,.651,.216s.216,.36,.216,.651v.363c.286-.33,.607-.626,1.005-.849,.578-.323,1.214-.486,1.907-.486s1.211,.113,1.551,.338Zm8.26,.329c-.715-.421-1.525-.632-2.427-.632s-1.713,.211-2.436,.632c-.721,.423-1.294,.998-1.715,1.726s-.632,1.549-.632,2.46,.192,1.732,.58,2.454c.386,.721,.915,1.292,1.586,1.713,.669,.423,1.427,.634,2.271,.634s1.601-.211,2.27-.634c.422-.265,.767-.61,1.076-.993v.69c0,.255,.083,.466,.251,.632,.166,.168,.379,.251,.632,.251,.255,0,.466-.083,.632-.251,.168-.166,.251-.377,.251-.632v-3.865c0-.911-.211-1.732-.632-2.46s-.991-1.303-1.708-1.726Zm.244,5.842c-.266,.492-.63,.878-1.092,1.163-.462,.283-.989,.421-1.578,.421-.578,0-1.1-.139-1.569-.421-.468-.285-.837-.671-1.109-1.163s-.407-1.042-.407-1.656c0-.623,.135-1.181,.407-1.673,.272-.49,.641-.878,1.109-1.161,.469-.283,.991-.425,1.569-.425,.59,0,1.116,.142,1.578,.425s.826,.671,1.092,1.161c.264,.492,.397,1.05,.397,1.673,0,.614-.133,1.164-.397,1.656Zm12.914-10.461c-.253,0-.466,.081-.632,.242-.168,.163-.251,.375-.251,.641v4.682c-.394-.486-.878-.871-1.456-1.153s-1.209-.425-1.889-.425c-.845,0-1.602,.211-2.271,.632-.671,.423-1.199,.994-1.586,1.717-.388,.723-.58,1.54-.58,2.453s.211,1.734,.632,2.462,.994,1.301,1.715,1.723c.723,.423,1.534,.634,2.436,.634s1.711-.211,2.427-.634c.717-.421,1.286-.994,1.708-1.723s.632-1.549,.632-2.462v-7.905c0-.266-.079-.479-.242-.641-.161-.161-.375-.242-.641-.242Zm-1.212,10.452c-.266,.497-.63,.887-1.092,1.172-.462,.283-.989,.421-1.578,.421-.578,0-1.1-.139-1.569-.421-.468-.285-.837-.675-1.109-1.172-.272-.495-.407-1.05-.407-1.663,0-.625,.135-1.179,.407-1.663,.272-.486,.641-.871,1.109-1.153,.469-.283,.991-.425,1.569-.425,.59,0,1.116,.142,1.578,.425s.826,.667,1.092,1.153c.264,.484,.397,1.039,.397,1.663,0,.614-.133,1.168-.397,1.663Zm7.079-9.888c.225,.225,.338,.493,.338,.806s-.113,.58-.338,.806-.493,.338-.806,.338-.58-.113-.806-.338-.338-.493-.338-.806,.113-.58,.338-.806,.493-.338,.806-.338,.58,.113,.806,.338Zm-.164,3.735c.163,.163,.244,.375,.244,.641v7.713c0,.253-.081,.464-.244,.632-.161,.168-.375,.251-.641,.251-.253,0-.466-.083-.632-.251-.168-.168-.251-.379-.251-.632v-7.713c0-.266,.083-.479,.251-.641,.166-.163,.379-.242,.632-.242,.266,0,.481,.079,.641,.242Zm11.884,1.682c.364,.658,.547,1.467,.547,2.427v4.262c0,.255-.085,.466-.251,.632-.168,.168-.379,.251-.634,.251-.253,0-.464-.083-.632-.251-.168-.166-.251-.377-.251-.632v-4.262c0-.66-.122-1.196-.364-1.613-.242-.416-.569-.725-.98-.926-.41-.203-.882-.303-1.412-.303-.486,0-.926,.098-1.318,.294-.394,.196-.706,.46-.937,.789s-.346,.708-.346,1.135v4.887c0,.255-.081,.466-.242,.632-.163,.168-.377,.251-.643,.251-.253,0-.464-.083-.632-.251-.168-.166-.251-.377-.251-.632v-7.729c0-.266,.083-.479,.251-.641s.379-.242,.632-.242c.266,0,.481,.079,.643,.242,.161,.163,.242,.375,.242,.641v.2c.258-.256,.547-.484,.883-.668,.614-.336,1.301-.503,2.063-.503,.798,0,1.512,.17,2.142,.51,.628,.342,1.126,.841,1.49,1.501Zm10.234-1.379c-.717-.41-1.538-.615-2.462-.615-.935,0-1.761,.205-2.478,.615s-1.281,.976-1.691,1.699-.614,1.558-.614,2.504c0,.937,.19,1.767,.571,2.488s.904,1.288,1.569,1.699c.664,.41,1.431,.615,2.297,.615,.797,0,1.501-.205,2.114-.615,.54-.362,.961-.867,1.299-1.471v.907c0,.75-.139,1.386-.416,1.906-.277,.521-.651,.913-1.118,1.179s-.98,.399-1.534,.399c-.601,0-1.139-.111-1.612-.329-.475-.22-.867-.527-1.179-.919-.139-.185-.32-.301-.545-.347s-.442,0-.651,.139c-.185,.128-.298,.296-.338,.503-.041,.209,.015,.41,.164,.606,.497,.625,1.103,1.098,1.82,1.421s1.484,.486,2.305,.486c.948,0,1.784-.22,2.506-.658,.721-.44,1.285-1.031,1.689-1.778,.405-.745,.606-1.575,.606-2.488v-3.743c0-.946-.205-1.782-.614-2.504-.412-.723-.974-1.288-1.691-1.699Zm-.867,7.029c-.462,.277-.994,.414-1.595,.414s-1.133-.137-1.595-.414-.826-.658-1.092-1.144c-.266-.484-.397-1.046-.397-1.682s.131-1.198,.397-1.689,.63-.876,1.092-1.153,.994-.416,1.595-.416,1.133,.139,1.595,.416,.824,.662,1.083,1.153c.261,.492,.39,1.055,.39,1.689s-.129,1.198-.39,1.682c-.259,.486-.621,.867-1.083,1.144Z"/><path class="cls-1" d="M25.681,48.003v-10.057h-.849c-.826,0-1.496-.67-1.496-1.496v-3.818h17.707v3.818c0,.826-.67,1.496-1.496,1.496h-.849v10.057h0s0,.002,0,.002c0,.058,0,.116,.001,.174,.113,8.506,10.798,12.43,16.696,6.3,5.562-5.781,8.984-13.633,8.984-22.29C64.377,14.411,49.966,0,32.189,0c-.983,0-1.952,.061-2.913,.147,5.624,3.227,9.421,9.278,9.421,16.227v10.057h.849c.826,0,1.496,.67,1.496,1.496v3.818H23.335v-3.818c0-.826,.67-1.496,1.496-1.496h.849v-10.057h0s0-.002,0-.002c0-.058,0-.116-.001-.174-.113-8.505-10.798-12.43-16.696-6.3C3.422,15.68,0,23.532,0,32.189c0,17.777,14.411,32.189,32.189,32.189,.983,0,1.952-.061,2.913-.147-5.624-3.227-9.421-9.278-9.421-16.227Z"/><rect class="cls-2" x="23.335" y="29.808" width="17.707" height="4.762"/></g></g></svg>