<svg width="90" height="91" viewBox="0 0 90 91" fill="none" xmlns="http://www.w3.org/2000/svg">
<path d="M46.7244 12.1763C46.7244 15.4981 46.7315 18.8199 46.7213 22.1417C46.7164 23.7524 46.1296 24.3346 44.5391 24.3648C34.0054 24.5658 25.338 32.6334 24.2618 43.2393C23.1386 54.309 30.1811 64.0275 40.9317 66.2436C51.9643 68.5176 63.4875 60.6594 65.5147 49.4538C65.736 48.2302 65.8276 46.9791 65.9206 45.7361C66.0219 44.3813 66.5914 43.7449 67.9451 43.742C74.6208 43.7275 81.2968 43.7281 87.9728 43.7417C89.2503 43.7444 89.9955 44.4368 90 45.5169C90.0047 46.6202 89.2809 47.2653 87.9875 47.2724C85.9684 47.2834 83.9491 47.2979 81.9306 47.2658C81.0376 47.2516 80.6448 47.6054 80.5681 48.5193C79.2791 63.8773 68.6089 76.7127 53.8505 80.6872C52.1475 81.1457 51.0201 80.3265 51.2438 78.7923C51.389 77.7971 52.1394 77.499 52.9559 77.2862C55.9361 76.5096 58.7632 75.3516 61.3785 73.7142C70.4113 68.0588 75.59 59.8758 77.0202 49.2554C77.064 48.9302 77.0638 48.5993 77.0909 48.2715C77.1486 47.5731 76.8435 47.2169 76.1397 47.2177C74.186 47.2198 72.2319 47.2208 70.2781 47.2182C69.4564 47.2171 69.298 47.7472 69.198 48.4417C67.972 56.9615 63.6371 63.3151 56.1214 67.4061C53.5777 68.7907 50.8421 69.6325 47.9672 69.9421C47.0199 70.0442 46.7046 70.4575 46.7098 71.4021C46.7404 76.9931 46.7247 82.5842 46.7247 88.1754C46.7247 88.4385 46.7312 88.7018 46.7226 88.9646C46.6819 90.195 46.0345 90.9495 45.0186 90.9574C44.0032 90.965 43.3118 90.2055 43.2969 88.9875C43.2745 87.146 43.2912 85.304 43.2899 83.4623C43.2888 81.9068 43.2003 81.7981 41.671 81.6366C34.0198 80.8282 27.3051 77.8431 21.5529 72.7028C15.9544 67.7 12.306 61.4834 10.4997 54.1624C10.2043 52.9644 10.6517 52.0381 11.6159 51.7893C12.6618 51.5196 13.4585 52.0708 13.79 53.3382C16.4846 63.6363 22.59 71.0541 32.1754 75.5184C35.3343 76.9895 38.6783 77.7921 42.1286 78.1743C42.9236 78.2625 43.2888 77.9123 43.2888 77.1257C43.2888 75.1196 43.2718 73.1131 43.2964 71.1072C43.3073 70.2044 42.7566 70.0631 42.0469 69.9479C31.9023 68.2979 25.0762 62.6212 21.7672 52.7605C21.3112 51.402 21.0598 49.9575 20.863 48.5317C20.7223 47.5118 20.2577 47.2332 19.313 47.2377C13.5817 47.2645 7.85006 47.2529 2.11871 47.2492C0.974112 47.2484 0.282392 46.8046 0.0665235 45.9626C-0.246447 44.7417 0.572392 43.7315 1.94461 43.7133C3.86576 43.6878 5.78717 43.7062 7.70859 43.7057C9.36532 43.7052 9.45146 43.6341 9.59189 41.9594C10.1223 35.6347 12.1591 29.8404 15.6978 24.6077C20.578 17.3914 27.2049 12.5551 35.4847 10.0292C36.8156 9.62298 37.7786 10.0468 38.0928 11.1369C38.3867 12.1563 37.7741 13.0324 36.5097 13.4364C23.9173 17.4609 16.2528 26.0193 13.4627 39.0381C13.2225 40.1585 13.1523 41.3157 12.998 42.4551C12.88 43.3271 13.2162 43.7517 14.1228 43.7402C15.9137 43.7173 17.7051 43.7138 19.4958 43.7423C20.3509 43.7559 20.6897 43.3816 20.8043 42.5335C21.8643 34.7016 25.7001 28.6405 32.3215 24.424C35.3058 22.5236 38.5841 21.3801 42.0998 20.9984C43.0012 20.9005 43.3073 20.4877 43.3032 19.5891C43.2768 13.8665 43.2873 8.14374 43.2953 2.4212C43.2959 1.99845 43.3105 1.55728 43.4277 1.15715C43.6584 0.36926 44.2523 -0.0148208 45.05 0.000437204C45.8051 0.014906 46.3634 0.397934 46.5835 1.14452C46.6923 1.5144 46.7177 1.92005 46.719 2.30966C46.7289 5.59855 46.7247 8.88744 46.7247 12.1763H46.7244ZM68.7919 32.3145C69.778 32.3695 70.5107 32.0341 71.2092 31.3228C75.0364 27.4254 78.8894 23.5535 82.7682 19.7083C83.4151 19.0672 83.8045 18.429 83.4746 17.5437C83.1399 16.6453 82.3999 16.4099 81.5072 16.4207C79.5874 16.4436 77.6667 16.4338 75.7466 16.4244C74.6503 16.4188 74.3645 16.1292 74.359 15.0177C74.3496 13.0784 74.34 11.139 74.3632 9.19997C74.3739 8.30737 74.174 7.5642 73.2888 7.18722C72.3922 6.80525 71.736 7.22642 71.1207 7.84911C67.2351 11.7807 63.3476 15.7104 59.4429 19.6228C58.87 20.1968 58.61 20.8224 58.6194 21.6355C58.6471 24.0018 58.603 26.3689 58.6445 28.735C58.6573 29.4579 58.4176 29.9516 57.9201 30.4546C53.3195 35.1049 48.743 39.7799 44.1606 44.4489C43.9777 44.6354 43.7858 44.8182 43.6328 45.0284C43.0988 45.7621 43.1541 46.6447 43.7561 47.2782C44.3812 47.9358 45.3065 48.0092 46.056 47.4352C46.3133 47.2382 46.5344 46.9912 46.7633 46.7581C51.2347 42.2096 55.7116 37.6664 60.1662 33.1011C60.7097 32.5442 61.2767 32.2619 62.0556 32.2903C63.2257 32.3327 64.3985 32.3014 65.57 32.3014C66.6441 32.3014 67.7206 32.2551 68.7913 32.3148L68.7919 32.3145ZM63.184 28.8305C62.4004 28.8352 61.9731 28.5208 61.9879 27.6566C62.0164 26.0143 61.9629 24.3698 62.0193 22.7291C62.0334 22.32 62.2406 21.8281 62.5217 21.5319C64.6598 19.2784 66.8235 17.0486 69.0226 14.856C69.3139 14.5655 69.9586 14.2948 70.2437 14.4316C70.5501 14.5787 70.7289 15.2048 70.7785 15.6433C70.8628 16.3894 70.7853 17.1525 70.8067 17.9076C70.8409 19.1103 71.5063 19.7806 72.7059 19.8124C73.5838 19.8359 74.4679 19.7622 75.3384 19.8464C75.6903 19.8803 76.1591 20.1465 76.3032 20.442C76.4172 20.6761 76.2147 21.2125 75.9855 21.4498C73.6918 23.8256 71.3726 26.1763 69.0307 28.5035C68.813 28.7197 68.3948 28.7981 68.0633 28.816C67.2523 28.8596 66.4374 28.8302 65.624 28.8302C64.8107 28.8291 63.9973 28.8254 63.184 28.8302V28.8305ZM46.6811 60.007C47.514 59.8739 48.3501 59.7161 49.1585 59.4783C55.1639 57.7125 59.4424 51.9519 59.4583 45.6461C59.4617 44.3365 58.6536 43.5294 57.4769 43.667C56.5202 43.7788 56.0277 44.4378 55.9381 45.7258C55.496 52.0823 51.1974 56.4272 45.2162 56.5629C39.6454 56.6895 34.8783 52.5756 34.0996 46.9693C33.3393 41.4949 36.7859 36.2124 42.0967 34.7908C43.0301 34.5409 44.0207 34.5117 44.9824 34.3641C45.9855 34.2102 46.6088 33.4931 46.5717 32.5642C46.5334 31.6024 45.7954 30.9197 44.7414 30.9155C44.288 30.9137 43.8333 30.9787 43.3812 31.0305C35.7125 31.9091 30.1595 38.5658 30.5607 46.3956C30.9501 53.992 37.3387 60.0836 44.9291 60.1181C45.5135 60.0849 46.1058 60.0991 46.6811 60.007Z" fill="#0075BF"/>
</svg>
