<svg width="90" height="102" viewBox="0 0 90 102" fill="none" xmlns="http://www.w3.org/2000/svg">
<path d="M41.4346 0H48.567C50.784 0.736427 51.7578 2.3535 51.9503 4.61253C52.0734 6.05839 52.3761 7.48811 52.5578 8.93C52.6418 9.59657 52.9064 9.93502 53.609 10.0943C57.2417 10.9178 60.6278 12.3676 63.7874 14.3348C64.2581 14.6277 64.56 14.6261 64.9976 14.2877C66.408 13.1972 67.852 12.1499 69.2901 11.0956C71.341 9.5926 73.3399 9.74264 75.161 11.5399C76.3133 12.6772 77.4644 13.8167 78.5919 14.9786C80.2456 16.6825 80.3935 18.7137 79.0068 20.6369C77.944 22.1108 76.8757 23.5818 75.7629 25.0176C75.3955 25.4918 75.4172 25.83 75.7204 26.3163C77.6928 29.4793 79.1056 32.8849 79.9505 36.5157C80.105 37.1794 80.4186 37.4218 81.059 37.5051C82.8577 37.739 84.6503 38.0206 86.4424 38.3019C88.5688 38.6358 89.9578 40.2407 89.9847 42.4135C90.0067 44.166 90.003 45.9194 89.9863 47.6722C89.9652 49.8921 88.6874 51.4446 86.5118 51.8309C84.6286 52.1654 82.7349 52.4408 80.8412 52.7105C80.351 52.7803 80.1251 52.9539 80.0042 53.4713C79.1315 57.1976 77.6894 60.6971 75.6652 63.9456C75.3913 64.3854 75.4116 64.6743 75.7188 65.0768C76.821 66.5211 77.893 67.9889 78.9622 69.4583C80.4167 71.4578 80.2567 73.4937 78.5095 75.2674C77.4197 76.3741 76.3199 77.4709 75.2183 78.5656C73.3549 80.4169 71.3809 80.5804 69.27 79.0464C67.8544 78.0176 66.4609 76.9581 65.0399 75.9367C64.7993 75.7636 64.3801 75.5392 64.1963 75.6345C62.7148 76.4018 61.2698 77.2399 59.8143 78.0562C61.4901 80.9731 61.4758 80.9742 61.6906 84.3194C61.7091 84.6073 62.0284 84.9868 62.3068 85.1286C63.8228 85.8995 64.8526 87.0749 65.0967 88.7486C65.2385 89.7221 65.0417 90.7451 64.9958 91.776C67.656 92.8718 68.624 94.3153 68.6287 97.2795C68.6301 98.0734 68.5891 98.8696 68.639 99.6603C68.6956 100.555 68.3736 101.198 67.5863 101.613H22.4158C21.6274 101.2 21.3168 100.557 21.3615 99.6624C21.4156 98.574 21.3644 97.4807 21.3887 96.3902C21.4214 94.9118 22.0492 93.6945 23.19 92.7906C23.7703 92.331 24.4718 92.0251 25.1236 91.6467C24.1572 88.4125 25.4202 86.0894 28.3731 84.7896C28.1121 82.3446 28.5279 80.0268 30.28 78.1012C28.7405 77.2372 27.3507 76.4243 25.9207 75.6898C25.7028 75.5778 25.2409 75.7485 24.99 75.9269C23.5106 76.9784 22.0691 78.0832 20.5976 79.1464C18.6867 80.5272 16.6247 80.3724 14.9534 78.7297C13.7754 77.572 12.608 76.4034 11.4514 75.2246C9.75443 73.4948 9.59834 71.4519 11.0153 69.4954C12.0808 68.0244 13.1494 66.5547 14.2572 65.1157C14.5952 64.6767 14.6032 64.3668 14.3108 63.899C12.3 60.6826 10.8751 57.2129 10.0117 53.5205C9.88253 52.9682 9.64826 52.7735 9.11474 52.6991C7.18851 52.43 5.262 52.1516 3.34845 51.806C1.35672 51.4467 0.0503785 49.8632 0.0200047 47.8299C-0.00719973 46.012 -0.00561011 44.193 0.0184249 42.3751C0.0469499 40.2148 1.44678 38.6303 3.5925 38.2974C5.38429 38.0193 7.18428 37.7885 8.96736 37.4644C9.32894 37.3987 9.8519 37.0645 9.92849 36.76C10.9211 32.8217 12.4596 29.1245 14.6261 25.7196C14.5915 25.6201 14.5834 25.5484 14.5461 25.4976C13.3787 23.897 12.2023 22.3029 11.0399 20.6988C9.58302 18.688 9.73938 16.6777 11.4921 14.8955C12.627 13.7415 13.7672 12.5926 14.923 11.4595C16.6556 9.7609 18.6796 9.61562 20.6431 11.0446C22.1111 12.1125 23.5827 13.1771 25.0156 14.2909C25.4627 14.6386 25.7683 14.6195 26.2255 14.3337C29.4105 12.3433 32.8309 10.9006 36.4929 10.0631C37.1062 9.92284 37.3535 9.62674 37.429 9.02262C37.6133 7.54818 37.9255 6.08697 38.0505 4.60882C38.2417 2.34715 39.22 0.736427 41.4344 0.000264616L41.4346 0ZM51.8547 36.7073C51.8547 35.6155 51.814 34.5626 51.864 33.5139C51.9453 31.8018 53.1621 30.6127 54.8567 30.5716C56.1432 30.5404 57.4322 30.5357 58.7184 30.5751C60.3953 30.6267 61.6364 31.8815 61.6528 33.5716C61.6811 36.4816 61.6829 39.3926 61.6504 42.3026C61.6304 44.1015 60.74 45.4341 59.2445 46.3827C58.9759 46.5531 58.6957 46.705 58.44 46.854C59.4318 50.4991 58.6754 52.1215 55.2141 53.9288C55.0638 54.0074 54.8641 54.1804 54.8583 54.3167C54.8248 55.1249 54.8416 55.9351 54.8416 56.7297C56.7166 56.8404 57.3461 57.2278 57.3917 58.2097C57.4374 59.1899 56.8823 59.5641 54.9581 59.8498C54.5884 61.6016 54.9853 66.4301 55.5973 67.5179C55.7167 67.4745 55.8437 67.4398 55.961 67.3837C66.0795 62.5489 71.7712 50.7288 69.2478 39.794C65.9424 25.4696 52.0034 17.258 37.8014 21.2688C36.6311 21.5993 35.8258 21.2624 35.5653 20.3334C35.3261 19.48 35.8358 18.7732 36.961 18.4292C41.1053 17.1627 45.318 16.8987 49.5854 17.6293C61.4492 19.661 70.4763 28.6646 72.4424 40.7702C74.3971 52.8068 68.3472 64.0109 58.3671 69.4922C57.6786 69.8703 56.9726 70.217 56.1369 70.6496C56.8017 72.2487 57.4517 73.812 58.1725 75.5461C59.9072 74.5601 61.4962 73.6962 63.045 72.7652C64.3645 71.9722 64.6709 71.9449 65.8808 72.8375C67.6079 74.1116 69.345 75.3725 71.0565 76.6675C71.7992 77.2296 72.4247 77.1698 73.0623 76.5167C74.124 75.4291 75.2098 74.3651 76.2782 73.2839C77.1268 72.4249 77.1556 72.0293 76.442 71.0574C75.1319 69.2731 73.8259 67.4859 72.4955 65.7169C71.9503 64.9919 71.8854 64.3012 72.3999 63.5341C74.8575 59.8702 76.5341 55.8764 77.3764 51.5401C77.5666 50.5613 78.1038 50.0829 79.1056 49.9548C81.2313 49.6825 83.3455 49.3221 85.4662 49.0093C86.7596 48.8185 87.011 48.5401 87.0137 47.2036C87.0168 45.7154 86.9907 44.2266 87.0226 42.739C87.0424 41.8152 86.6658 41.3354 85.7366 41.2074C83.6461 40.9192 81.5633 40.5739 79.4741 40.2746C77.9823 40.061 77.6115 39.8036 77.3534 38.5038C76.5127 34.2686 74.8855 30.3615 72.4912 26.78C71.9097 25.9102 71.9292 25.1711 72.561 24.3442C73.8845 22.6115 75.1644 20.8454 76.4531 19.0865C77.1437 18.1439 77.1205 17.7444 76.3281 16.9383C75.2624 15.8545 74.1895 14.7778 73.1082 13.7095C72.2702 12.8815 71.9234 12.8596 70.9707 13.5603C69.1887 14.8714 67.4022 16.1765 65.64 17.5139C64.8833 18.0881 64.177 18.1521 63.377 17.6113C59.7231 15.1411 55.7339 13.4724 51.401 12.6383C50.5288 12.4706 50.0172 11.999 49.8915 11.0639C49.5968 8.87047 49.2508 6.68368 48.9137 4.49609C48.7204 3.24102 48.418 2.98328 47.1713 2.97878C45.7517 2.97349 44.332 2.97508 42.9124 2.97826C41.5524 2.98143 41.2696 3.23573 41.0667 4.60776C40.7572 6.69929 40.4088 8.78579 40.1478 10.8834C40.0108 11.9853 39.43 12.4902 38.3917 12.6915C34.1951 13.5057 30.3228 15.1318 26.7773 17.5149C25.8758 18.1209 25.1255 18.1146 24.2642 17.4483C22.541 16.1149 20.7738 14.8381 19.0177 13.5478C18.0732 12.854 17.7277 12.885 16.8817 13.723C15.802 14.7928 14.75 15.8913 13.6523 16.9421C12.95 17.6142 12.9049 18.2485 13.4923 19.0227C14.7701 20.707 16.0091 22.4209 17.2631 24.1235C18.201 25.3971 18.2118 25.685 17.3305 27.0374C15.0886 30.478 13.538 34.2046 12.7025 38.2278C12.3748 39.806 12.1191 40.0393 10.509 40.2754C8.42089 40.5818 6.3375 40.9224 4.24672 41.2103C3.3083 41.3397 2.95729 41.839 2.97737 42.7546C3.00985 44.2422 2.98344 45.731 2.9866 47.2192C2.98951 48.5441 3.24414 48.8193 4.5481 49.0112C6.66899 49.3229 8.78246 49.691 10.9089 49.9553C11.9804 50.0884 12.4625 50.6616 12.6534 51.6515C13.4709 55.8909 15.1119 59.7961 17.5048 63.3788C18.0856 64.2483 18.0732 64.9874 17.4414 65.8156C16.1192 67.5491 14.8401 69.3157 13.5506 71.0738C12.838 72.0452 12.8719 72.4263 13.7339 73.2963C14.7807 74.3524 15.8287 75.4072 16.8865 76.4521C17.6899 77.246 18.1101 77.2759 19.0346 76.5977C20.7651 75.328 22.5083 74.074 24.2032 72.7578C25.0895 72.0695 25.8602 72.0574 26.8113 72.6557C28.395 73.6522 30.0505 74.5342 31.8315 75.5535C32.553 73.807 33.1999 72.241 33.8589 70.6457C33.5145 70.4652 33.3169 70.3551 33.1138 70.2564C15.8503 61.8525 11.795 39.6832 25.042 25.7644C26.6626 24.0616 28.685 22.7327 30.5745 21.3013C31.4134 20.666 32.3529 20.8798 32.8201 21.6292C33.2931 22.3879 33.0446 23.1928 32.1423 23.8152C31.9794 23.9277 31.8101 24.0311 31.6432 24.1372C16.9557 33.4822 16.2756 54.8602 30.3587 65.1414C31.6389 66.076 33.0562 66.8219 34.4098 67.6558C34.53 67.5888 34.6504 67.5219 34.7706 67.4546C34.9389 64.9167 35.1071 62.379 35.2748 59.852C33.201 59.6273 32.6413 59.31 32.6283 58.3712C32.6236 58.034 32.7261 57.5165 32.9521 57.3889C33.6035 57.0219 34.343 56.8115 35.1755 56.4908C35.1755 56.1558 35.1354 55.6612 35.1848 55.1759C35.2645 54.3916 35.0313 53.987 34.2138 53.6763C31.8455 52.7759 30.6527 50.2088 31.3186 47.754C31.402 47.4462 31.4852 47.1382 31.5742 46.8103C29.1567 45.7103 28.2236 43.8432 28.3171 41.286C28.4101 38.7427 28.3216 36.1934 28.3448 33.647C28.3612 31.8511 29.6097 30.6087 31.4054 30.5703C32.5274 30.5462 33.6505 30.5597 34.7727 30.5653C36.9404 30.5761 38.1223 31.7526 38.1537 33.9378C38.1669 34.851 38.1558 35.7645 38.1558 36.6718H39.871C39.871 35.6033 39.8449 34.6134 39.8768 33.6253C39.9342 31.8437 41.1975 30.6026 42.9824 30.5695C44.2364 30.5462 45.4915 30.5587 46.7461 30.5656C48.896 30.5772 50.1134 31.7947 50.1311 33.9489C50.1385 34.8632 50.1324 35.7777 50.1324 36.7084H51.8544L51.8547 36.7073ZM38.1569 59.7853C38.1569 60.2923 38.1786 60.686 38.1532 61.0769C38.0309 62.9554 38.0116 64.85 37.743 66.7079C37.0167 71.729 35.1346 76.3148 32.2089 80.4547C31.2821 81.7661 31.1825 83.1654 31.411 84.7203C33.1595 84.7203 34.8401 84.7047 36.5201 84.7261C37.5008 84.7386 38.0724 85.2707 38.1094 86.1244C38.1479 87.013 37.5566 87.62 36.5661 87.697C36.3363 87.715 36.1041 87.7044 35.873 87.7044C33.9252 87.7049 31.9773 87.698 30.0294 87.7073C28.6467 87.7137 27.7741 88.4758 27.7709 89.6528C27.7677 90.811 28.6565 91.6067 30.0159 91.6498C30.4776 91.6644 30.9403 91.6533 31.4025 91.6533C40.68 91.6533 49.9573 91.6533 59.2348 91.6533C59.5319 91.6533 59.8298 91.6646 60.1259 91.6472C61.4019 91.5715 62.259 90.7366 62.2296 89.6099C62.1998 88.4689 61.343 87.7105 60.0255 87.7089C54.512 87.7012 48.9983 87.7057 43.4847 87.7049C43.1876 87.7049 42.8881 87.7211 42.5941 87.6898C41.6853 87.5935 41.096 86.9492 41.1372 86.1228C41.1774 85.3192 41.7513 84.7814 42.6411 84.7259C42.9042 84.7095 43.1691 84.7193 43.4332 84.7193C48.1544 84.719 52.8758 84.7193 57.597 84.7193H58.6212C58.8119 82.4827 58.6933 81.7788 57.8048 80.501C53.7125 74.6165 51.7546 68.0852 51.841 60.9247C51.8455 60.5476 51.7995 60.17 51.7768 59.7861H38.1572L38.1569 59.7853ZM54.8266 33.6018C54.8266 34.1749 54.8266 34.6949 54.8266 35.2149C54.8263 39.124 54.0844 39.8472 50.1831 39.7398C48.2912 39.6877 47.189 38.585 47.16 36.6922C47.1444 35.6771 47.1573 34.6618 47.1573 33.6047H42.845C42.845 34.2141 42.8118 34.7698 42.8503 35.3204C43.1086 38.9946 41.6903 39.9242 38.4134 39.7562C36.2959 39.6477 35.217 38.6358 35.1795 36.4855C35.1628 35.5382 35.1766 34.5906 35.1766 33.6237H31.3135C31.3135 36.3763 31.3088 39.0523 31.3154 41.7284C31.3196 43.41 31.9757 44.0692 33.6515 44.0718C37.2816 44.0777 40.9117 44.0702 44.542 44.0758C45.7755 44.0777 46.4651 44.6262 46.4648 45.5738C46.4648 46.5349 45.8053 47.0549 44.5441 47.0578C41.871 47.0644 39.1981 47.0543 36.5249 47.0623C35.0477 47.0668 34.1069 47.8683 34.1082 49.0932C34.1095 50.3266 35.0202 51.0992 36.5312 51.1125C38.2142 51.1273 39.8974 51.1164 41.5804 51.1162C45.5406 51.1162 49.5006 51.1233 53.4608 51.1119C54.9735 51.1077 55.887 50.3313 55.8937 49.1011C55.9003 47.8762 54.9573 47.0747 53.4841 47.0612C52.758 47.0546 52.0319 47.0678 51.3061 47.0578C50.1334 47.0416 49.49 46.5076 49.493 45.5693C49.4961 44.6392 50.1569 44.0845 51.3172 44.0766C53.0332 44.0649 54.7495 44.0819 56.4655 44.0705C58.0003 44.0602 58.6759 43.3703 58.6859 41.8096C58.6957 40.2558 58.6883 38.7022 58.6883 37.1484C58.6883 35.9717 58.6883 34.7952 58.6883 33.6015H54.8269L54.8266 33.6018ZM24.3682 98.5777H65.5586C65.8705 95.7622 65.6371 94.5715 62.2695 94.5966C50.6213 94.6839 38.972 94.6302 27.3232 94.6307C26.9603 94.6307 26.5958 94.6196 26.2348 94.6471C25.1606 94.7292 24.4488 95.4074 24.3769 96.4701C24.3307 97.1533 24.3682 97.8421 24.3682 98.5775V98.5777ZM51.8019 54.1976H38.2248V56.7014H51.8019V54.1976Z" fill="#0075BF"/>
</svg>
