<svg width="80" height="80" fill="none" xmlns="http://www.w3.org/2000/svg"><path d="M27.635 8.836c-.581 0-1.062.006-1.543 0-2.062-.03-3.446-1.405-3.484-3.487-.02-1.097-.012-2.194-.003-3.291C22.618.62 23.231.005 24.67.004 31.225 0 37.78.002 44.335.002c1.812 0 3.623-.006 5.434.003 1.403.007 1.99.595 2.004 2.002.01 1.155.021 2.31-.006 3.464-.047 1.987-1.416 3.327-3.407 3.364-.488.009-.976.001-1.614.001 0 .662.013 1.283-.002 1.903-.045 1.86-.877 3.275-2.494 4.156-.543.297-.695.62-.694 1.205.015 11.461-.007 22.923.032 34.384.005 1.711-.525 3.008-1.929 3.994-.964.676-1.845 1.471-2.78 2.192-1.127.87-2.186.887-3.31.023-1.165-.894-2.304-1.822-3.444-2.747-.942-.765-1.28-1.779-1.28-2.98.014-11.52.002-23.039.024-34.558 0-.754-.122-1.204-.871-1.615-1.58-.868-2.311-2.35-2.361-4.156-.016-.568-.003-1.138-.003-1.8h.001zM48.427 3.41h-22.47c0 .422-.004.791.002 1.16.005.282.025.563.042.942.54 0 1.02-.005 1.5.001 2.036.026 3.404 1.353 3.486 3.392.023.576-.01 1.155.014 1.731.039.96.535 1.54 1.495 1.552a409 409 0 009.399 0c.978-.01 1.496-.623 1.538-1.619.02-.46.003-.923.005-1.385.011-2.33 1.32-3.658 3.62-3.672.448-.002.896 0 1.369 0V3.409zM34.17 38.266c.205-.102.292-.123.348-.177a1848.19 1848.19 0 005.361-5.112c.12-.115.29-.265.292-.402.022-1.324.014-2.65.014-4.179-2.029 1.933-3.882 3.689-5.716 5.464a1.058 1.058 0 00-.286.67c-.028 1.203-.013 2.407-.013 3.736zm0 9.068c2.069-1.967 3.96-3.763 5.847-5.565.078-.074.163-.19.164-.288.01-1.33.007-2.659.007-4.165-2.021 1.92-3.882 3.677-5.723 5.454a1.055 1.055 0 00-.282.671c-.028 1.208-.013 2.416-.013 3.893zm0-17.995c.19-.09.278-.109.333-.16 1.797-1.701 3.592-3.403 5.382-5.11.12-.115.287-.268.29-.406.021-1.331.012-2.663.012-4.175-2.013 1.912-3.873 3.664-5.71 5.442-.177.172-.287.496-.294.753-.03 1.18-.013 2.361-.013 3.656zm6.032 16.869l-5.656 5.393 2.663 2.133c.937-.75 1.796-1.423 2.636-2.12.16-.133.339-.36.342-.545.028-1.544.016-3.088.016-4.86v-.001zm-5.99-25.65l5.157-4.923h-5.157v4.923z" fill="url(#paint0_linear_6_9)"/><path d="M24.161 53.809c-.289.258-.455.41-.625.559-1.67 1.454-3.946 1.398-5.529-.163-.45-.443-.835-.952-1.24-1.44-.488-.588-.956-.547-1.423.02-.33.4-.644.815-.995 1.196-1.79 1.94-4.444 1.917-6.209-.05-.345-.386-.658-.802-.995-1.196-.456-.536-.917-.527-1.367.012-.314.376-.616.762-.938 1.13-.79.907-1.764 1.475-2.983 1.528-.965.042-1.714-.57-1.841-1.463-.124-.873.5-1.518 1.416-1.879.615-.242 1.166-.773 1.618-1.287.873-.992 1.84-1.718 3.213-1.78 1.514-.07 2.638.615 3.57 1.743.956 1.16 1.911 1.165 2.865.017 1.978-2.383 4.719-2.399 6.705-.038.953 1.132 1.925 1.127 2.917-.014.264-.302.564-.574.858-.849.318-.298.914-.573.926-.877.045-1.106.028-2.253-.226-3.321-.172-.726-.994-.83-1.733-.83-6.525.013-13.05.008-19.576.008-.23 0-.46.006-.69-.002-1.128-.043-1.897-.75-1.877-1.72.02-.95.74-1.634 1.854-1.636 6.87-.013 13.74-.043 20.61.013 3.007.024 4.99 2.155 5.037 5.227.032 2.194.029 4.388-.003 6.581-.013.89.309 1.526 1.004 2.071 2.468 1.937 4.907 3.91 7.36 5.867 1.028.82 1.66.83 2.697.003 2.498-1.992 4.98-4.004 7.482-5.99.617-.491.875-1.087.867-1.872a437.142 437.142 0 01-.006-6.667c.013-3.018 2.04-5.206 5.038-5.222 8.71-.048 17.42-.023 26.13-.014 1.17.002 1.916.678 1.928 1.654.012 1.023-.794 1.704-2.064 1.705-8.451.004-16.903.002-25.354.002-1.87 0-2.359.487-2.361 2.347-.002 1.407 0 2.815.167 4.325.242-.29.483-.583.728-.872 1.885-2.227 4.657-2.23 6.548-.008.242.285.47.583.715.866.644.747.996.737 1.648-.036.334-.396.646-.815 1.008-1.184 1.691-1.728 4.132-1.743 5.838-.035.364.366.679.783 1.012 1.18.71.844 1.03.843 1.76-.018.224-.264.433-.54.657-.802 1.862-2.179 4.633-2.178 6.491.002.607.713 1.102 1.495 2.196 1.648.696.097 1.101 1.022.986 1.724a1.685 1.685 0 01-1.694 1.434c-1.259.002-2.263-.57-3.083-1.493-.344-.388-.657-.803-.994-1.197-.427-.498-.873-.511-1.307-.01-.339.393-.652.808-.996 1.195-1.787 2.015-4.444 2.028-6.256.03-.348-.384-.658-.802-.994-1.197-.457-.537-.92-.523-1.369.013-.296.353-.577.72-.88 1.065-1.904 2.17-4.626 2.147-6.484-.052-.28-.33-.548-.668-.824-1-.486-.586-.962-.54-1.427.027-.274.335-.51.712-.832.992-.536.467-1.069 1.065-1.708 1.256-.907.273-1.423.762-1.85 1.568-.27.511-.769.93-1.232 1.306-2.435 1.98-4.89 3.934-7.34 5.894-2.344 1.875-4.63 1.874-6.974.002-2.092-1.67-4.163-3.368-6.281-5.004-1.646-1.27-3.2-2.569-3.29-4.992h.001z" fill="url(#paint1_linear_6_9)"/><path d="M70.007 67.193c2.906.01 5.223 2.369 5.21 5.306-.013 2.913-2.385 5.275-5.28 5.256-2.873-.019-5.26-2.445-5.236-5.325a5.29 5.29 0 015.306-5.237zm-1.943 5.297a1.922 1.922 0 001.942 1.9c1.047-.018 1.915-.915 1.895-1.957-.02-1.04-.927-1.926-1.956-1.91-1.047.018-1.895.905-1.88 1.967z" fill="url(#paint2_linear_6_9)"/><path d="M20.417 60.07a5.24 5.24 0 015.264 5.257c.001 2.902-2.372 5.297-5.252 5.302-2.872.004-5.264-2.399-5.267-5.291a5.249 5.249 0 015.255-5.269zm.014 7.177a1.92 1.92 0 001.922-1.921c-.004-1.042-.895-1.93-1.934-1.927-1.04.002-1.927.894-1.924 1.935.003 1.047.882 1.916 1.936 1.913z" fill="url(#paint3_linear_6_9)"/><path d="M8.01 67.573c2.662.002 4.888 2.247 4.871 4.914-.017 2.68-2.259 4.896-4.918 4.86a4.908 4.908 0 01-4.826-4.864c-.014-2.67 2.209-4.911 4.872-4.91zm1.505 4.914c.01-.867-.647-1.538-1.508-1.538-.83 0-1.474.623-1.502 1.452-.03.866.61 1.556 1.462 1.578a1.481 1.481 0 001.548-1.493z" fill="url(#paint4_linear_6_9)"/><path d="M35.465 77.348c-2.676.012-4.886-2.204-4.879-4.891.008-2.653 2.166-4.845 4.807-4.882 2.657-.038 4.903 2.174 4.928 4.853.026 2.672-2.18 4.908-4.856 4.92zm1.495-4.87a1.495 1.495 0 00-1.52-1.529 1.48 1.48 0 00-1.496 1.46c-.025.864.62 1.552 1.472 1.57a1.49 1.49 0 001.544-1.5z" fill="url(#paint5_linear_6_9)"/><path d="M61.466 63.766c-.071 2.706-2.34 4.883-4.981 4.779-2.695-.106-4.822-2.371-4.734-5.043.087-2.645 2.349-4.809 4.952-4.736 2.706.075 4.834 2.31 4.763 5zm-4.83-1.622a1.504 1.504 0 00-1.537 1.513 1.522 1.522 0 001.547 1.511 1.484 1.484 0 001.481-1.474c.02-.867-.629-1.541-1.49-1.55z" fill="url(#paint6_linear_6_9)"/><path d="M47.526 76.42c-.923-.04-1.6-.782-1.564-1.715.036-.91.795-1.63 1.694-1.606.89.023 1.64.805 1.625 1.69a1.66 1.66 0 01-1.755 1.63z" fill="url(#paint7_linear_6_9)"/><path d="M66.37 60.98a1.659 1.659 0 01-1.665-1.636 1.667 1.667 0 011.71-1.68 1.64 1.64 0 011.612 1.678 1.648 1.648 0 01-1.657 1.637z" fill="url(#paint8_linear_6_9)"/><path d="M11.177 58.365a1.678 1.678 0 011.696 1.611c.03.932-.739 1.712-1.684 1.706a1.63 1.63 0 01-1.643-1.647 1.662 1.662 0 011.63-1.67z" fill="url(#paint9_linear_6_9)"/><path d="M74.047 60.449a1.658 1.658 0 011.667 1.632 1.647 1.647 0 01-1.689 1.688c-.93-.014-1.618-.726-1.611-1.664.007-.924.722-1.65 1.633-1.656z" fill="url(#paint10_linear_6_9)"/><path d="M22.379 76.031c.02-.932.738-1.63 1.664-1.617.91.012 1.64.752 1.636 1.66-.004.93-.814 1.716-1.726 1.675-.91-.04-1.595-.787-1.574-1.718z" fill="url(#paint11_linear_6_9)"/><path d="M55.832 76.203c-.001-.929.706-1.668 1.612-1.686.917-.017 1.717.793 1.692 1.714-.024.897-.792 1.646-1.68 1.637-.92-.01-1.622-.73-1.624-1.665z" fill="url(#paint12_linear_6_9)"/><path d="M46.991 63.826a1.655 1.655 0 011.64 1.659c.003.945-.783 1.723-1.706 1.689-.906-.034-1.604-.785-1.59-1.71.016-.925.743-1.644 1.656-1.638z" fill="url(#paint13_linear_6_9)"/><path d="M15.516 76.664c.916.007 1.65.739 1.653 1.648.002.889-.754 1.668-1.637 1.688-.917.02-1.715-.787-1.692-1.712a1.651 1.651 0 011.676-1.624z" fill="url(#paint14_linear_6_9)"/><path d="M4.505 62.24a1.618 1.618 0 01-1.675-1.61c-.024-.941.746-1.736 1.67-1.723.885.011 1.65.786 1.65 1.67 0 .902-.738 1.647-1.645 1.662z" fill="url(#paint15_linear_6_9)"/><defs><linearGradient id="paint0_linear_6_9" x1="22.595" y1="57.332" x2="59.638" y2="51.705" gradientUnits="userSpaceOnUse"><stop stop-color="#0075BF"/><stop offset="1" stop-color="#005CA9"/></linearGradient><linearGradient id="paint1_linear_6_9" x1="0" y1="65.209" x2="51.68" y2="13.275" gradientUnits="userSpaceOnUse"><stop stop-color="#0075BF"/><stop offset="1" stop-color="#005CA9"/></linearGradient><linearGradient id="paint2_linear_6_9" x1="64.701" y1="77.755" x2="77.248" y2="74.028" gradientUnits="userSpaceOnUse"><stop stop-color="#0075BF"/><stop offset="1" stop-color="#005CA9"/></linearGradient><linearGradient id="paint3_linear_6_9" x1="15.162" y1="70.629" x2="27.711" y2="66.899" gradientUnits="userSpaceOnUse"><stop stop-color="#0075BF"/><stop offset="1" stop-color="#005CA9"/></linearGradient><linearGradient id="paint4_linear_6_9" x1="3.137" y1="77.348" x2="14.76" y2="73.89" gradientUnits="userSpaceOnUse"><stop stop-color="#0075BF"/><stop offset="1" stop-color="#005CA9"/></linearGradient><linearGradient id="paint5_linear_6_9" x1="30.586" y1="77.348" x2="42.2" y2="73.897" gradientUnits="userSpaceOnUse"><stop stop-color="#0075BF"/><stop offset="1" stop-color="#005CA9"/></linearGradient><linearGradient id="paint6_linear_6_9" x1="51.748" y1="68.549" x2="63.349" y2="65.11" gradientUnits="userSpaceOnUse"><stop stop-color="#0075BF"/><stop offset="1" stop-color="#005CA9"/></linearGradient><linearGradient id="paint7_linear_6_9" x1="45.961" y1="76.422" x2="49.92" y2="75.242" gradientUnits="userSpaceOnUse"><stop stop-color="#0075BF"/><stop offset="1" stop-color="#005CA9"/></linearGradient><linearGradient id="paint8_linear_6_9" x1="64.705" y1="60.979" x2="68.665" y2="59.795" gradientUnits="userSpaceOnUse"><stop stop-color="#0075BF"/><stop offset="1" stop-color="#005CA9"/></linearGradient><linearGradient id="paint9_linear_6_9" x1="9.546" y1="61.682" x2="13.511" y2="60.496" gradientUnits="userSpaceOnUse"><stop stop-color="#0075BF"/><stop offset="1" stop-color="#005CA9"/></linearGradient><linearGradient id="paint10_linear_6_9" x1="72.414" y1="63.77" x2="76.353" y2="62.602" gradientUnits="userSpaceOnUse"><stop stop-color="#0075BF"/><stop offset="1" stop-color="#005CA9"/></linearGradient><linearGradient id="paint11_linear_6_9" x1="22.378" y1="77.751" x2="26.32" y2="76.588" gradientUnits="userSpaceOnUse"><stop stop-color="#0075BF"/><stop offset="1" stop-color="#005CA9"/></linearGradient><linearGradient id="paint12_linear_6_9" x1="55.832" y1="77.868" x2="59.781" y2="76.707" gradientUnits="userSpaceOnUse"><stop stop-color="#0075BF"/><stop offset="1" stop-color="#005CA9"/></linearGradient><linearGradient id="paint13_linear_6_9" x1="45.335" y1="67.175" x2="49.275" y2="66.017" gradientUnits="userSpaceOnUse"><stop stop-color="#0075BF"/><stop offset="1" stop-color="#005CA9"/></linearGradient><linearGradient id="paint14_linear_6_9" x1="13.84" y1="80" x2="17.81" y2="78.818" gradientUnits="userSpaceOnUse"><stop stop-color="#0075BF"/><stop offset="1" stop-color="#005CA9"/></linearGradient><linearGradient id="paint15_linear_6_9" x1="2.829" y1="62.24" x2="6.79" y2="61.062" gradientUnits="userSpaceOnUse"><stop stop-color="#0075BF"/><stop offset="1" stop-color="#005CA9"/></linearGradient></defs></svg>