<svg width="80" height="79" fill="none" xmlns="http://www.w3.org/2000/svg"><path d="M3.337 75.21c0-2.285.012-4.411-.02-6.536-.003-.214-.228-.52-.43-.619-1.784-.87-2.87-2.242-2.871-4.25-.002-2.058 1.028-3.526 2.913-4.4.194-.09.39-.424.391-.647a345.03 345.03 0 00-.008-8.451c-.004-.267-.324-.633-.591-.774-1.696-.896-2.707-2.25-2.708-4.182 0-1.987.989-3.416 2.761-4.335.257-.133.536-.524.54-.8.04-2.759.012-5.52.035-8.279.004-.485-.19-.693-.604-.894C.988 30.19-.012 28.776.014 26.808c.025-1.915.972-3.348 2.713-4.164.524-.246.624-.55.62-1.057-.019-2.386.017-4.773-.016-7.158-.023-1.64.495-2.92 2.063-3.647.164-.076.346-.331.349-.505.025-1.807.015-3.615.015-5.452-.382-.035-.696-.04-1.001-.096-.87-.161-1.424-.853-1.393-1.706.03-.865.616-1.55 1.525-1.559 3.133-.03 6.269-.076 9.398.039 1.946.07 3.387 1.818 3.428 3.883.034 1.662.007 3.326.007 5.049h9.517V5.977c.002-3.037 1.512-4.546 4.56-4.547 6.756-.002 13.513-.001 20.27-.001.144 0 .288-.002.431.001 1.244.026 1.99.65 1.987 1.664-.003.978-.715 1.605-1.905 1.675-.14.008-.28.02-.51.037 0 1.85-.013 3.684.02 5.516.004.174.263.404.457.505 1.338.696 1.952 1.795 1.946 3.287-.011 2.472.01 4.945-.013 7.417-.006.572.118.89.702 1.166 1.633.776 2.53 2.129 2.612 3.954.084 1.869-.712 3.336-2.345 4.189-.803.419-1.075.885-.966 1.71.04.308.007.625.007 1.004h7.092v-.913c0-4.226-.003-8.452.001-12.678.002-2.44 1.347-3.777 3.791-3.783 1.122-.002 2.243-.007 3.365.001 2.19.016 3.561 1.353 3.57 3.548.02 4.34.021 8.682-.007 13.023-.005.67.165.92.864 1.043 2.077.366 3.694 2.16 3.948 4.255.062.512.076 1.032.077 1.548.004 11.47.003 22.941.003 34.412v1.191c.47 0 .839-.03 1.201.006.92.09 1.58.774 1.602 1.624.023.85-.605 1.552-1.53 1.681-.311.044-.63.038-.946.038-25.015.002-50.03.002-75.046 0-.344 0-.693.001-1.03-.054-.874-.143-1.468-.845-1.446-1.664a1.67 1.67 0 011.516-1.61c.563-.059 1.136-.011 1.82-.011zm47.839-.07v-.973c0-2.385-.01-4.77.005-7.156.007-1.184.511-1.72 1.683-1.868.17-.022.343-.042.506-.091.706-.213 1.185-.643 1.095-1.43-.087-.755-.579-1.147-1.336-1.22-1.527-.147-1.95-.604-1.951-2.123-.005-3.822-.005-7.645 0-11.467.001-1.478.388-1.91 1.871-2.13.87-.127 1.426-.65 1.431-1.346.006-.695-.56-1.248-1.405-1.374-1.55-.23-1.896-.623-1.898-2.184-.003-3.707-.001-7.414 0-11.12 0-1.861.194-2.098 1.996-2.45.81-.158 1.329-.695 1.317-1.362-.014-.734-.56-1.25-1.416-1.34-1.467-.154-1.893-.615-1.896-2.088-.005-2.644-.002-5.288-.002-7.932v-1.583H30.63V75.14h20.547zm3.36-34.375c.038.03.077.079.127.1 1.934.803 3.065 2.215 3.116 4.337.051 2.117-.993 3.584-2.89 4.493-.19.09-.378.418-.38.638-.024 2.959-.016 5.918-.016 8.85.082.062.121.108.172.129 1.894.786 3.043 2.154 3.13 4.24.089 2.17-.997 3.638-2.924 4.55-.166.079-.359.32-.36.488-.025 2.175-.017 4.35-.017 6.543h19.314c.013-.279.032-.504.032-.728.002-11.756.003-23.512 0-35.268 0-1.548-.595-2.152-2.128-2.154-5.462-.006-10.924-.003-16.386 0-.25 0-.5.029-.79.047v3.735zM6.686 13.896v1.039c0 2.873.007 5.746-.004 8.62-.005 1.265-.56 1.846-1.793 1.947-.96.079-1.498.537-1.53 1.304-.032.758.503 1.292 1.427 1.425 1.415.205 1.897.744 1.898 2.157.004 3.821.005 7.643 0 11.464-.002 1.442-.492 1.972-1.907 2.1-1.096.1-1.808 1.067-1.28 1.893.264.41.878.716 1.385.823 1.168.248 1.794.802 1.798 1.934.013 3.994.016 7.988-.003 11.982-.005 1.13-.628 1.732-1.755 1.815-1.01.075-1.552.544-1.565 1.352-.011.762.51 1.26 1.46 1.392 1.345.188 1.864.763 1.867 2.103.006 2.328.002 4.656.002 6.983v.91h7.627V13.896H6.686zm20.522 27.732h-9.45v5.78h9.45v-5.78zm-9.425 18.45v5.834h9.404v-5.834h-9.405zm47.21-40.504v13.974h3.968V19.574h-3.968zm-37.78-5.66h-9.428v5.792h9.427v-5.792zm-.004 9.222h-9.426v5.779h9.426v-5.78zm-9.454 15.043h9.428v-5.777h-9.428v5.777zm9.454 12.701h-9.42v5.766h9.42V50.88zm-.001 18.466h-9.43v5.789h9.43v-5.79zM40.103 4.772c-2.981 0-5.906-.014-8.83.027-.233.003-.654.377-.66.59-.056 1.682-.031 3.366-.031 5.057h9.52V4.772zm3.409.044v5.612h5.158V4.816h-5.158zm-29.14 5.64c0-1.694.027-3.297-.028-4.898-.01-.267-.37-.738-.583-.747-1.533-.065-3.07-.034-4.602-.034v5.68h5.212z" fill="url(#paint0_linear_1_21)"/><path d="M67.039 4.178c-1.256 1.527-2.39 2.973-3.004 4.722-.365 1.044.083 1.96.82 2.742.574.609.71 1.316.28 2.052-.39.667-1.02.93-1.766.751a1.871 1.871 0 01-.879-.49c-1.72-1.8-2.432-3.901-1.54-6.308C61.975 4.879 63.836 2.639 65.805.5c.622-.675 1.696-.665 2.324.013 1.94 2.09 3.748 4.296 4.792 6.988.937 2.418.304 4.566-1.437 6.412-.7.742-1.712.783-2.388.168-.691-.628-.719-1.595-.067-2.391 1.204-1.472 1.318-2.256.365-3.899-.702-1.211-1.526-2.352-2.355-3.614z" fill="url(#paint1_linear_1_21)"/><path d="M67.137 50.6v-6.147c-1.563 0-3.078.024-4.593-.007-1.255-.027-2.037-1.162-1.582-2.261.293-.712.854-1.044 1.628-1.04 1.552.008 3.103-.02 4.654.01 1.82.034 3.215 1.386 3.261 3.225a116.23 116.23 0 01-.002 6.204c-.052 1.83-1.468 3.177-3.288 3.2-2.04.024-4.082.05-6.119-.024-.622-.023-1.296-.275-1.834-.606-.684-.422-.822-1.165-.518-1.908.305-.748.914-1.063 1.72-1.017 2.196.126 4.392.245 6.673.371z" fill="url(#paint2_linear_1_21)"/><path d="M67.135 67.719v-6.02c-1.434 0-2.831 0-4.229-.002-.344 0-.693.02-1.032-.026-.885-.121-1.526-.892-1.476-1.731.05-.84.675-1.524 1.558-1.542 1.865-.036 3.735-.065 5.597.019 1.626.073 2.905 1.463 2.95 3.158.055 2.066.055 4.135.003 6.202-.046 1.866-1.465 3.222-3.336 3.247-1.952.026-3.905.019-5.858.002-1.191-.01-1.973-.735-1.93-1.731.042-.995.771-1.578 1.963-1.577 1.894.002 3.788 0 5.79 0z" fill="url(#paint3_linear_1_21)"/><defs><linearGradient id="paint0_linear_1_21" x1="0" y1="78.552" x2="94.789" y2="49.216" gradientUnits="userSpaceOnUse"><stop stop-color="#0075BF"/><stop offset="1" stop-color="#005CA9"/></linearGradient><linearGradient id="paint1_linear_1_21" x1="60.564" y1="14.51" x2="76.095" y2="10.425" gradientUnits="userSpaceOnUse"><stop stop-color="#0075BF"/><stop offset="1" stop-color="#005CA9"/></linearGradient><linearGradient id="paint2_linear_1_21" x1="58.591" y1="53.809" x2="72.972" y2="49.76" gradientUnits="userSpaceOnUse"><stop stop-color="#0075BF"/><stop offset="1" stop-color="#005CA9"/></linearGradient><linearGradient id="paint3_linear_1_21" x1="59.38" y1="71.041" x2="72.94" y2="67.479" gradientUnits="userSpaceOnUse"><stop stop-color="#0075BF"/><stop offset="1" stop-color="#005CA9"/></linearGradient></defs></svg>