<svg width="80" height="81" fill="none" xmlns="http://www.w3.org/2000/svg"><path d="M77.74 76.625c.316.032.545.045.771.078.876.128 1.485.797 1.489 1.625.003.786-.57 1.484-1.386 1.64-.307.058-.63.047-.945.047l-75.287.001C.5 80.016.001 79.506 0 77.592V62.587c0-2.61.815-3.626 3.422-4.197 0-1.965.014-3.945-.02-5.924-.005-.204-.26-.482-.469-.592C1.031 50.869-.032 49.312.026 47.16c.058-2.15 1.2-3.646 3.147-4.561.252-.119.492-.468.556-.751 1.031-4.54 3.677-7.775 7.862-9.755.513-.243.63-.534.626-1.05-.024-2.443-.015-4.887-.01-7.33.013-6.125 4.207-10.34 10.34-10.381 2.615-.018 5.232-.003 7.847-.003h1.007c.041-.493.094-.912.11-1.334.085-2.413.16-4.826.242-7.239.105-3.1 1.807-4.751 4.896-4.754 1.667-.001 3.335-.004 5.002 0 2.807.01 4.58 1.702 4.695 4.517.105 2.555.172 5.113.26 7.67.012.341.048.682.081 1.14.38 0 .715-.002 1.05 0 3.275.02 6.559-.087 9.826.094 5.11.282 9.077 4.55 9.155 9.678.044 2.874.02 5.75 0 8.623-.003.502.113.818.558 1.125 1.137.782 1.704 1.915 1.714 3.303.01 1.495.023 2.99-.007 4.484-.01.492.155.75.584 1.003 6.121 3.616 9.184 9.002 8.487 16.08-.607 6.15-.156 12.284-.365 18.421-.005.138.028.277.05.485h.001zm-43.287-53.1c-.035.478-.08.903-.096 1.33-.081 2.24-.152 4.48-.234 6.72-.025.689-.043 1.38-.118 2.065-.102.93-.803 1.548-1.665 1.532-.896-.017-1.593-.714-1.629-1.675-.019-.515.027-1.033.047-1.55.095-2.527.192-5.054.285-7.581.01-.274.002-.547.002-.828h-8.688c0 2.668-.016 5.28.028 7.889.004.227.362.53.623.657 4.041 1.969 6.67 5.084 7.71 9.479.143.607.381.952.973 1.237 3.315 1.6 3.913 6.256.911 8.331-1.356.938-1.625 1.898-1.492 3.285.038.399.005.805.005 1.207v2.817c.338.015.537.03.737.032 5.227.057 8.446 3.32 8.45 8.567.002 2.874 0 5.748 0 8.623v.94h5.19c.042-.13.077-.184.075-.237-.17-6.137.393-12.283-.348-18.417-.797-6.607 2.564-13.024 8.384-16.246.455-.251.75-.481.726-1.095-.059-1.492-.027-2.989-.014-4.483.011-1.39.585-2.516 1.732-3.289.42-.282.544-.575.54-1.048-.02-2.184-.01-4.368-.01-6.552v-1.688H47.13c0 1.042-.027 2.018.005 2.992.154 4.797.328 9.593.482 14.39.012.393-.007.816-.138 1.18-.264.727-1.089 1.123-1.825.96-.836-.184-1.303-.829-1.338-1.86-.182-5.37-.362-10.741-.546-16.112-.017-.511-.06-1.021-.093-1.571h-9.224zm27.182 19.398c-7.305.005-13.18 5.894-13.189 13.221-.009 7.246 5.973 13.186 13.262 13.169 7.186-.017 13.143-5.956 13.15-13.112.008-7.37-5.88-13.282-13.223-13.278zM3.385 76.617h33.557v-.995c0-2.902-.093-5.807.025-8.703.123-2.996-1.962-5.162-5.128-5.14-9.164.064-18.328.022-27.492.024-.306 0-.612.026-.962.042v14.772zm12.218-45.76h3.391c0-2.424-.005-4.803.002-7.183.007-2.289 1.23-3.508 3.518-3.508 11.298-.002 22.596-.002 33.894 0 2.309 0 3.493 1.185 3.502 3.51.01 2.473 0 4.946.005 7.418 0 .304.029.609.044.904h3.356c.03-.16.068-.27.068-.38.001-2.817.077-5.637-.023-8.451-.136-3.852-2.89-6.444-6.744-6.473-2.587-.02-5.175-.004-7.762-.004-8.854 0-17.709-.012-26.563.006-3.525.007-6.29 2.189-6.63 5.622-.28 2.81-.058 5.668-.058 8.539zM6.8 52.417v5.987h20.914v-5.987H6.8zM27.381 42.2c-.603-4.343-5.376-8.07-10.173-8.019-4.798.052-9.557 3.838-10.042 8.019H27.38zM17.29 49.01c3.938 0 7.877.02 11.815-.023.53-.005 1.146-.201 1.562-.52.555-.425.675-1.113.386-1.803-.312-.747-.897-1.11-1.687-1.11-8.078-.006-16.157-.006-24.235.007-.301 0-.63.1-.899.243-.648.346-.914.932-.854 1.655.062.736.48 1.232 1.159 1.462.315.106.68.086 1.024.086 3.91.005 7.82.003 11.729.003zm57.014 27.61v-9.81c-1.708 1.872-3.575 3.312-5.75 4.336-.123.058-.256.255-.257.388-.018 1.685-.012 3.37-.012 5.087h6.02-.001zm-19.281.017c0-1.725.02-3.36-.025-4.992-.006-.219-.305-.51-.539-.63-1.884-.961-3.566-2.185-5.01-3.734-.119-.127-.273-.22-.437-.349v9.705h6.01zm2.605-36.577c2.71-.632 5.348-.582 8.052-.024 0-1.319.007-2.522-.002-3.726-.005-.586-.31-.91-.908-.914-2.069-.01-4.138-.017-6.207-.02-.534 0-.914.246-.926.802-.028 1.259-.01 2.519-.01 3.882zM43.105 6.98c-.045-.922-.095-1.75-.124-2.579-.026-.714-.423-1.047-1.096-1.052-1.895-.012-3.791-.035-5.684.027-.344.011-.922.36-.97.63-.172.964-.165 1.962-.227 2.974h8.1zm21.758 69.646v-4.11H58.43v4.11h6.434zm-29.969-66.23v2.863h8.31v-2.92c-2.67 0-5.248 0-7.827.003-.137 0-.273.03-.482.055z" fill="url(#paint0_linear_1_26)"/><path d="M71.49 55.596c.039 1.013-.59 1.777-1.519 1.845-.984.07-1.719-.554-1.804-1.657-.104-1.356-.519-2.58-1.341-3.654-.96-1.253-2.227-2.05-3.765-2.395-.7-.156-1.224-.504-1.443-1.199-.388-1.23.699-2.345 2.02-2.092 4.32.827 7.687 4.75 7.853 9.152z" fill="url(#paint1_linear_1_26)"/><path d="M20.07 70.292c.927-.021 1.793.819 1.79 1.735-.004.876-.826 1.715-1.708 1.743-.916.03-1.771-.814-1.773-1.747 0-.907.783-1.71 1.69-1.73z" fill="url(#paint2_linear_1_26)"/><path d="M8.352 68.18c-.935.005-1.781-.842-1.758-1.758.022-.879.86-1.706 1.737-1.714.915-.009 1.768.858 1.75 1.778-.019.905-.82 1.69-1.729 1.694z" fill="url(#paint3_linear_1_26)"/><path d="M14.19 68.179c-.906-.018-1.703-.82-1.706-1.718-.003-.915.87-1.776 1.779-1.751.884.023 1.704.856 1.71 1.736.007.924-.845 1.751-1.782 1.733z" fill="url(#paint4_linear_1_26)"/><path d="M27.74 66.474c-.012.93-.869 1.737-1.809 1.705a1.743 1.743 0 01-1.663-1.743c.01-.896.815-1.713 1.703-1.727.908-.015 1.781.856 1.769 1.765z" fill="url(#paint5_linear_1_26)"/><path d="M31.911 68.177a1.738 1.738 0 01-1.76-1.643c-.04-.933.764-1.8 1.69-1.825.91-.024 1.78.834 1.776 1.754-.004.903-.792 1.696-1.706 1.714z" fill="url(#paint6_linear_1_26)"/><path d="M8.318 73.772c-.914-.018-1.765-.912-1.723-1.812.04-.894.873-1.68 1.768-1.668.939.011 1.755.87 1.713 1.799-.042.897-.878 1.698-1.758 1.68z" fill="url(#paint7_linear_1_26)"/><path d="M14.232 73.773c-.914.003-1.768-.868-1.747-1.785.02-.894.838-1.695 1.736-1.698.894-.003 1.723.795 1.752 1.687.03.907-.829 1.792-1.741 1.796z" fill="url(#paint8_linear_1_26)"/><path d="M31.905 73.77c-.884.02-1.717-.774-1.753-1.673-.039-.954.744-1.787 1.694-1.803.908-.015 1.727.751 1.77 1.657.042.916-.785 1.796-1.71 1.818z" fill="url(#paint9_linear_1_26)"/><path d="M25.967 70.293c.934-.014 1.785.825 1.773 1.748-.012.88-.837 1.71-1.72 1.73-.917.02-1.76-.827-1.754-1.763.006-.912.79-1.702 1.701-1.715z" fill="url(#paint10_linear_1_26)"/><path d="M20.217 64.713c.932.075 1.729.997 1.632 1.889-.099.913-.933 1.624-1.845 1.572a1.736 1.736 0 01-1.614-1.869c.077-.89.961-1.66 1.827-1.592z" fill="url(#paint11_linear_1_26)"/><defs><linearGradient id="paint0_linear_1_26" x1="0" y1="80.016" x2="95.381" y2="51.565" gradientUnits="userSpaceOnUse"><stop stop-color="#0075BF"/><stop offset="1" stop-color="#005CA9"/></linearGradient><linearGradient id="paint1_linear_1_26" x1="61.539" y1="57.446" x2="73.59" y2="54.204" gradientUnits="userSpaceOnUse"><stop stop-color="#0075BF"/><stop offset="1" stop-color="#005CA9"/></linearGradient><linearGradient id="paint2_linear_1_26" x1="18.38" y1="73.771" x2="22.528" y2="72.532" gradientUnits="userSpaceOnUse"><stop stop-color="#0075BF"/><stop offset="1" stop-color="#005CA9"/></linearGradient><linearGradient id="paint3_linear_1_26" x1="6.594" y1="68.18" x2="10.748" y2="66.936" gradientUnits="userSpaceOnUse"><stop stop-color="#0075BF"/><stop offset="1" stop-color="#005CA9"/></linearGradient><linearGradient id="paint4_linear_1_26" x1="12.484" y1="68.18" x2="16.64" y2="66.933" gradientUnits="userSpaceOnUse"><stop stop-color="#0075BF"/><stop offset="1" stop-color="#005CA9"/></linearGradient><linearGradient id="paint5_linear_1_26" x1="24.268" y1="68.18" x2="28.407" y2="66.944" gradientUnits="userSpaceOnUse"><stop stop-color="#0075BF"/><stop offset="1" stop-color="#005CA9"/></linearGradient><linearGradient id="paint6_linear_1_26" x1="30.15" y1="68.178" x2="34.284" y2="66.945" gradientUnits="userSpaceOnUse"><stop stop-color="#0075BF"/><stop offset="1" stop-color="#005CA9"/></linearGradient><linearGradient id="paint7_linear_1_26" x1="6.593" y1="73.772" x2="10.746" y2="72.531" gradientUnits="userSpaceOnUse"><stop stop-color="#0075BF"/><stop offset="1" stop-color="#005CA9"/></linearGradient><linearGradient id="paint8_linear_1_26" x1="12.484" y1="73.773" x2="16.643" y2="72.529" gradientUnits="userSpaceOnUse"><stop stop-color="#0075BF"/><stop offset="1" stop-color="#005CA9"/></linearGradient><linearGradient id="paint9_linear_1_26" x1="30.15" y1="73.77" x2="34.285" y2="72.54" gradientUnits="userSpaceOnUse"><stop stop-color="#0075BF"/><stop offset="1" stop-color="#005CA9"/></linearGradient><linearGradient id="paint10_linear_1_26" x1="24.266" y1="73.77" x2="28.408" y2="72.536" gradientUnits="userSpaceOnUse"><stop stop-color="#0075BF"/><stop offset="1" stop-color="#005CA9"/></linearGradient><linearGradient id="paint11_linear_1_26" x1="18.384" y1="68.176" x2="22.524" y2="66.939" gradientUnits="userSpaceOnUse"><stop stop-color="#0075BF"/><stop offset="1" stop-color="#005CA9"/></linearGradient></defs></svg>