<svg width="80" height="80" fill="none" xmlns="http://www.w3.org/2000/svg"><path d="M28.39 63.22c-1.641 0-3.194.002-4.746 0-4.14-.006-6.863-2.728-6.866-6.868-.003-3.897 0-7.794 0-11.691v-.668c-1.092-.645-2.14-1.105-2.99-1.803-1.465-1.202-2.151-2.855-2.167-4.755-.018-2.23.012-4.462-.021-6.692a1.93 1.93 0 00-.375-1.08c-1.383-1.783-2.833-3.516-4.198-5.312-.314-.413-.506-1-.547-1.524-.083-1.069-.032-2.149-.022-3.224.01-1.06.47-1.526 1.52-1.537 1.18-.011 2.362-.002 3.587-.002.206-1.542 1.072-2.424 2.621-2.628 0-1.373.048-2.716-.014-4.055-.058-1.25-1.116-2.248-2.368-2.337-.454-.032-.911-.005-1.356-.005-.596 1.267-.828 1.385-2.262 1.148-2.278-.376-4.555-.753-6.832-1.139C.36 8.88.012 8.476.007 7.481a383.6 383.6 0 010-4.676c.007-.954.364-1.365 1.304-1.523C3.64.889 5.97.507 8.3.114 9.59-.104 9.918.067 10.357 1.15c1.646.153 3.283.129 4.833.483 3.841.877 6.624 4.411 6.73 8.35.048 1.797.008 3.597.008 5.38 2.122.655 2.59 1.294 2.59 3.481v17.819c0 3.802-1.485 5.872-5.128 7.102-.01.217-.03.452-.03.688-.003 4.005-.006 8.01 0 12.014.003 2.566 1.609 4.163 4.182 4.17 1.582.005 3.163.001 4.847.001V14.74c0-2.912 1.506-4.418 4.419-4.419 3.548 0 7.095-.022 10.642.02.669.008.912-.223 1.125-.811 1.006-2.775 2.06-5.532 3.101-8.293.4-1.058.661-1.236 1.79-1.237H58.9c1.158.001 1.418.182 1.835 1.293 1.048 2.788 2.108 5.57 3.12 8.37.191.527.44.675.98.671 3.656-.025 7.311-.016 10.966-.011 2.58.003 4.195 1.597 4.195 4.158.003 17.873 0 35.745.004 53.618 0 1.83-.795 3.116-2.474 3.882-.264.12-.506.454-.607.742-.7 2-1.358 4.015-2.035 6.023-.346 1.024-.643 1.241-1.692 1.244-1.505.005-3.01-.016-4.515.009-.848.014-1.346-.346-1.606-1.156-.64-1.993-1.336-3.967-1.968-5.962-.16-.504-.401-.643-.912-.642-6.666.017-13.331.017-19.996 0-.512-.001-.753.14-.912.643-.624 1.97-1.293 3.924-1.952 5.882-.339 1.006-.645 1.224-1.703 1.227a753.51 753.51 0 01-4.435 0c-1.049-.004-1.346-.22-1.692-1.245-.669-1.982-1.31-3.975-2.015-5.945-.124-.345-.452-.702-.78-.874-1.468-.766-2.289-1.921-2.311-3.587-.023-1.665-.005-3.33-.005-5.12v-.001zm2.58 0v4.547c0 1.542.357 1.904 1.886 1.904h42.65c1.547 0 1.911-.358 1.911-1.88V14.743c0-1.468-.379-1.84-1.87-1.84h-42.73c-1.475 0-1.847.375-1.847 1.862v45.828h2.741c.117-.286.21-.536.32-.779a5.119 5.119 0 017.057-2.455c2.66 1.388 3.595 4.71 2.008 7.255-1.09 1.746-2.716 2.598-4.757 2.448-2.08-.153-3.526-1.29-4.399-3.185-.12-.261-.401-.6-.638-.627-.739-.081-1.492-.03-2.332-.03zM14.252 18.1v17.962h7.645V18.1h-7.645zm32.793-7.822h14.3c-.947-2.52-1.86-4.975-2.806-7.417-.057-.145-.373-.267-.57-.268a360.198 360.198 0 00-7.565.01c-.226.004-.556.27-.653.494-.39.909-.708 1.85-1.055 2.778l-1.65 4.403zm-27.687 5.185c0-.493.012-.991-.002-1.488-.049-1.689.157-3.437-.213-5.053-.951-4.16-4.457-5.584-8.75-4.942v2.317c1.084.177 2.127.211 3.073.53 1.979.665 3.267 2.588 3.304 4.707.023 1.304.005 2.608.005 3.929h2.583zm21.415 56.815h-6.701c.298.905.568 1.768.865 2.62.29.83.382 1.973.974 2.386.602.42 1.708.115 2.593.127.08.002.175.026.239-.007.15-.079.369-.157.413-.286.549-1.59 1.071-3.191 1.617-4.84zm26.838 0c.546 1.647 1.065 3.25 1.625 4.836.052.147.366.276.564.284.778.033 1.559.033 2.336 0 .198-.008.51-.14.562-.289.558-1.585 1.075-3.185 1.62-4.832h-6.707zM2.612 6.651l5.094.84V2.829l-5.094.85v2.973zM38.68 63.22h-2.1c.7 1.12 1.779 1.52 2.895 1.16a2.583 2.583 0 001.809-2.648c-.088-1.168-1.022-2.175-2.187-2.358-1.039-.162-2.063.352-2.446 1.285h2.028v2.56zM14.556 38.749c.452 1.577 2.082 2.651 3.784 2.529 1.548-.112 3.016-1.277 3.195-2.53h-6.979zm-3.001-12.837v-5.23H8.94c.108.823.007 1.705.358 2.335.563 1.013 1.425 1.86 2.256 2.895zm49.17 17.955h12.338c1.371.001 1.773.403 1.773 1.775.002 6.558.002 13.116 0 19.675 0 1.37-.404 1.772-1.776 1.773H48.224c-1.37 0-1.77-.402-1.771-1.776-.002-6.558-.002-13.116 0-19.675 0-1.373.4-1.771 1.774-1.772h12.498zm11.493 2.635H49.096v2.486h23.122v-2.486zm0 5.16H49.096v2.487h23.122v-2.487zm.002 5.163H49.099v2.482H72.22v-2.482zm0 5.16H49.097v2.484h23.121v-2.484zm-6.421-20.701c-4.963-.004-9.026-4.072-9.023-9.036.004-4.966 4.07-9.025 9.036-9.022 4.968.004 9.025 4.066 9.022 9.035-.003 4.966-4.069 9.026-9.035 9.023zm-.046-2.58c3.56.023 6.488-2.867 6.5-6.418.013-3.529-2.843-6.44-6.356-6.48-3.567-.038-6.51 2.83-6.54 6.376-.03 3.563 2.848 6.498 6.396 6.521zm-24.463.002c-2.043 0-4.085.005-6.128-.002-1.157-.004-1.607-.454-1.61-1.612-.006-2.365-.006-4.73 0-7.096.003-1.158.452-1.608 1.611-1.61 4.085-.005 8.17-.005 12.256 0 1.157.002 1.609.454 1.612 1.611.006 2.365.006 4.73 0 7.096-.004 1.156-.456 1.607-1.613 1.61-2.043.008-4.085.003-6.128.003zm-5.107-7.7v5.06h10.23v-5.06h-10.23zm5.051-5.202c-1.989 0-3.977.002-5.966 0-1.28-.003-1.714-.422-1.716-1.67-.005-2.338-.006-4.676 0-7.015.003-1.2.446-1.634 1.666-1.635 4.06-.004 8.117-.004 12.176 0 1.2.002 1.635.448 1.637 1.667.005 2.338.006 4.677 0 7.015-.003 1.197-.45 1.634-1.669 1.637-2.042.004-4.085.001-6.128.001zm5.172-2.619v-5.07H36.19v5.07h10.215zM38.778 43.87c2.838.029 5.128 2.388 5.09 5.245-.037 2.834-2.41 5.119-5.265 5.071-2.799-.047-5.07-2.388-5.05-5.206.02-2.84 2.371-5.14 5.225-5.11zm-.04 2.58a2.592 2.592 0 00-2.605 2.53c-.024 1.4 1.112 2.59 2.509 2.626 1.43.037 2.642-1.14 2.646-2.57a2.599 2.599 0 00-2.55-2.585zm20.555-30.925h-2.47v2.509h2.47v-2.51zm5.16 0h-2.47v2.509h2.47v-2.51zm5.161 0h-2.47v2.509h2.47v-2.51zm2.707 2.496h2.467v-2.508H72.32v2.508zM16.816 23.18h2.49v-2.504h-2.49v2.504zm52.857 9.046c.014 2.14-1.74 3.904-3.88 3.898-2.104-.005-3.842-1.735-3.855-3.84a3.882 3.882 0 013.879-3.896c2.107.005 3.842 1.732 3.856 3.838zm-3.836-1.254a1.297 1.297 0 00-1.315 1.252 1.298 1.298 0 001.251 1.316 1.3 1.3 0 001.316-1.252 1.3 1.3 0 00-1.252-1.316z" fill="url(#paint0_linear_7_3)"/><defs><linearGradient id="paint0_linear_7_3" x1="0" y1="80" x2="95.378" y2="51.544" gradientUnits="userSpaceOnUse"><stop stop-color="#0075BF"/><stop offset="1" stop-color="#005CA9"/></linearGradient></defs></svg>