<svg width="80" height="81" fill="none" xmlns="http://www.w3.org/2000/svg"><path d="M63.583 10.84c1.29-3.232 2.481-6.323 3.76-9.377C67.925.074 68.467-.12 69.93.053c2.286.273 4.575.519 6.865.76.95.101 1.467.62 1.698 1.54 2.765 11.005 1.745 21.623-3.2 31.84-.755 1.557-1.005 1.672-2.77 1.513-.173-.016-.349-.003-.58-.003v20.943c.234.023.485.054.738.074 2.05.161 3.79 1.786 3.852 3.862.094 3.09.097 6.186 0 9.275-.067 2.113-1.842 3.766-3.95 3.843-1.622.059-3.25.06-4.871-.002-2.162-.084-3.92-1.869-3.955-4.043a291.18 291.18 0 01-.003-8.832c.031-2.182 1.753-3.94 3.912-4.103.203-.015.408-.025.694-.043v-21.37c-.823-.102-1.661-.23-2.504-.302-.994-.085-1.512-.627-1.771-1.574-.988-3.604-1.419-7.282-1.519-11.008-.007-.295 0-.591 0-.995-1.654-.249-3.276-.496-4.898-.736-4.291-.633-8.582-1.27-12.876-1.881a2.464 2.464 0 00-1.166.145c-.584.22-.676.624-.469 1.268C48.422 36.572 53.66 52.931 58.92 69.281c.113.352.38.753.687.925 1.439.804 2.117 2.019 2.127 3.641.01 1.666.013 3.331 0 4.997-.013 1.58-.62 2.154-2.252 2.155H16.155c-4.637 0-9.274.002-13.91 0-1.652-.002-2.232-.59-2.239-2.265C0 77.188.02 75.64.001 74.094c-.02-1.566.5-2.83 1.834-3.735.225-.152.368-.58.373-.884.033-1.903.017-3.806.017-5.71 0-18.437-.001-36.876.001-55.313 0-3.602 1.746-6.324 4.787-7.505 3.015-1.17 6.369-.25 8.5 2.275.286.338.777.623 1.21.69 5.453.845 10.912 1.656 16.374 2.436a1.99 1.99 0 001.292-.303c3.53-2.41 8.06-1.757 10.737 1.568.203.253.51.54.804.584 5.948.91 11.901 1.788 17.653 2.642zM17.208 69.7c1.478.25 1.531.227 1.858-.792C24.265 52.694 29.46 36.48 34.673 20.27c.187-.58.191-.934-.392-1.315-.607-.397-1.067-1.016-1.623-1.5-.268-.231-.593-.491-.921-.543-3.528-.552-7.061-1.066-10.593-1.587-1.298-.192-2.598-.377-3.936-.57V69.7zm-11.54.034h8.009V14.362c-2.717 1.558-5.358 1.498-8.01-.004v55.376zM3.46 77.5h54.745c.038-.12.07-.177.071-.234.007-.892.013-1.784.014-2.676.001-.872-.425-1.308-1.28-1.309H4.734c-.236 0-.51-.074-.699.023-.23.117-.54.371-.549.578-.052 1.184-.025 2.372-.025 3.618zm25.79-7.888l.045.12h26.15l-3.086-9.62-23.11 9.5zm18.774-23.014L31.2 56h19.84l-3.017-9.4zm-3.808 13.135l-.037-.18h-6.96c-3.602 0-7.205-.01-10.807.015-.293.002-.781.163-.848.363-.944 2.801-1.83 5.622-2.786 8.615l21.438-8.813zm-9.766-47.16c.004 2.506 2.022 4.538 4.498 4.527 2.46-.011 4.463-2.078 4.445-4.584-.019-2.447-2.033-4.473-4.458-4.484-2.47-.01-4.488 2.032-4.485 4.54zm28.712 1.68L46.939 11.87l-.54 3.684 16.304 2.394c.159-1.277.3-2.422.46-3.695h-.001zm-16.52 28.022l-2.869-8.928-10.264 8.928h13.133zM31.442 9.6L17.22 7.507v3.752l13.66 2.008.561-3.667zM9.653 3.903c-2.226.014-4.04 1.87-4.015 4.111.024 2.232 1.893 4.088 4.088 4.061 2.204-.026 4.045-1.918 4.023-4.133a4.083 4.083 0 00-4.096-4.039zM42.016 46.01l-.075-.197c-3.801 0-7.602-.01-11.402.028-.227.002-.569.357-.656.616-.784 2.329-1.525 4.672-2.273 7.012-.054.169-.062.352-.111.65l14.517-8.109zM35.6 28.557h6.636c-.845-2.644-1.645-5.206-2.516-7.743-.066-.191-.637-.276-.975-.28-.227-.002-.602.176-.663.357-.844 2.52-1.645 5.055-2.482 7.666zm37.563 38.002h-6.02c0 .986-.021 1.901.008 2.815.02.596.375.913.974.916 1.354.004 2.709.006 4.063-.001.645-.003.975-.342.975-.996V66.56zm-6.86-39.337c.287 1.49.508 2.772.806 4.036.048.205.422.431.674.472.93.15 1.873.226 2.81.333 1.282.147 2.157-.38 2.624-1.582.03-.077.033-.163.06-.3-2.253-.955-4.5-1.909-6.974-2.96v.001zm9.153-23.084c-1.274-.143-2.41-.289-3.55-.396-1.875-.177-1.877-.167-2.585 1.622-.02.049-.002.112-.002.237l6.93 2.944-.793-4.407zM39.758 32.281l-.047-.2c-1.52 0-3.042.027-4.561-.014-.553-.015-.768.194-.919.7-.483 1.616-1.014 3.218-1.526 4.826-.088.278-.174.556-.26.834l.166.068 7.147-6.214zm33.405 30.682c0-.672-.003-1.234.001-1.797.005-.648-.308-1.016-.952-1.024-1.385-.016-2.772-.053-4.151.033-.318.02-.8.46-.868.781-.137.64-.04 1.33-.04 2.007h6.01zm-6.972-45.376l-.206 4.154 6.09-1.477.001-.181-5.885-2.496zm4.07-2.02l6.138 2.607.184-4.123-6.322 1.515zm-3.345-2.742l6.476-1.57-.021-.184-5.363-2.276-1.092 4.03zm2.328 11.677l-.038.207 5.364 2.27 1.054-4.01-6.38 1.533z" fill="url(#paint0_linear_1_39)"/><defs><linearGradient id="paint0_linear_1_39" x1="0" y1="81" x2="95.57" y2="52.838" gradientUnits="userSpaceOnUse"><stop stop-color="#0075BF"/><stop offset="1" stop-color="#005CA9"/></linearGradient></defs></svg>