<svg width="80" height="74" fill="none" xmlns="http://www.w3.org/2000/svg"><path d="M73.214 28.291c.332-2.468 1.107-4.307 2.438-5.788.318-.354.623-.781.907-1.27.195-.335.43-.782.518-1.27.23-1.277.437-2.578.637-3.835l.204-1.274.493-3.048c.522-3.224 1.043-6.447 1.558-9.672.105-.663-.058-1.25-.46-1.651-.393-.394-.96-.554-1.598-.454-1.821.29-3.642.588-5.462.886l-1.924.315c-.94.153-1.507.722-1.644 1.646-.071.485-.156.98-.237 1.459-.127.746-.259 1.518-.349 2.289-.035.3-.103.374-.454.49-1.252.41-2.52.84-3.747 1.254a319.059 319.059 0 01-5.537 1.833c-6.54 2.077-11.925 5.734-16.003 10.87l-.098.124c-.16-1.084-.32-2.169-.478-3.253-.327-2.237-.665-4.55-1.014-6.823-.489-3.18-2.63-5.004-5.876-5.005-7.671-.003-15.342-.004-23.013 0-3.58.002-5.895 2.33-5.897 5.93v18.788l-.364-.004c-.58-.008-1.13-.016-1.683.015-1.994.114-3.337 1.229-4.104 3.407L0 34.326v18.782l.103.128c.023.028.047.055.073.082l.005.005c.817 2.18 2.225 3.155 4.56 3.157 3.405.003 6.81.002 10.216.001h4.768v1.535h-3.668c-2.591 0-5.183-.001-7.775.001-4.277.005-7.167 2.304-8.143 6.476a1.356 1.356 0 00-.069.099l-.07.112v2.206l.018.062c.04.146.08.293.118.439.085.323.174.657.285.986 1.124 3.32 4.141 5.383 7.874 5.384 6.394.002 12.787.002 19.18.002H43.48l8.445-.001c.242 0 .48-.001.72-.015 4.169-.229 7.43-3.46 7.587-7.516.084-2.189-.687-4.252-2.17-5.81a7.773 7.773 0 00-5.598-2.412 853.93 853.93 0 00-9.748-.018c-1.411.003-2.822.004-4.233.005h-.443v-1.535l4.07.001c2.971.001 5.942.004 8.913-.004 2.566-.007 4.555-1.38 5.191-3.585.57-1.978.574-4.094.008-6.12-.589-2.113-2.544-3.55-4.865-3.578a278.087 278.087 0 00-4.211-.01c-.502.002-1.013.004-1.535.004a18.967 18.967 0 00-.009-.375c-.015-.508-.03-.988.134-1.284 1.945-3.508 4.08-7.215 6.924-12.022 2.977-5.033 7.395-8.832 13.865-11.912l-1.014 6.3c-.341 2.117-.683 4.234-1.023 6.352-.137.857-.276 1.714-.415 2.57a458.938 458.938 0 00-1.22 7.8c-.275 1.907.614 3.524 2.376 4.325.238.109.265.153.263.435-.008 1.07-.008 2.138-.008 3.207 0 1.303 0 2.65-.014 3.974a1.342 1.342 0 01-.234.708A182.52 182.52 0 0162.38 57.1l-.09.119c-.37.49-.744 1.156-.334 1.982.493.993 1.503.987 1.836.99.644-.003 1.288.005 1.932.013 1.399.018 2.846.035 4.27-.052 1.535-.094 2.76-.368 3.746-.838 3.468-1.653 5.164-4.61 5.04-8.789-.116-3.958-2.733-7.292-6.51-8.294-.385-.103-.775-.17-1.152-.236l-.056-.01c.197-1.231.4-2.459.601-3.684.54-3.278 1.099-6.667 1.55-10.01zm-24.026 34.45a4.449 4.449 0 013.172-1.313h.002a4.45 4.45 0 013.173 1.313 4.45 4.45 0 01-.048 6.333c-.858.848-1.984 1.318-3.159 1.296-2.44-.024-4.431-2.026-4.439-4.464a4.433 4.433 0 011.298-3.166zm-36.834 3.17a4.449 4.449 0 01-1.352 3.168c-.86.846-1.977 1.31-3.16 1.291a4.497 4.497 0 01-4.432-4.543c.025-2.426 2.031-4.4 4.474-4.4h.004a4.447 4.447 0 013.17 1.317 4.43 4.43 0 011.296 3.167zm33.501 4.408H14.388c1.827-2.952 1.83-5.922.006-8.85h31.45c-1.819 2.933-1.815 5.903.011 8.85zM23.213 57.96v-1.436h11.343v1.436H23.213zm23.356-8.843c-.108-.675-.2-1.344-.3-2.053l-.06-.434c.43-.002.858-.006 1.284-.01 1.456-.013 2.832-.026 4.225.038.73.033 1.372.818 1.402 1.714.033.999.032 1.975-.001 2.9-.035.949-.75 1.685-1.737 1.79-.168.018-.346.015-.536.013l-.186-.001H5.036c-1.446 0-1.628-.181-1.628-1.618V35.627c0-1.139.244-1.385 1.373-1.39h1.397v4.361l.001 10.788c0 1.527.614 2.15 2.117 2.15 12.068.003 24.137.003 36.206 0 .823 0 1.393-.198 1.741-.606.349-.408.455-1.001.326-1.814zM10.064 10.36c.463-.57 1.216-.879 2.134-.869 7.776.08 15.336.08 22.47 0 1.053-.007 1.802.22 2.286.706.442.444.68 1.12.725 2.058H9.604c-.094-.756.063-1.406.46-1.895zm15.65 29.054V15.728h12.498l3.484 23.686H25.713zm17.25 8.68H9.653v-5.152h32.564l.749 5.151zm2.938-13.734l-1.198 2.065-.677-4.565c-.072-.48-.141-.96-.21-1.44-.165-1.13-.335-2.298-.52-3.446-.098-.602-.018-1.031.275-1.48 3.637-5.569 8.651-9.488 14.903-11.649 2.147-.742 4.34-1.471 6.461-2.176.892-.297 1.783-.593 2.674-.891l-.025.158a52.86 52.86 0 01-.418 2.383 2.63 2.63 0 01-.223.126c-.056.03-.111.058-.16.086-.827.474-1.678.942-2.502 1.396-1.773.976-3.608 1.985-5.333 3.115-3.908 2.558-7.193 6.136-9.765 10.636a964.619 964.619 0 01-3.281 5.681zM22.204 15.757v23.68H9.648v-23.68h12.556zm46.685 31.962c.002-.664.003-1.328.003-1.993v-.348c2.533-.2 4.206.452 5.392 2.087 1.347 1.857 1.53 3.968.542 6.273-.726 1.693-2.094 2.724-3.852 2.905-1.083.111-2.179.085-3.338.057l-.68-.016.003-.003c.417-.575.812-1.117 1.239-1.645.491-.609.716-1.265.706-2.066a362.868 362.868 0 01-.015-5.25v-.001zm-1.998-5.782c-.226-.027-.394-.112-.502-.254-.146-.194-.192-.497-.132-.879a2286.54 2286.54 0 011.592-9.984l.5-3.117 1.014-6.305c.808-5.023 1.643-10.218 2.454-15.329l.016-.103c.12-.762.193-1.221.355-1.387.16-.162.588-.244 1.395-.386.718-.126 1.439-.238 2.203-.357l.46-.072-.238 1.495c-.236 1.487-.466 2.935-.698 4.383l-.233 1.452c-.404 2.52-.822 5.124-1.252 7.682-.049.29-.181.62-.383.954-.295.487-.623.998-1.02 1.432-1.697 1.847-2.203 4.096-2.474 6.052-.466 3.358-1.024 6.764-1.565 10.057-.203 1.242-.407 2.483-.607 3.726-.038.24-.215 1.023-.885.94z" fill="url(#paint0_linear_1_40)"/><path d="M20.195 67.593c.115.011.226.014.334.014l.172-.001 1.132-.002c5.852 0 11.703 0 17.555-.002h.072c.299.002.635 0 .963-.084.49-.127.895-.449 1.11-.882a1.66 1.66 0 00.04-1.378c-.444-1.07-1.464-1.066-1.804-1.066-2.412.007-4.825.006-7.237.005l-6.112-.001c-2.002-.002-4.072-.003-6.108.007-1.03.005-1.775.715-1.772 1.687.002.908.683 1.608 1.655 1.702z" fill="url(#paint1_linear_1_40)"/><defs><linearGradient id="paint0_linear_1_40" x1="0" y1="73.783" x2="94.028" y2="43.365" gradientUnits="userSpaceOnUse"><stop stop-color="#0075BF"/><stop offset="1" stop-color="#005CA9"/></linearGradient><linearGradient id="paint1_linear_1_40" x1="18.54" y1="67.607" x2="24.442" y2="55.663" gradientUnits="userSpaceOnUse"><stop stop-color="#0075BF"/><stop offset="1" stop-color="#005CA9"/></linearGradient></defs></svg>