<svg width="80" height="81" fill="none" xmlns="http://www.w3.org/2000/svg"><path d="M75.576 8.819c.39 0 .786-.053 1.176-.166 2.312-.664 3.668-2.993 3.085-5.303C79.43 1.735 78.313.647 76.422.023L76.352 0h-1.553l-.295.115-.494.19a4.386 4.386 0 00-2.626 5.485c.598 1.834 2.343 3.029 4.192 3.029zm-.846-4.41a.852.852 0 01.28-.599.832.832 0 01.56-.24h.03c.426.02.824.435.82.854a.838.838 0 01-.272.589.857.857 0 01-.608.243.869.869 0 01-.81-.846z" fill="url(#paint0_linear_1_53)"/><path d="M34.722 6.195a3.078 3.078 0 003.055-3.128c-.016-1.388-.772-2.38-2.312-3.03L35.378 0h-1.45l-.28.155-.411.226a3.112 3.112 0 00-1.462 3.722c.415 1.245 1.65 2.092 2.946 2.092z" fill="url(#paint1_linear_1_53)"/><path d="M80 27.378c.014-.677-.246-1.099-.846-1.369a163.085 163.085 0 01-3.39-1.594l-1.139-.546c-.288-.137-.556-.495-.699-.935-.137-.42-.133-.844.009-1.106l.19-.351c.733-1.353 1.49-2.752 2.254-4.115.207-.37.386-.87-.068-1.47a88.513 88.513 0 01-1.132-1.537 68.49 68.49 0 00-1.493-2.008c-.275-.35-.876-.59-1.317-.517a133.57 133.57 0 00-3.839.692l-1.263.239c-.193.036-.575-.064-.991-.367-.422-.307-.637-.646-.662-.845l-.169-1.301c-.16-1.23-.324-2.501-.469-3.752-.05-.44-.207-.976-.972-1.207a110.95 110.95 0 01-4.095-1.325c-.603-.208-1.065-.09-1.496.384-.85.93-1.734 1.86-2.59 2.759-.284.297-.567.595-.85.894-.23.241-.633.386-1.079.386h-.001c-.46 0-.878-.151-1.12-.405l-.863-.904c-.836-.875-1.701-1.78-2.526-2.689-.467-.515-.973-.635-1.64-.39l-.341.127c-.825.307-1.678.624-2.528.794-1.54.31-2.27 1.12-2.224 2.476l-.016-.001-4.361-.268c-3.984-.246-8.103-.5-12.156-.726-.824-.045-1.362-.176-1.848-.73-.38-.433-.4-.929-.424-1.502l-.003-.078c-.037-.856-.26-1.886-1.678-2.257A8.004 8.004 0 0120.082.97c-1.274-.769-2.363-.628-3.529.458-.917.853-1.735.857-2.826.013a8.212 8.212 0 01-.274-.225c-.24-.2-.486-.407-.785-.561-.309-.16-.82-.292-1.24-.144-.413.145-.814.32-1.202.49-.512.225-.995.437-1.497.582-1.564.45-2.285 1.36-2.338 2.949-.041 1.237-.669 1.825-2.096 1.966a4.466 4.466 0 00-.38.057 2.2 2.2 0 01-.466.052c-1.012-.057-1.309.73-1.436 1.068l-.16.432c-.276.749-.562 1.523-.949 2.202-.719 1.264-.577 2.33.46 3.459.875.95.877 1.79.006 2.896-.064.08-.125.163-.186.247-.118.16-.23.313-.353.435-.534.527-.632 1.126-.298 1.832.427.903.794 1.84 1.148 2.748.107.271.156.51.144.688a397.836 397.836 0 01-.328 4.31c-.05.617-.099 1.234-.147 1.852a1590.42 1590.42 0 01-.416 5.214c-.325 4-.66 8.137-.917 12.212a8.198 8.198 0 003.296 7.118 8.291 8.291 0 007.855 1.123c1.472-.544 2.938-1.166 4.355-1.767a141.07 141.07 0 013.108-1.29c-.609 3.443.441 6.287 3.129 8.473-1.176.378-2.352.754-3.528 1.13-2.814.899-5.724 1.83-8.58 2.769-2.83.931-4.703 2.927-5.415 5.77-.671 2.681-.102 5.385 1.56 7.418 1.685 2.058 4.26 3.165 7.073 3.037 5.385-.247 10.857-.537 16.149-.817l3.16-.166c8.424-.444 18.22-.961 27.872-1.501.623-.037.678.11.738.415.18.928.78 1.445 1.836 1.582.443.058.878.15 1.339.248.425.09.866.183 1.312.246.06.009.123.013.187.013.376 0 .792-.143 1.044-.372a30.91 30.91 0 001.094-1.053c.53-.528 1.03-1.027 1.585-1.47.346-.277.918-.467 1.457-.484a8.244 8.244 0 012.386.296c1.39.375 2.263-.133 3.222-1.076 1.566-1.54 1.942-3.057 1.257-5.073l-.041-.123c-.379-1.114-.588-1.727-.539-2.113.042-.336.303-.641.942-1.36.15-.17.317-.357.501-.57 1.027-1.184 2.045-2.826.791-5.039a1.808 1.808 0 01-.215-.635c-.142-1.057-.935-1.364-1.52-1.503-.703-.168-1.418-.378-2.11-.58a127.8 127.8 0 00-.583-.171c-.039-.977-.074-1.95-.11-2.92-.099-2.682-.201-5.456-.364-8.17-.082-1.367.206-2.296.964-3.107.234-.25.423-.526.605-.793.144-.209.279-.405.429-.582.532-.63.32-1.188.113-1.554a253.885 253.885 0 01-2.123-3.868l-.322-.596c-.134-.247-.131-.68.007-1.103.137-.424.39-.776.643-.897l.909-.435a202.779 202.779 0 013.69-1.738c.582-.265.836-.667.823-1.303a103.02 103.02 0 010-4.234H80zm-6.52 42.135c.142.658.307 1.32.468 1.959.069.276.138.552.205.828.069.281-.284.985-.523 1.072a.999.999 0 01-.13-.006 2.509 2.509 0 00-.154-.009 27.702 27.702 0 00-.597-.063 11.7 11.7 0 01-1.255-.167c-2.01-.42-3.722.137-5.088 1.657a6.191 6.191 0 01-.44.426c-.21.191-.429.389-.62.625-.44.547-.8.48-1.122.328-.262-.124-.398-.252-.435-.323a13.076 13.076 0 01-.755-1.783c-.648-1.895-1.981-3.07-3.963-3.49a6.76 6.76 0 01-.578-.16c-.276-.085-.561-.173-.866-.218-.547-.082-.789-.319-.834-.817-.023-.26.016-.453.065-.53.34-.533.732-1.055 1.164-1.55 1.311-1.502 1.669-3.217 1.063-5.096a5.563 5.563 0 01-.14-.578c-.066-.315-.134-.641-.276-.958-.216-.482-.118-.803.36-1.186a.752.752 0 01.393-.161h.012c.764.048 1.446.133 2.085.257 1.86.362 3.472-.187 4.793-1.63.142-.155.303-.3.473-.453.24-.218.49-.442.703-.714.31-.393.619-.471 1.067-.27.204.091.397.25.468.386.265.504.512 1.087.757 1.784.649 1.85 1.942 2.992 3.844 3.392.198.042.398.107.61.177.288.093.585.19.907.237.556.08.807.337.865.89.02.193-.02.377-.068.452-.332.512-.694.99-1.077 1.42-.888 1-1.352 2.036-1.419 3.19-.02.334-.041.713.038 1.082zM26.79 48.404h.01a4.761 4.761 0 013.384 1.414 4.777 4.777 0 01-.02 6.779 4.747 4.747 0 01-3.37 1.406h-.014a4.775 4.775 0 01-3.385-1.427 4.756 4.756 0 01-1.41-3.386 4.81 4.81 0 014.806-4.786zm-6.28 21.727c-.374-2.059-1.427-3.771-3.135-5.101l.631-.205c1.166-.378 2.29-.743 3.415-1.105.873-.282 1.747-.56 2.621-.837a359.62 359.62 0 005.174-1.671c2.65-.886 4.673-2.811 5.55-5.283.853-2.404.521-5.075-.911-7.327-2.008-3.159-6.116-4.602-9.556-3.359-1.799.65-3.587 1.407-5.316 2.138-.783.33-1.566.662-2.352.985l-.137.055c.666-3.55-.44-6.486-3.23-8.529-2.834-2.075-5.914-2.23-9.165-.464l1.193-15.271c.472.222 1.014.737 1.074 1.096.013.08.029.159.045.238.037.18.071.351.06.486-.127 1.404.55 2.304 2.07 2.75.938.276 1.843.701 2.719 1.112.647.305 1.2.217 1.69-.268.127-.124.28-.237.442-.357.083-.06.165-.122.245-.185 1.176-.924 1.997-.92 3.028.012 1.07.967 2.092 1.103 3.313.441.53-.287 1.092-.508 1.688-.742.415-.163.845-.332 1.262-.525.384-.179.637-.613.738-.932.102-.326.129-.653.155-.97.007-.089.015-.178.024-.266.146-1.411.726-2.015 2-2.083 1.604-.085 2.49-.771 2.87-2.223.137-.522.362-1.025.6-1.556.173-.388.352-.79.497-1.203.153-.437.02-.974-.14-1.302-.15-.305-.36-.552-.563-.792-.077-.09-.155-.181-.227-.274-.811-1.047-.812-1.902-.004-2.77.722-.775 1.556-1.993.462-3.609a.574.574 0 01-.04-.069l12.885.758c-.002.968-.42 1.554-1.321 1.874-.056.017-.235-.016-.332-.034l-.029-.005-1.572-.294a128.741 128.741 0 00-3.528-.634c-.444-.073-1.048.161-1.318.508-.501.642-.984 1.31-1.451 1.956-.38.526-.773 1.07-1.17 1.591-.464.608-.289 1.105-.085 1.47a293.47 293.47 0 012.192 4.016l.281.522c.115.214.102.636-.033 1.05-.138.423-.381.78-.607.888l-.762.367c-1.254.603-2.55 1.227-3.835 1.81-.607.275-.872.696-.858 1.367.028 1.396.028 2.82 0 4.234-.013.632.244 1.034.833 1.303 1.304.597 2.62 1.229 3.894 1.84l.706.338c.243.117.489.464.626.886.14.43.144.864.012 1.108l-.51.946a202.359 202.359 0 01-1.927 3.522c-.314.556-.282 1.03.103 1.535.39.514.776 1.048 1.15 1.565.458.635.932 1.29 1.424 1.922.278.357.878.6 1.308.532 1.306-.207 2.624-.459 3.898-.701l1.205-.228c.237-.046.634.098.99.354.357.258.62.595.653.838l.105.765c.196 1.428.399 2.906.575 4.36.051.417.202.923.924 1.142.6.182 1.208.381 1.796.574a71.3 71.3 0 002.406.754c.42.12 1.044-.047 1.363-.365.85-.849 1.686-1.735 2.494-2.592.347-.368.695-.736 1.044-1.102.21-.22.611-.356 1.048-.356h.002c.454 0 .873.145 1.095.379l.836.878a193.71 193.71 0 012.608 2.772c.437.477.899.598 1.498.393 1.398-.48 2.776-.927 4.096-1.328.599-.181.899-.552.972-1.203.154-1.36.335-2.743.51-4.08l.128-.971c.031-.245.299-.588.665-.854.413-.3.795-.399.986-.363l3.435.64.264 6.613a3.412 3.412 0 00-.5-.165c-.43-.1-.866-.185-1.289-.267a26.378 26.378 0 01-1.498-.32c-.766-.193-1.22.14-1.53.452-.582.585-1.19 1.166-1.777 1.728-.276.264-.553.529-.828.795-.394.381-.815.513-1.364.427a64.212 64.212 0 00-3.705-.474c-.39-.039-.875.147-1.156.44a36.695 36.695 0 00-2.18 2.46c-.275.345-.41.905-.32 1.333.22 1.044.5 2.087.77 3.095l.1.373c.165.617.062 1.112-.335 1.604a61.243 61.243 0 00-2.213 2.916c-.227.318-.311.828-.202 1.211.159.555.344 1.106.523 1.639.151.451.308.919.446 1.38.182.609.537.95 1.15 1.104 1.009.253 2.056.546 3.197.894L19.37 76.093c1.152-1.886 1.526-3.845 1.141-5.962zM4.796 43.782a4.473 4.473 0 013.232-1.377 4.514 4.514 0 014.506 4.43 4.425 4.425 0 01-1.243 3.183c-.843.868-2 1.356-3.261 1.372h-.06c-2.444 0-4.383-1.959-4.425-4.487a4.362 4.362 0 011.25-3.12zM9.96 5.212c.04-.08.214-.245.309-.334l.122-.117a.93.93 0 01.094-.032c.098-.031.219-.07.337-.147.548-.36.965-.296 1.438.218.555.601 1.272.855 2.13.76.368-.042.72-.042 1.048-.001 1.202.15 2.2-.195 2.97-1.029.198-.215.374-.292.734-.087.271.154.579.28.891.366.324.088.38.25.367.481-.066 1.159.39 2.108 1.395 2.904.174.137.336.3.468.469.7.893 1.552 1.315 2.626 1.286.192-.003.414.052.491.097.337.606.555 1.174.65 1.689-.056.108-.261.318-.376.435l-.138.142c-.599.637-.838 1.332-.73 2.123.032.233.033.485 0 .727-.18 1.387.185 2.516 1.116 3.451.021.072.023.25.025.359 0 .06.001.118.003.175a1.059 1.059 0 00-.12.294c-.182.826-.6 1.15-1.399 1.094-.684-.052-1.266.222-1.78.832a5.628 5.628 0 01-.757.757c-1.07.868-1.556 1.856-1.485 3.018.011.193-.01.35-.39.462a8.19 8.19 0 00-1.013.399l-.244.107a1.016 1.016 0 01-.22-.153c-.695-.755-1.547-1.126-2.594-1.126-.19 0-.387.012-.59.037a3.456 3.456 0 01-.816 0c-.995-.121-1.808.166-2.418.851-.363.408-.682.448-1.177.15a1.78 1.78 0 00-.373-.16 1.03 1.03 0 01-.18-.07l-.036-.033c-.118-.107-.362-.33-.388-.416-.054-1.171-.483-2.093-1.391-2.989-.895-.883-1.907-1.887-3.54-1.82a2.368 2.368 0 01-.163-.16l-.036-.037-.01-.033a1.036 1.036 0 00-.122-.28c-.523-.793-.452-1.385.245-2.04.39-.367.483-.988.551-1.442.042-.278.031-.545.02-.804-.008-.212-.016-.412.007-.595.157-1.264-.205-2.312-1.075-3.115-.209-.193-.224-.322-.067-.578.138-.227.238-.475.288-.72.088-.43.284-.694.98-.672.906.032 1.644-.316 2.185-1.023.166-.216.362-.412.567-.567 1.032-.78 1.546-1.795 1.57-3.102v-.001zM72.039 32.38a2.22 2.22 0 00-.965 1.108c-.098.263-.21.528-.33.809-.382.896-.777 1.824-.693 2.757.079.868.58 1.65 1.063 2.405.202.314.393.613.553.913.04.075.077.151.115.228.106.215.215.438.376.646.46.599.432 1.013-.114 1.643-.355.41-.537.482-.97.387a80.83 80.83 0 00-4.349-.818c-.356-.058-.811.043-1.161.26a8.725 8.725 0 00-.741.535c-.294.229-.572.444-.87.597-1.609.825-1.86 2.253-1.91 3.256-.055 1.136-.258 2.291-.437 3.31-.013.072-.157.257-.323.354-.85.495-1.427.363-2.059-.473-.643-.851-1.414-1.606-2.16-2.335a92.428 92.428 0 01-.423-.416c-.222-.22-.508-.31-.76-.39-.084-.027-.168-.053-.248-.087a.52.52 0 00-.255-.036c-.343 0-.697-.024-1.072-.052-.894-.066-1.818-.135-2.621.205-.803.34-1.394 1.053-1.965 1.742-.239.289-.464.56-.702.804a4.274 4.274 0 01-.133.129c-.135.126-.287.27-.404.457-.502.808-1.059.944-1.985.485-.343-.17-.375-.223-.4-.444-.163-1.492-.37-3.045-.614-4.614-.062-.4-.319-.84-.638-1.092a36.465 36.465 0 00-2.596-1.884 2.008 2.008 0 00-1.058-.306c-.084 0-.168.006-.247.019-1.537.246-3.033.54-4.42.821-.294.06-.425.027-.73-.306-.608-.665-.638-1.148-.119-1.916.674-.998 1.212-2.09 1.733-3.145l.078-.158c.198-.401.249-.95.13-1.396a31.25 31.25 0 00-.966-2.98c-.155-.41-.509-.813-.88-1.002a95.023 95.023 0 00-4.127-1.979c-.234-.105-.298-.174-.347-.56-.121-.957.138-1.386 1.025-1.7 1.08-.382 2.105-.922 3.096-1.445l.312-.164c.4-.21.763-.62.926-1.043.357-.924.683-1.926.97-2.978.12-.433.072-.957-.119-1.333a63.412 63.412 0 00-2.08-3.826c-.288-.486-.247-.656.023-.921.155-.152.27-.326.372-.48.07-.105.136-.206.206-.286a.628.628 0 01.13-.098c.403.074.799.149 1.189.223 1.2.226 2.333.44 3.486.615.513.077 1.121-.055 1.516-.33.23-.16.47-.313.723-.475.86-.549 1.75-1.116 2.245-1.966.448-.77.495-1.716.541-2.63.02-.383.038-.745.083-1.09l.016-.11c.023-.154.049-.329.038-.515-.048-.837.286-1.225 1.233-1.434.405-.09.523-.036.744.207a93.86 93.86 0 003.104 3.266 1.94 1.94 0 001.23.532c.302.01.61.035.936.062.972.08 1.978.164 2.848-.2.806-.335 1.395-1.055 1.965-1.752.238-.29.463-.566.7-.811.048-.05.099-.098.15-.146.143-.138.306-.294.433-.491.462-.722.954-.844 1.813-.451.42.192.487.266.519.57.161 1.58.35 3.016.575 4.392.076.467.366.967.738 1.274a24.334 24.334 0 002.482 1.806c.394.25.958.366 1.436.292a87.642 87.642 0 004.35-.801c.394-.081.511.008.64.253.14.263.322.515.528.73.157.163.197.247.025.547a79.712 79.712 0 00-2.143 3.963c-.21.42-.265 1.018-.142 1.52.115.466.271.918.423 1.354.145.42.283.817.386 1.225.18.709.588 1.17 1.323 1.497.638.282 1.28.592 1.9.892.633.305 1.287.62 1.943.912.224.099.269.15.33.564.136.934-.148 1.384-1.085 1.719-1.14.407-2.222.984-3.268 1.543l-.07.037zM17.05 71.707a4.737 4.737 0 01-1.42 3.375 4.687 4.687 0 01-3.334 1.37c-2.677-.021-4.84-2.205-4.822-4.868.009-1.217.538-2.43 1.454-3.33.906-.89 2.114-1.397 3.32-1.397h.048c2.673.03 4.761 2.16 4.754 4.85z" fill="url(#paint2_linear_1_53)"/><path d="M53.192 15.814h-.058c-3.635.016-7.061 1.452-9.647 4.046-2.586 2.595-4 6.015-3.983 9.63.018 3.633 1.458 7.058 4.055 9.648 2.58 2.572 5.971 3.986 9.554 3.986h.072c7.544-.04 13.659-6.177 13.629-13.682-.014-3.63-1.452-7.055-4.047-9.64-2.582-2.573-5.98-3.988-9.575-3.988zm10.057 13.593c.072 5.49-4.42 10.044-10.013 10.15a8.866 8.866 0 01-.185.003c-5.37 0-9.83-4.446-9.983-9.997-.072-2.59.918-5.085 2.785-7.025 1.907-1.982 4.554-3.134 7.263-3.163h.106c5.466 0 9.954 4.478 10.027 10.032z" fill="url(#paint3_linear_1_53)"/><path d="M15.151 22.436h.02c1.928-.005 3.751-.776 5.134-2.17 1.37-1.383 2.118-3.189 2.107-5.086-.023-3.934-3.331-7.241-7.232-7.241h-.039c-4.001.022-7.246 3.284-7.234 7.27.012 3.99 3.26 7.227 7.244 7.227zm-3.686-7.226a3.663 3.663 0 011.105-2.625 3.63 3.63 0 012.567-1.079h.038c2.016.021 3.666 1.671 3.678 3.678a3.623 3.623 0 01-1.08 2.594c-.708.71-1.64 1.1-2.625 1.1h-.015a3.692 3.692 0 01-3.668-3.668z" fill="url(#paint4_linear_1_53)"/><path d="M66.45 59.354c-3.82-.094-7.04 3.013-7.162 6.937-.054 1.784.617 3.51 1.89 4.86a7.32 7.32 0 005.27 2.288c1.728 0 3.384-.673 4.683-1.906a7.209 7.209 0 002.236-5.017c.092-3.849-3.01-7.062-6.918-7.162zm-3.605 7.018c.014-1.903 1.58-3.454 3.493-3.457h.004a3.434 3.434 0 013.47 3.447 3.536 3.536 0 01-1.052 2.517c-.654.646-1.5 1-2.389 1h-.056c-1.894-.032-3.483-1.638-3.47-3.507z" fill="url(#paint5_linear_1_53)"/><path d="M26.787 56.295h.004a3.05 3.05 0 002.18-.913 3.087 3.087 0 00-2.178-5.267h-.001c-.836 0-1.621.33-2.21.928a3.047 3.047 0 00-.888 2.2 3.113 3.113 0 003.093 3.052z" fill="url(#paint6_linear_1_53)"/><path d="M12.295 68.554h-.036a3.13 3.13 0 00-3.072 3.08 3.02 3.02 0 00.894 2.177 3.098 3.098 0 002.212.923h.017a3.044 3.044 0 003.053-3.06 3.102 3.102 0 00-.923-2.23 3.027 3.027 0 00-2.145-.89z" fill="url(#paint7_linear_1_53)"/><path d="M8.302 49.682h.023c.836 0 1.62-.325 2.211-.916a3.027 3.027 0 00.898-2.176c-.012-1.674-1.388-3.058-3.066-3.085a3.043 3.043 0 00-2.181.885 3.098 3.098 0 00-.932 2.228 3.043 3.043 0 003.047 3.064z" fill="url(#paint8_linear_1_53)"/><path d="M52.825 21.108c-4.69.296-8.29 4.168-8.025 8.632a8.848 8.848 0 002.93 6.063c1.498 1.329 3.35 2.045 5.258 2.045.155 0 .31-.005.465-.014a8.833 8.833 0 006.047-2.942c1.437-1.627 2.156-3.666 2.025-5.74-.3-4.719-4.2-8.322-8.7-8.044zm4.074 11.358c-.854 1.015-2.135 1.664-3.516 1.78a4.431 4.431 0 01-3.257-1.062c-1.015-.862-1.634-2.101-1.744-3.489-.205-2.578 1.795-4.777 4.55-5.007.126-.01.25-.016.374-.016 2.397 0 4.397 1.94 4.632 4.573.104 1.157-.265 2.3-1.039 3.22z" fill="url(#paint9_linear_1_53)"/><defs><linearGradient id="paint0_linear_1_53" x1="71.164" y1="8.819" x2="81.668" y2="5.689" gradientUnits="userSpaceOnUse"><stop stop-color="#0075BF"/><stop offset="1" stop-color="#005CA9"/></linearGradient><linearGradient id="paint1_linear_1_53" x1="31.614" y1="6.195" x2="38.968" y2="4.013" gradientUnits="userSpaceOnUse"><stop stop-color="#0075BF"/><stop offset="1" stop-color="#005CA9"/></linearGradient><linearGradient id="paint2_linear_1_53" x1="0" y1="80.003" x2="95.291" y2="51.414" gradientUnits="userSpaceOnUse"><stop stop-color="#0075BF"/><stop offset="1" stop-color="#005CA9"/></linearGradient><linearGradient id="paint3_linear_1_53" x1="39.504" y1="43.124" x2="72.064" y2="33.41" gradientUnits="userSpaceOnUse"><stop stop-color="#0075BF"/><stop offset="1" stop-color="#005CA9"/></linearGradient><linearGradient id="paint4_linear_1_53" x1="7.907" y1="22.436" x2="25.199" y2="17.274" gradientUnits="userSpaceOnUse"><stop stop-color="#0075BF"/><stop offset="1" stop-color="#005CA9"/></linearGradient><linearGradient id="paint5_linear_1_53" x1="59.285" y1="73.439" x2="76.077" y2="68.43" gradientUnits="userSpaceOnUse"><stop stop-color="#0075BF"/><stop offset="1" stop-color="#005CA9"/></linearGradient><linearGradient id="paint6_linear_1_53" x1="23.694" y1="56.295" x2="31.062" y2="54.097" gradientUnits="userSpaceOnUse"><stop stop-color="#0075BF"/><stop offset="1" stop-color="#005CA9"/></linearGradient><linearGradient id="paint7_linear_1_53" x1="9.187" y1="74.734" x2="16.551" y2="72.538" gradientUnits="userSpaceOnUse"><stop stop-color="#0075BF"/><stop offset="1" stop-color="#005CA9"/></linearGradient><linearGradient id="paint8_linear_1_53" x1="5.255" y1="49.682" x2="12.622" y2="47.484" gradientUnits="userSpaceOnUse"><stop stop-color="#0075BF"/><stop offset="1" stop-color="#005CA9"/></linearGradient><linearGradient id="paint9_linear_1_53" x1="44.786" y1="37.848" x2="64.761" y2="31.889" gradientUnits="userSpaceOnUse"><stop stop-color="#0075BF"/><stop offset="1" stop-color="#005CA9"/></linearGradient></defs></svg>