<svg width="80" height="77" fill="none" xmlns="http://www.w3.org/2000/svg"><path d="M12.574 53.58c-.923 0-1.846 0-2.77-.002h-.09a699.92 699.92 0 00-7.572.017c-.953.015-1.615-.284-2.08-.952L0 52.553v-9.445l.02-.077c.018-.05.037-.098.057-.147a1.29 1.29 0 00.076-.223c.48-2.498 1.772-4.516 3.84-5.998 1.139-.816 2.48-1.342 4.1-1.608V33.72a406.52 406.52 0 00-.003-3.665c-.01-1.465-.666-2.198-2.13-2.377-1.108-.135-1.744-.84-1.66-1.84.082-.95.792-1.52 1.887-1.493 2.73.052 5.067 2.277 5.21 4.96.081 1.51.065 3.044.049 4.529l-.009.834c-.002.235.042.284.042.284.012.01.08.034.247.02.316-.023.636-.017.945-.012l.123.002-.001-.775c-.002-.834-.005-1.622.005-2.43.016-1.302.62-1.91 1.9-1.914 3.235-.012 6.492-.012 9.683 0 1.28.004 1.88.617 1.888 1.927.005.803.004 1.607.003 2.42l-.001.718h1.894v-.538l-.003-1.892c-.003-1.84-.007-3.741.02-5.624.007-.456.134-1.088.47-1.495a1298.73 1298.73 0 0111.126-13.31c.364-.428 1.097-.831 1.69-.766 1.271.136 2.356-.261 3.415-1.248.25-.232.524-.427.789-.615.117-.083.234-.166.348-.252l3.163-2.382c2.553-1.923 5.105-3.846 7.662-5.761C58.52-.23 60.495-.314 62 .805c.337.252.492.261.92.061 2.888-1.354 5.774-1.117 8.345.687 2.596 1.822 3.723 4.398 3.349 7.656-.073.629-.142 1.257-.214 1.905l-.07.634.516.181c.572.2 1.138.398 1.701.603 1.106.402 1.465.979 1.326 2.13a604.712 604.712 0 01-.486 3.887l-1.042 8.174-1.232 9.661c-.132 1.033-.26 2.067-.392 3.142l-.141 1.133c.159.01.3.018.443.019.385.002.77 0 1.156 0h.208c.552-.001 1.106-.002 1.658.005 1.182.014 1.93.64 1.954 1.636.025 1.04-.71 1.68-1.964 1.712-.12.004-.24.003-.36.003l-.192-.001c-.377 0-.753 0-1.13-.002h-.226a192.247 192.247 0 00-4.057.019c-.1.001-.226.06-.363.13a.89.89 0 00.22.233c4.198 2.568 6.124 6.333 5.724 11.19-.36 4.37-3.545 8.23-7.925 9.605-1.755.55-2.408-.172-2.646-.875-.152-.449-.138-.856.043-1.21.243-.475.773-.834 1.623-1.097 3.097-.959 5.398-3.822 5.598-6.963.218-3.446-1.583-6.576-4.589-7.975-.296-.138-.46-.131-.734.028-1.722 1.003-3.55 1.021-5.283.053-.362-.202-.609-.203-1.013-.002-2.979 1.48-4.67 4.545-4.414 8 .228 3.065 2.502 5.883 5.532 6.853.077.025.156.047.236.07.2.059.409.119.612.214.717.336 1.045.964.923 1.767-.112.743-.626 1.25-1.374 1.358-.41.06-.84-.067-1.21-.19-4.627-1.538-7.318-4.706-7.998-9.416-.663-4.591 1.587-9.076 5.732-11.426.07-.04.143-.136.215-.241-.115-.065-.226-.121-.302-.122a194.964 194.964 0 00-3.37-.017c-.838 0-1.675 0-2.512-.007-1.059-.01-1.781-.663-1.8-1.628-.016-.94.679-1.626 1.731-1.707a4.7 4.7 0 01.427-.008h.142c.413 0 .826-.004 1.24-.009h.056c.946-.011 2.019-.024 3.057.027 1.009.05 1.648.004 2.008-1.057.042-.122.086-.24.13-.357.169-.455.315-.848.246-1.344a497.2 497.2 0 01-.943-7.27l-.004-.032c-.124-.995-.248-1.99-.375-2.985a600.648 600.648 0 00-.411-3.162l-.162-1.234c-4.008-.006-7.634-.012-11.362-.007a.574.574 0 00-.24.045c-.58.589-1.132 1.175-1.718 1.795l-.24.253c3.342 1.325 5.256 4.13 5.261 7.724.008 5.975.005 12.051.001 17.927v.659c-.001 1.363-.562 1.923-1.936 1.934-.216.002-.432 0-.647 0h-5.425v2.221l.835-.001c.745-.001 1.472-.003 2.2.003 5.53.04 10.036 4.565 10.047 10.086.011 5.579-4.47 10.129-9.987 10.144-6.29.017-12.415.025-18.206.025-6.502 0-12.63-.01-18.733-.032-3.653-.013-6.589-1.706-8.49-4.895-.489-.82-.785-1.75-1.074-2.653a26.928 26.928 0 00-.401-1.193l-.015-.04L0 64.637l.022-.081c.149-.397.283-.814.413-1.217.294-.914.598-1.86 1.1-2.69 1.894-3.132 4.753-4.763 8.498-4.849.743-.016 1.472-.012 2.245-.008h.05l.747.004V53.58h-.5zm25.024-33.73h27.014v-5.262l-4.905.001c-5.005 0-11.234.002-17.15-.011-.452 0-.705.115-.969.441-1.052 1.302-2.107 2.568-3.223 3.909l-.767.923zM57.58 11.2h1.042l-.07-.724-.972.724zm-8.545.038c.88.003 1.875.007 2.851-.018.121-.003.354-.177.466-.261a1354.876 1354.876 0 005.953-4.498c.084-.06.21-.152.236-.206.352-.77.682-1.535 1.037-2.359l.224-.516c-.245-.072-.496-.009-.766.194-2.815 2.11-5.627 4.224-8.439 6.338l-1.764 1.325h.202zm18.696 25.771l.26-2.019.623-4.867.27-2.11c.663-5.205 1.328-10.41 1.988-15.615.053-.419.115-.837.177-1.256.15-1.013.304-2.06.323-3.083a4.423 4.423 0 00-1.343-3.256c-.963-.949-2.321-1.472-3.723-1.425A4.809 4.809 0 0062.93 4.95a4.633 4.633 0 00-1.225 3.423c.042.687.13 1.375.222 2.105.031.249.064.502.095.762h1.001c.962-.002 1.9-.003 2.84 0 1.566.006 2.15.593 2.153 2.167.005 2.556.004 5.11 0 7.666-.003 1.638-.539 2.164-2.206 2.167h-2.276l1.747 13.769h2.45zm-2.904 6.865c.41.411.948.638 1.518.638v.117-.117a2.125 2.125 0 002.113-2.11 2.122 2.122 0 00-.623-1.524 2.13 2.13 0 00-1.523-.63 2.124 2.124 0 00-2.118 2.104c-.002.57.223 1.11.633 1.522zm6.082-5.22c.074.453.215.911.361 1.36l1.953-15.288.66-5.16c.15-1.168.3-2.335.445-3.504.037-.3.08-.642.033-.702-.049-.06-.3-.134-.491-.186l-.18 1.411-.499 3.924-2.11 16.717c-.02.173-.055.344-.088.51-.065.333-.127.647-.083.919zm-58.114.625v-.922c-.42-.005-.834-.018-1.236-.031l-.04-.001c-1.13-.036-2.195-.07-3.235.066-3.192.417-5.452 3.417-5.042 6.669a.57.57 0 00.133.144c2.973.024 6.1.024 9.296.003a.53.53 0 00.106-.093c.02-1.95.019-3.925.018-5.835zm-9.493 9.229v1.787h45.273v-1.787H3.303zm28.086-12.264c0 1.534-.462 2.002-1.973 2.003-1.789.002-3.577 0-5.365 0h-2.838v6.958c.124.01.243.018.357.018l3.242-.001h.22c2.545 0 5.178-.003 7.765.017.309-.006.383-.045.403-.065.02-.02.068-.1.066-.404-.023-3.492-.019-7.041-.015-10.474l.002-2.302c0-1.588.562-2.152 2.145-2.154 2.684-.003 5.369-.005 8.053 0 2.153.004 3.294 1.151 3.3 3.32.011 3.693.02 7.633-.01 11.615-.003.33.055.408.073.425.01.01.083.062.372.036a7.62 7.62 0 01.682-.026c.176 0 .351.003.523.007l.173.003c.002-1.248.014-2.494.026-3.701.03-3.233.06-6.288-.082-9.4-.108-2.378-2.127-4.104-4.801-4.106H31.39v3.194l-.001 5.037zm5.178-3.057v11.982h6.886V33.186h-6.886zm-.747-8.441l.262.003c1.882.026 3.829.052 5.752.1.45.014.718-.098.99-.417a25.76 25.76 0 011.093-1.18l.011-.011h-1.196c-2.67-.001-5.19-.003-7.723.013a.665.665 0 00-.399.18c-.355.383-.693.794-1.051 1.231l-.04.048 2.3.033zM23 34.932v-1.755h-6.877v1.755H23zm-5.091 4.254v-.898h-1.832v6.933l.279.002c.507.002.987.005 1.462-.017a.426.426 0 00.075-.063c.017-1.981.017-4.002.016-5.957zM28.392 59.27h-.235l-.117-.022-4.254-.002h-.729a3375.56 3375.56 0 00-12.623.007c-3.567.011-6.198 2.104-6.869 5.46-.362 1.816.092 3.729 1.246 5.25 1.148 1.514 2.858 2.462 4.69 2.6.334.025.629.038.902.038l6.524.001c9.85.001 19.7.003 29.55-.003 3.246-.002 5.81-1.819 6.691-4.742a6.69 6.69 0 00-1.001-5.92c-1.199-1.643-3.038-2.605-5.048-2.64a420.618 420.618 0 00-7.496-.057c-1.854 0-3.699.007-5.517.014l-.251.001c-1.821.008-3.642.015-5.463.015zm-11.87-5.632v2.121H40.38v-2.12H16.523z" fill="url(#paint0_linear_1_43)"/><path d="M22.353 71.244h-.014a5.279 5.279 0 01-3.752-1.569 5.278 5.278 0 01-1.549-3.76 5.275 5.275 0 011.572-3.754 5.302 5.302 0 013.768-1.548c2.924.008 5.298 2.404 5.29 5.34a5.268 5.268 0 01-1.558 3.755 5.295 5.295 0 01-3.757 1.536zm1.891-5.314a1.853 1.853 0 00-.545-1.338 1.897 1.897 0 00-1.361-.547h-.001c-1.052.011-1.85.812-1.855 1.862a1.88 1.88 0 00.554 1.355c.364.362.843.553 1.344.54a1.873 1.873 0 001.864-1.872z" fill="url(#paint1_linear_1_43)"/><path d="M34.513 60.613h.023c2.93 0 5.33 2.357 5.353 5.265a5.298 5.298 0 01-1.524 3.778 5.266 5.266 0 01-3.743 1.588h-.042a5.313 5.313 0 01-3.742-1.514 5.244 5.244 0 01-1.58-3.741c-.019-2.943 2.338-5.354 5.255-5.376zm-1.317 6.61a1.92 1.92 0 001.36.58 1.86 1.86 0 001.867-1.855 1.882 1.882 0 00-.534-1.361 1.868 1.868 0 00-1.344-.543c-1.026.003-1.876.832-1.894 1.849-.01.491.184.964.545 1.33z" fill="url(#paint2_linear_1_43)"/><path d="M10.123 71.244h-.024a5.278 5.278 0 01-3.754-1.572 5.283 5.283 0 01-1.537-3.77c.015-2.917 2.406-5.29 5.33-5.29h.027c2.922.015 5.288 2.417 5.275 5.356-.013 2.958-2.349 5.276-5.317 5.276zm1.905-5.338c-.003-1.007-.862-1.861-1.875-1.865h-.008c-.52 0-.998.194-1.35.546a1.87 1.87 0 00-.537 1.346 1.866 1.866 0 001.855 1.87h.003c.519 0 .985-.191 1.35-.553.363-.36.563-.838.562-1.344z" fill="url(#paint3_linear_1_43)"/><path d="M46.798 60.612h.006c1.387.001 2.71.563 3.725 1.582 1.013 1.017 1.57 2.34 1.565 3.723-.008 2.908-2.372 5.289-5.27 5.307h-.035a5.271 5.271 0 01-3.74-1.533 5.27 5.27 0 01-1.562-3.763 5.282 5.282 0 015.31-5.317zm-1.395 6.59c.363.379.857.599 1.356.604h.024a1.876 1.876 0 001.868-1.834 1.888 1.888 0 00-.516-1.363 1.887 1.887 0 00-1.343-.567h-.032c-.988 0-1.848.832-1.884 1.831-.017.475.175.96.527 1.328z" fill="url(#paint4_linear_1_43)"/><path d="M66.382 9.9h-.038a1.93 1.93 0 01-1.365-.547 1.937 1.937 0 01-.572-1.398c0-.535.208-1.032.585-1.398a1.904 1.904 0 011.401-.543 1.928 1.928 0 011.883 1.951c-.004 1.083-.818 1.914-1.893 1.934z" fill="url(#paint5_linear_1_43)"/><path d="M52.937 15.312a1.97 1.97 0 011.404.564c.373.371.577.867.572 1.396a1.93 1.93 0 01-1.915 1.924h-.029a1.955 1.955 0 01-1.388-.575 1.908 1.908 0 01-.571-1.38 1.964 1.964 0 011.926-1.93z" fill="url(#paint6_linear_1_43)"/><path d="M60.502 15.311h.028c1.053.02 1.91.891 1.913 1.941a1.919 1.919 0 01-.579 1.383 1.95 1.95 0 01-1.376.56h-.04a1.927 1.927 0 01-1.903-1.932 1.933 1.933 0 01.58-1.395c.366-.36.854-.557 1.377-.557z" fill="url(#paint7_linear_1_43)"/><path d="M45.47 15.316c1.06.02 1.893.868 1.896 1.933.002.539-.2 1.035-.568 1.399a1.931 1.931 0 01-1.367.548h-.034c-1.078-.018-1.894-.846-1.898-1.928a1.94 1.94 0 01.573-1.402 1.927 1.927 0 011.398-.55z" fill="url(#paint8_linear_1_43)"/><defs><linearGradient id="paint0_linear_1_43" x1="80" y1="76.052" x2="-14.555" y2="46.377" gradientUnits="userSpaceOnUse"><stop stop-color="#0075BF"/><stop offset="1" stop-color="#005CA9"/></linearGradient><linearGradient id="paint1_linear_1_43" x1="27.669" y1="71.244" x2="14.995" y2="67.463" gradientUnits="userSpaceOnUse"><stop stop-color="#0075BF"/><stop offset="1" stop-color="#005CA9"/></linearGradient><linearGradient id="paint2_linear_1_43" x1="39.889" y1="71.244" x2="27.215" y2="67.462" gradientUnits="userSpaceOnUse"><stop stop-color="#0075BF"/><stop offset="1" stop-color="#005CA9"/></linearGradient><linearGradient id="paint3_linear_1_43" x1="15.44" y1="71.244" x2="2.764" y2="67.461" gradientUnits="userSpaceOnUse"><stop stop-color="#0075BF"/><stop offset="1" stop-color="#005CA9"/></linearGradient><linearGradient id="paint4_linear_1_43" x1="52.094" y1="71.224" x2="39.447" y2="67.453" gradientUnits="userSpaceOnUse"><stop stop-color="#0075BF"/><stop offset="1" stop-color="#005CA9"/></linearGradient><linearGradient id="paint5_linear_1_43" x1="68.276" y1="9.899" x2="63.66" y2="8.528" gradientUnits="userSpaceOnUse"><stop stop-color="#0075BF"/><stop offset="1" stop-color="#005CA9"/></linearGradient><linearGradient id="paint6_linear_1_43" x1="54.913" y1="19.196" x2="50.263" y2="17.801" gradientUnits="userSpaceOnUse"><stop stop-color="#0075BF"/><stop offset="1" stop-color="#005CA9"/></linearGradient><linearGradient id="paint7_linear_1_43" x1="62.443" y1="19.196" x2="57.798" y2="17.805" gradientUnits="userSpaceOnUse"><stop stop-color="#0075BF"/><stop offset="1" stop-color="#005CA9"/></linearGradient><linearGradient id="paint8_linear_1_43" x1="47.367" y1="19.196" x2="42.753" y2="17.824" gradientUnits="userSpaceOnUse"><stop stop-color="#0075BF"/><stop offset="1" stop-color="#005CA9"/></linearGradient></defs></svg>