<svg width="90" height="101" fill="none" xmlns="http://www.w3.org/2000/svg"><path d="M44.492 100.532c-.834-.482-1.184-1.192-1.167-2.359.039-2.703.033-5.45.027-8.107-.002-1.308-.005-2.615-.003-3.923.002-1.09.487-1.78 1.365-1.944a1.63 1.63 0 01.296-.027c.885 0 1.612.708 1.62 1.579.033 3.826.024 7.717.014 11.48l-.004 1.725c-.002.736-.492 1.142-1.145 1.576h-1.003zm37.96-12.915c-.175-.094-.34-.176-.489-.251-.374-.188-.67-.336-.88-.543a764.859 764.859 0 01-8.128-8.142c-.784-.796-.83-1.734-.121-2.45.33-.332.722-.508 1.134-.508.452 0 .903.21 1.304.607 2.313 2.294 4.648 4.645 6.907 6.918l1.22 1.228c.46.462.906 1.17.432 1.927-.216.344-.587.62-.98.911-.132.098-.267.198-.4.303zM7.598 87.44c-.4 0-.785-.174-1.112-.504-.724-.73-.654-1.672.185-2.522 1.747-1.766 3.501-3.525 5.256-5.284.909-.91 1.817-1.822 2.725-2.734.314-.315.798-.69 1.323-.69.226 0 .45.069.668.205.339.214.61.59.899.988.099.138.2.278.308.416-.103.178-.193.346-.276.5-.21.391-.377.7-.603.932a848.047 848.047 0 01-7.975 8.018c-.444.442-.928.675-1.398.675zm37.128-9.822c-8.304-.069-16.55-2.626-24.508-7.602C12.754 65.35 6.173 59.175.658 51.664c-.88-1.199-.878-1.62.014-2.814 7.84-10.493 16.679-17.761 27.02-22.22 5.746-2.477 11.578-3.734 17.334-3.734 6.3 0 12.678 1.505 18.957 4.471 9.77 4.617 18.093 11.689 25.446 21.62.733.99.755 1.53.1 2.413-8.57 11.533-18.319 19.232-29.807 23.536-4.716 1.767-9.622 2.644-14.996 2.68zm.284-51.39c-6.034 0-12.147 1.487-18.169 4.42-8.339 4.06-15.709 10.212-22.53 18.805-.636.803-.207 1.346.106 1.742 5.307 6.713 11.018 11.929 17.457 15.944 7.522 4.69 15.2 7.099 22.823 7.162 5.761-.02 11.154-1.167 16.49-3.507 9.117-3.999 17.132-10.449 24.502-19.719.529-.664.365-1.144-.044-1.661-6.163-7.796-12.815-13.575-20.336-17.669-6.727-3.661-13.557-5.518-20.3-5.518zm-.09 41.565a17.437 17.437 0 01-13.143-6.184 17.63 17.63 0 01-3.967-14.124c.17-1.096.792-1.75 1.66-1.75.07 0 .14.005.212.013.476.054.858.252 1.105.574.294.383.398.934.3 1.594-.572 3.894.246 7.437 2.433 10.531 2.64 3.737 6.922 5.967 11.454 5.966 1.735 0 3.445-.32 5.083-.95 5.917-2.275 9.696-8.394 8.986-14.548-.762-6.606-5.608-11.688-12.059-12.645a13.23 13.23 0 00-1.932-.142c-1.573 0-3.174.272-4.896.832a2.728 2.728 0 01-.837.144c-.709 0-1.233-.356-1.477-1-.17-.449-.164-.887.015-1.268.21-.448.642-.795 1.248-1.003 2.037-.7 4.064-1.054 6.023-1.054 2.984 0 5.906.822 8.684 2.443 6.271 3.66 9.625 10.899 8.346 18.013-1.334 7.415-6.927 13.01-14.247 14.252-.669.114-1.366.17-2.04.224-.318.025-.635.05-.951.082zm.014-9.942a7.459 7.459 0 01-5.299-2.257 7.584 7.584 0 01-2.192-5.418c.037-4.132 3.438-7.493 7.582-7.493h.088c4.121.047 7.46 3.468 7.443 7.625-.017 4.16-3.412 7.543-7.569 7.543h-.053zM44.996 46c-2.343.002-4.248 1.917-4.246 4.269.002 2.35 1.908 4.262 4.25 4.262a4.264 4.264 0 004.25-4.27c-.003-2.35-1.91-4.26-4.252-4.26h-.003zm-11.812-3.96c-.433 0-.845-.176-1.16-.495a1.642 1.642 0 01-.483-1.176c.01-.874.752-1.622 1.621-1.634.458 0 .871.176 1.187.496.317.32.488.737.483 1.174-.01.873-.754 1.621-1.623 1.634h-.025zM16.056 26.784c-.47 0-.956-.236-1.405-.682-2.413-2.4-4.851-4.855-7.21-7.229l-.846-.851c-.458-.461-.904-1.17-.425-1.926.217-.343.59-.617.985-.906.132-.097.268-.197.4-.302.175.095.338.178.487.254.374.19.669.339.88.546 2.4 2.364 4.962 4.928 8.062 8.07.837.849.904 1.792.178 2.524-.327.328-.71.502-1.106.502zm57.904-.001c-.39 0-.77-.165-1.095-.476-.34-.324-.522-.711-.528-1.12-.007-.475.218-.957.648-1.393 2.014-2.043 4.075-4.106 6.068-6.102l1.982-1.985c.3-.302.766-.66 1.28-.66.214 0 .427.063.633.19.347.21.63.579.931.969.103.133.208.27.32.405-.099.18-.185.351-.264.506-.2.395-.36.708-.581.935a780.049 780.049 0 01-8.043 8.088c-.424.42-.89.643-1.351.643zM44.99 16.358c-.887 0-1.614-.708-1.621-1.579-.032-3.828-.023-7.722-.014-11.488l.003-1.716C43.36.84 43.85.435 44.504 0h1.004c.833.481 1.183 1.192 1.166 2.36a490.826 490.826 0 00-.027 8.034c.003 1.332.006 2.663.003 3.994-.003 1.121-.53 1.834-1.448 1.956-.071.01-.142.014-.213.014z" fill="#0075BF"/></svg>