<svg width="90" height="90" fill="none" xmlns="http://www.w3.org/2000/svg"><path d="M.88 89.996c-.597-.433-1.089-.932-.79-1.75.293-.807.978-.975 1.723-.875.719.098 1.1-.251 1.486-.79 5.333-7.418 10.78-14.755 15.98-22.264 2.068-2.985 5.421-3.74 7.897-.78 1.07-1.477 2.134-2.94 3.194-4.408 4.147-5.746 8.292-11.493 12.438-17.24.086-.118.153-.262.264-.349 1.176-.914 1.208-2.163 1.204-3.521-.036-11.103-.023-22.206-.018-33.308.001-2.296 1.18-3.969 3.153-4.534 2.231-.64 4.539.497 5.314 2.707.222.632.524.762 1.127.759 4.13-.023 8.26-.017 12.391-.01 2.513.003 3.838 1.337 3.848 3.855.005 1.433 0 2.866 0 4.43 1.224 0 2.389.065 3.544-.01 3.903-.258 5.444 1.077 5.14 5.191-.02.291.008.586-.007.878-.043.845-.533 1.362-1.287 1.37-.747.007-1.29-.504-1.33-1.338-.041-.848-.017-1.699-.015-2.548.002-.564-.25-.895-.834-.897-1.695-.007-3.389-.003-5.21-.003 0 1.249.004 2.437-.003 3.626-.003.556.02 1.118-.055 1.666-.242 1.758-1.578 2.95-3.359 2.982-1.608.03-3.216.006-4.932.006 0 1.685-.036 3.316.038 4.94.012.247.537.67.827.673 4.218.044 8.437.032 12.655.03.631 0 .88-.353.874-.953a200.24 200.24 0 010-2.9c.008-1.1.484-1.732 1.305-1.75.829-.017 1.324.608 1.33 1.7.005 1.085.022 2.17-.01 3.252-.053 1.816-1.43 3.255-3.243 3.27a742.6 742.6 0 01-13.182 0c-1.855-.019-3.207-1.517-3.242-3.473-.028-1.55-.006-3.101-.006-4.72h-6.004c-.014.306-.039.59-.04.875-.002 5.215-.015 10.43.023 15.644.003.46.268.965.536 1.366.552.825 1.205 1.582 1.788 2.388 6.705 9.28 13.405 18.564 20.106 27.847.794 1.1.837 1.85.142 2.385-.72.555-1.472.277-2.285-.849-1.149-1.59-2.27-3.201-3.464-4.757-.237-.309-.742-.568-1.13-.579-2.109-.056-4.219-.05-6.328-.02-1.754.026-3.094-.661-4.104-2.096-1.467-2.083-2.994-4.123-4.46-6.206-.54-.765-1.19-1.146-2.14-1.096-.964.05-1.933.015-2.9.009-1.57-.01-2.834-.633-3.76-1.91-1.34-1.85-2.674-3.704-4.012-5.554-.166-.23-.348-.449-.572-.735-.916 1.266-1.79 2.472-2.66 3.679-2.88 3.988-5.75 7.984-8.649 11.958-.33.454-.352.747-.017 1.21 4.918 6.779 9.81 13.575 14.735 20.349.198.272.644.519.975.52 12.832.025 25.663.022 38.494.02.163 0 .326-.021.622-.042-.54-.756-1.006-1.417-1.48-2.073-1.677-2.328-3.357-4.655-5.036-6.981-.403-.559-.54-1.219-.017-1.671.354-.307.99-.435 1.477-.391.313.028.633.479.867.8a986.765 986.765 0 016.987 9.69c.367.518.745.764 1.367.673.804-.119 1.426.177 1.85.875v1.757l-89.12.001zm5.129-2.685h34.92c-.229-.338-.396-.602-.579-.855-5.054-7.004-10.11-14.006-15.166-21.008-1.187-1.645-2.215-1.634-3.42.035-3.411 4.724-6.822 9.447-10.232 14.172-1.813 2.511-3.625 5.024-5.523 7.656zm61.526-22.795c-1.069-1.485-2.052-2.854-3.039-4.222-4.094-5.673-8.18-11.353-12.29-17.015-1.897-2.613-5.191-2.619-7.115-.038a95.975 95.975 0 00-2.605 3.642c-.143.21-.16.679-.021.878 1.546 2.205 3.135 4.38 4.71 6.564.427.591.996.873 1.727.863.937-.013 1.876.03 2.812-.01 1.867-.08 3.252.694 4.312 2.211a234.462 234.462 0 004.48 6.19c.294.393.788.872 1.212.894 1.882.097 3.773.042 5.817.042zM53.115 6.31v13.895h.675c4.129 0 8.257.001 12.386-.002 1.074 0 1.276-.2 1.277-1.284.005-3.777.004-7.554 0-11.331 0-1.17-.148-1.32-1.315-1.32-4.07-.004-8.14-.003-12.21 0-.257 0-.514.026-.812.042zm-2.749 13.867c.017-.28.04-.478.04-.677.002-4.913.004-9.826-.004-14.74 0-.316-.03-.652-.135-.947-.275-.77-.859-1.183-1.673-1.165-.815.018-1.384.462-1.622 1.239-.1.326-.077.695-.077 1.044-.004 4.767-.004 9.534-.001 14.3 0 .309.026.616.042.946h3.43zm-3.423 2.69V38.76h3.397V22.868h-3.397z" fill="#0075BF"/></svg>