<svg id="Layer_2" xmlns="http://www.w3.org/2000/svg" viewBox="0 0 175 64.377"><defs><linearGradient id="linear-gradient" x1="1.089" y1="40.522" x2="63.288" y2="23.856" gradientUnits="userSpaceOnUse"><stop offset=".168" stop-color="#009fe3"/><stop offset="1" stop-color="#005ca9"/></linearGradient><style>.cls-2{fill:#1d1d1b}</style></defs><g id="Layer_1-2"><path class="cls-2" d="M81.452 14.146a6.321 6.321 0 002.175 1.438c.843.34 1.774.512 2.791.512s1.944-.172 2.782-.512 1.564-.821 2.175-1.438a6.421 6.421 0 001.421-2.203c.336-.848.503-1.782.503-2.798s-.166-1.948-.503-2.791a6.46 6.46 0 00-1.421-2.194A6.447 6.447 0 0089.2 2.722c-.837-.342-1.765-.512-2.782-.512s-1.948.17-2.791.512a6.312 6.312 0 00-2.175 1.438 6.534 6.534 0 00-1.414 2.194c-.335.843-.503 1.774-.503 2.791s.168 1.95.503 2.798c.336.85.806 1.584 1.414 2.203zm.2-7.099a5.137 5.137 0 011.065-1.691c.457-.479 1-.852 1.63-1.118.63-.264 1.32-.397 2.072-.397s1.442.133 2.072.397a4.925 4.925 0 011.638 1.118 5.007 5.007 0 011.066 1.691c.248.647.371 1.346.371 2.098s-.124 1.449-.371 2.098a4.984 4.984 0 01-1.066 1.689 4.973 4.973 0 01-1.638 1.127c-.63.272-1.321.407-2.072.407s-1.442-.135-2.072-.407-1.174-.647-1.63-1.127a5.134 5.134 0 01-1.065-1.689c-.255-.649-.383-1.347-.383-2.098s.128-1.451.383-2.098zm15.826 12.681a.88.88 0 00.242-.634v-4.68c.405.486.893.871 1.464 1.153a4.186 4.186 0 001.881.425c.843 0 1.601-.211 2.271-.634a4.513 4.513 0 001.586-1.715c.386-.723.58-1.541.58-2.454s-.211-1.732-.632-2.46a4.72 4.72 0 00-1.708-1.726c-.717-.421-1.532-.632-2.445-.632-.9 0-1.71.211-2.427.632-.715.423-1.283.998-1.699 1.726s-.63 1.549-.641 2.46v7.905a.858.858 0 00.883.885.86.86 0 00.643-.251zm.571-10.211c.266-.49.632-.878 1.102-1.161a2.971 2.971 0 011.567-.425c.59 0 1.116.142 1.578.425s.83.671 1.102 1.161c.27.492.407 1.05.407 1.673a3.38 3.38 0 01-.407 1.656 3.097 3.097 0 01-1.102 1.163c-.462.283-.989.423-1.578.423-.577 0-1.1-.14-1.567-.423-.469-.285-.835-.671-1.102-1.163s-.399-1.042-.399-1.656c0-.623.133-1.181.399-1.673zm10.489-1.238h-.798c-.242 0-.438-.07-.588-.209a.672.672 0 01-.225-.519c0-.231.074-.416.225-.554.15-.139.346-.209.588-.209h.798V4.293a.85.85 0 01.242-.625.842.842 0 01.625-.242c.253 0 .462.079.623.242.163.163.244.37.244.625v2.495h1.473c.242 0 .44.07.59.209s.225.323.225.554c0 .207-.076.381-.225.519s-.347.209-.59.209h-1.473v4.28c0 .464.128.85.381 1.163.255.312.566.468.937.468h.588c.209 0 .384.081.53.242a.908.908 0 01.216.625.786.786 0 01-.286.625c-.19.161-.436.242-.737.242h-.311c-.578 0-1.1-.148-1.562-.442a3.098 3.098 0 01-1.09-1.205c-.266-.508-.399-1.081-.399-1.717V8.28zm8.25-1.595c.163.163.244.375.244.641v7.714a.871.871 0 01-.244.632c-.161.168-.375.251-.641.251a.857.857 0 01-.883-.883V7.324c0-.266.083-.479.251-.641a.867.867 0 01.632-.242c.266 0 .481.079.641.242zm-1.447-2.124c-.225-.225-.338-.493-.338-.806s.113-.58.338-.806.493-.338.806-.338.58.113.806.338.338.493.338.806-.113.58-.338.806-.493.338-.806.338-.58-.113-.806-.338zm5.234 11.128a.85.85 0 01-.251-.632V7.341c0-.264.083-.479.251-.641a.878.878 0 01.632-.242c.266 0 .481.081.643.242.159.161.239.373.241.633.185-.184.38-.356.608-.495.532-.323 1.139-.484 1.82-.484.658 0 1.242.144 1.75.432.405.231.718.572.981.974.286-.365.616-.688 1.04-.922.584-.323 1.251-.484 2.002-.484.66 0 1.242.144 1.75.432.51.29.906.713 1.188 1.275.283.56.425 1.238.425 2.037v4.957a.865.865 0 01-.244.632c-.161.168-.375.251-.641.251a.857.857 0 01-.883-.883v-4.957c0-.728-.179-1.27-.538-1.621-.359-.353-.826-.529-1.403-.529-.603 0-1.096.207-1.482.623-.388.416-.582.948-.582 1.595v4.889a.863.863 0 01-.242.632c-.161.168-.375.251-.641.251a.854.854 0 01-.632-.251.85.85 0 01-.251-.632v-4.957c0-.728-.179-1.27-.538-1.621-.359-.353-.826-.529-1.405-.529-.601 0-1.098.207-1.49.623-.394.416-.59.948-.59 1.595v4.889a.872.872 0 01-.242.632c-.163.168-.377.251-.643.251a.857.857 0 01-.632-.251zm16.362-1.689c-.364-.66-.545-1.467-.545-2.427V7.307a.858.858 0 01.883-.885c.255 0 .466.085.634.251a.866.866 0 01.251.634v4.264c0 .647.12 1.181.364 1.602.242.423.571.736.987.937s.885.303 1.405.303c.497 0 .939-.098 1.325-.294a2.45 2.45 0 00.928-.798c.231-.335.347-.71.347-1.127V7.307c0-.266.083-.481.251-.643a.875.875 0 01.632-.242c.266 0 .481.081.641.242.163.163.244.377.244.643v7.731a.871.871 0 01-.244.632c-.161.168-.375.251-.641.251a.857.857 0 01-.883-.883v-.202a3.878 3.878 0 01-.876.669c-.606.335-1.297.503-2.072.503-.797 0-1.51-.17-2.14-.512a3.694 3.694 0 01-1.492-1.499zm22.493-5.521c-.359-.353-.826-.529-1.403-.529-.603 0-1.096.207-1.482.623-.388.416-.582.948-.582 1.595v4.889a.863.863 0 01-.242.632c-.161.168-.375.251-.641.251a.854.854 0 01-.632-.251.85.85 0 01-.251-.632v-4.957c0-.728-.179-1.27-.538-1.621-.359-.353-.826-.529-1.405-.529-.601 0-1.098.207-1.49.623-.394.416-.59.948-.59 1.595v4.889a.872.872 0 01-.242.632c-.163.168-.377.251-.643.251a.857.857 0 01-.883-.883V7.341c0-.264.083-.479.251-.641a.878.878 0 01.632-.242c.266 0 .481.081.643.242.159.161.239.373.241.633.185-.184.38-.356.608-.495.532-.323 1.139-.484 1.82-.484.658 0 1.242.144 1.75.432.405.231.718.572.981.974.286-.365.616-.688 1.04-.922.584-.323 1.251-.484 2.002-.484.66 0 1.242.144 1.75.432.51.29.906.713 1.188 1.275.283.56.425 1.238.425 2.037v4.957a.865.865 0 01-.244.632c-.161.168-.375.251-.641.251a.857.857 0 01-.883-.883v-4.957c0-.728-.179-1.27-.538-1.621zM92.815 24.053c.253 0 .468.083.641.251s.259.384.259.651v11.734a.853.853 0 01-.268.641.878.878 0 01-.632.261.867.867 0 01-.641-.261.866.866 0 01-.261-.641v-8.618l-4.195 8.55c-.196.299-.457.451-.78.451-.381 0-.658-.179-.832-.538l-4.144-8.305v8.46a.872.872 0 01-.259.641.872.872 0 01-.641.261.866.866 0 01-.641-.261.866.866 0 01-.261-.641V24.955c0-.266.087-.482.261-.651a.88.88 0 01.641-.251c.346 0 .612.161.797.484l5.146 10.307 5.012-10.307c.185-.323.451-.484.798-.484zm10.919 4.619c-.715-.421-1.525-.632-2.427-.632s-1.713.211-2.436.632c-.721.423-1.294.998-1.715 1.726s-.632 1.549-.632 2.46.192 1.732.58 2.454a4.482 4.482 0 001.586 1.715c.669.423 1.427.634 2.271.634s1.601-.211 2.27-.634c.422-.265.767-.611 1.076-.994v.691a.85.85 0 00.251.632.854.854 0 00.632.251.85.85 0 00.632-.251.85.85 0 00.251-.632v-3.866c0-.911-.211-1.732-.632-2.46s-.991-1.303-1.708-1.726zm.244 5.842c-.266.492-.63.878-1.092 1.163-.462.283-.989.423-1.578.423-.578 0-1.1-.14-1.569-.423-.468-.285-.837-.671-1.109-1.163s-.407-1.042-.407-1.656c0-.623.135-1.181.407-1.673.272-.49.641-.878 1.109-1.161a2.976 2.976 0 011.569-.425c.59 0 1.116.142 1.578.425s.826.671 1.092 1.161c.264.492.397 1.05.397 1.673 0 .614-.133 1.164-.397 1.656zm8.944-6.474c.682 0 1.307.129 1.872.39a4.529 4.529 0 011.527 1.17c.161.185.218.375.172.573-.046.196-.172.37-.381.519a.66.66 0 01-.538.113 1.046 1.046 0 01-.536-.303c-.567-.601-1.272-.902-2.116-.902-.59 0-1.109.137-1.56.408s-.804.649-1.057 1.135c-.255.486-.381 1.057-.381 1.715 0 .625.129 1.179.39 1.665.259.484.621.869 1.083 1.153.462.283 1 .423 1.612.423.405 0 .76-.048 1.066-.146s.586-.251.841-.46c.185-.15.375-.235.571-.251a.685.685 0 01.521.164c.196.163.305.344.329.547a.641.641 0 01-.209.545c-.832.774-1.872 1.163-3.12 1.163-.924 0-1.748-.211-2.469-.634a4.565 4.565 0 01-1.7-1.715c-.41-.723-.614-1.541-.614-2.454 0-.935.201-1.767.606-2.495s.959-1.297 1.663-1.708c.706-.41 1.514-.615 2.427-.615zm12.967 2.807a2.276 2.276 0 00-.98-.926c-.41-.203-.882-.303-1.412-.303-.486 0-.926.098-1.318.294-.394.196-.706.46-.937.789s-.346.708-.346 1.135v4.889a.872.872 0 01-.242.632c-.163.168-.377.251-.643.251a.857.857 0 01-.883-.883V24.937c0-.266.083-.479.251-.641a.878.878 0 01.632-.242c.266 0 .481.081.643.242.161.163.242.375.242.641v4.257a3.93 3.93 0 01.883-.668c.614-.336 1.301-.503 2.063-.503.798 0 1.512.17 2.142.51a3.7 3.7 0 011.49 1.501c.364.658.547 1.467.547 2.427v4.264a.858.858 0 01-.885.883.857.857 0 01-.883-.883v-4.264c0-.66-.122-1.196-.364-1.613zm7.28-5.425c0 .312-.113.58-.338.806s-.493.338-.806.338-.58-.113-.806-.338-.338-.493-.338-.806.113-.58.338-.806.493-.338.806-.338.58.113.806.338.338.493.338.806zm-.503 2.929c.163.163.244.375.244.641v7.714a.871.871 0 01-.244.632c-.161.168-.375.251-.641.251a.857.857 0 01-.883-.883v-7.714c0-.266.083-.479.251-.641a.867.867 0 01.632-.242c.266 0 .481.079.641.242zm5.062 9.005c-.163.168-.377.251-.643.251a.857.857 0 01-.883-.883v-7.731c0-.266.083-.479.251-.641s.379-.242.632-.242c.266 0 .481.079.643.242.161.163.242.375.242.641v.2a3.93 3.93 0 01.883-.668c.614-.336 1.301-.503 2.063-.503.798 0 1.512.17 2.142.51a3.7 3.7 0 011.49 1.501c.364.658.547 1.467.547 2.427v4.264a.858.858 0 01-.885.883.857.857 0 01-.883-.883V32.46c0-.66-.122-1.196-.364-1.613a2.276 2.276 0 00-.98-.926c-.41-.203-.882-.303-1.412-.303-.486 0-.926.098-1.318.294-.394.196-.706.46-.937.789s-.346.708-.346 1.135v4.889a.872.872 0 01-.242.632zm16.815-8.718c-.649-.399-1.421-.599-2.323-.599-.913 0-1.723.205-2.427.615-.706.41-1.257.976-1.656 1.699s-.597 1.558-.597 2.504c0 .937.211 1.767.632 2.488.421.723 1.005 1.29 1.75 1.7s1.599.615 2.558.615c.53 0 1.089-.1 1.673-.296.582-.196 1.072-.451 1.464-.763.196-.15.288-.329.277-.536-.011-.209-.115-.399-.312-.573a.75.75 0 00-.529-.181.986.986 0 00-.562.198c-.233.174-.536.327-.911.46s-.743.2-1.1.2c-.66 0-1.244-.144-1.752-.434a3.159 3.159 0 01-1.196-1.177c-.191-.33-.295-.701-.36-1.092h6.566a.79.79 0 00.571-.216.723.723 0 00.225-.547c0-.913-.17-1.719-.51-2.417a3.897 3.897 0 00-1.482-1.647zm-4.014 1.325c.469-.288 1.031-.432 1.691-.432.577 0 1.068.133 1.473.397.405.266.717.628.937 1.085.154.321.238.683.289 1.065h-5.741a3.54 3.54 0 01.286-.926 2.791 2.791 0 011.065-1.188zm14.457-1.621c.342.225.471.493.39.806-.035.163-.102.286-.2.373s-.211.142-.338.164a1.024 1.024 0 01-.416-.017c-.739-.152-1.403-.163-1.992-.035s-1.055.364-1.395.71c-.342.347-.512.787-.512 1.318v5.062c0 .277-.072.492-.216.641s-.362.225-.651.225c-.277 0-.492-.072-.641-.216s-.225-.362-.225-.651v-7.748c0-.279.076-.492.225-.643.15-.15.364-.224.641-.224.288 0 .506.072.651.216s.216.36.216.651v.363c.286-.33.607-.626 1.005-.849.578-.323 1.214-.486 1.907-.486s1.211.113 1.551.338zm9.906.944l-5.304 11.927c-.139.359-.364.538-.676.538-.115 0-.253-.035-.416-.104-.508-.231-.647-.595-.416-1.092l1.729-3.904-3.895-7.398c-.116-.22-.131-.431-.044-.634a.83.83 0 01.46-.442.807.807 0 01.623-.026.819.819 0 01.451.442l3.178 6.312 2.786-6.294c.231-.486.595-.625 1.092-.418.519.22.664.584.432 1.092zM88.793 47.384h-3.728v10.971a.872.872 0 01-.259.641.872.872 0 01-.641.261.873.873 0 01-.643-.261.872.872 0 01-.259-.641V47.384h-3.744a.818.818 0 01-.599-.233c-.155-.157-.233-.357-.233-.599s.078-.442.233-.599a.818.818 0 01.599-.233h9.274a.81.81 0 01.597.233c.157.157.235.357.235.599s-.078.442-.235.599a.81.81 0 01-.597.233zm6.423 2.626c.342.225.471.493.39.806-.035.163-.102.286-.2.373s-.211.142-.338.164a1.024 1.024 0 01-.416-.017c-.739-.152-1.403-.163-1.992-.035s-1.055.364-1.395.71c-.342.347-.512.787-.512 1.318v5.06c0 .277-.072.492-.216.641s-.362.225-.651.225c-.277 0-.492-.072-.641-.216s-.225-.362-.225-.651v-7.746c0-.279.076-.492.225-.643.15-.15.364-.224.641-.224.288 0 .506.072.651.216s.216.36.216.651v.363c.286-.33.607-.626 1.005-.849.578-.323 1.214-.486 1.907-.486s1.211.113 1.551.338zm8.26.329c-.715-.421-1.525-.632-2.427-.632s-1.713.211-2.436.632c-.721.423-1.294.998-1.715 1.726s-.632 1.549-.632 2.46.192 1.732.58 2.454a4.476 4.476 0 001.586 1.713c.669.423 1.427.634 2.271.634s1.601-.211 2.27-.634c.422-.265.767-.61 1.076-.993v.69a.85.85 0 00.251.632.854.854 0 00.632.251.85.85 0 00.632-.251.85.85 0 00.251-.632v-3.865c0-.911-.211-1.732-.632-2.46s-.991-1.303-1.708-1.726zm.244 5.842c-.266.492-.63.878-1.092 1.163-.462.283-.989.421-1.578.421-.578 0-1.1-.139-1.569-.421-.468-.285-.837-.671-1.109-1.163s-.407-1.042-.407-1.656c0-.623.135-1.181.407-1.673.272-.49.641-.878 1.109-1.161a2.976 2.976 0 011.569-.425c.59 0 1.116.142 1.578.425s.826.671 1.092 1.161c.264.492.397 1.05.397 1.673 0 .614-.133 1.164-.397 1.656zm12.914-10.461a.875.875 0 00-.632.242c-.168.163-.251.375-.251.641v4.682a4.255 4.255 0 00-3.345-1.578c-.845 0-1.602.211-2.271.632a4.495 4.495 0 00-1.586 1.717c-.388.723-.58 1.54-.58 2.453s.211 1.734.632 2.462.994 1.301 1.715 1.723c.723.423 1.534.634 2.436.634s1.711-.211 2.427-.634c.717-.421 1.286-.994 1.708-1.723s.632-1.549.632-2.462v-7.905c0-.266-.079-.479-.242-.641-.161-.161-.375-.242-.641-.242zm-1.212 10.452c-.266.497-.63.887-1.092 1.172-.462.283-.989.421-1.578.421-.578 0-1.1-.139-1.569-.421a3.066 3.066 0 01-1.109-1.172 3.396 3.396 0 01-.407-1.663c0-.625.135-1.179.407-1.663a3.07 3.07 0 011.109-1.153 2.976 2.976 0 011.569-.425c.59 0 1.116.142 1.578.425s.826.667 1.092 1.153c.264.484.397 1.039.397 1.663 0 .614-.133 1.168-.397 1.663zm7.079-9.888c.225.225.338.493.338.806s-.113.58-.338.806-.493.338-.806.338-.58-.113-.806-.338-.338-.493-.338-.806.113-.58.338-.806.493-.338.806-.338.58.113.806.338zm-.164 3.735c.163.163.244.375.244.641v7.713a.871.871 0 01-.244.632c-.161.168-.375.251-.641.251a.857.857 0 01-.883-.883V50.66c0-.266.083-.479.251-.641a.867.867 0 01.632-.242c.266 0 .481.079.641.242zm11.884 1.682c.364.658.547 1.467.547 2.427v4.262a.858.858 0 01-.885.883.857.857 0 01-.883-.883v-4.262c0-.66-.122-1.196-.364-1.613a2.276 2.276 0 00-.98-.926c-.41-.203-.882-.303-1.412-.303-.486 0-.926.098-1.318.294-.394.196-.706.46-.937.789s-.346.708-.346 1.135v4.887a.872.872 0 01-.242.632c-.163.168-.377.251-.643.251a.857.857 0 01-.883-.883v-7.729c0-.266.083-.479.251-.641s.379-.242.632-.242c.266 0 .481.079.643.242.161.163.242.375.242.641v.2a3.93 3.93 0 01.883-.668c.614-.336 1.301-.503 2.063-.503.798 0 1.512.17 2.142.51a3.7 3.7 0 011.49 1.501zm10.234-1.379c-.717-.41-1.538-.615-2.462-.615-.935 0-1.761.205-2.478.615s-1.281.976-1.691 1.699-.614 1.558-.614 2.504c0 .937.19 1.767.571 2.488s.904 1.288 1.569 1.699c.664.41 1.431.615 2.297.615.797 0 1.501-.205 2.114-.615.54-.362.961-.867 1.299-1.471v.907c0 .75-.139 1.386-.416 1.906-.277.521-.651.913-1.118 1.179s-.98.399-1.534.399c-.601 0-1.139-.111-1.612-.329a3.202 3.202 0 01-1.179-.919c-.139-.185-.32-.301-.545-.347s-.442 0-.651.139a.775.775 0 00-.338.503c-.041.209.015.41.164.606.497.625 1.103 1.098 1.82 1.421s1.484.486 2.305.486c.948 0 1.784-.22 2.506-.658a4.626 4.626 0 001.689-1.778c.405-.745.606-1.575.606-2.488v-3.743c0-.946-.205-1.782-.614-2.504a4.472 4.472 0 00-1.691-1.699zm-.867 7.029c-.462.277-.994.414-1.595.414s-1.133-.137-1.595-.414-.826-.658-1.092-1.144c-.266-.484-.397-1.046-.397-1.682s.131-1.198.397-1.689.63-.876 1.092-1.153.994-.416 1.595-.416 1.133.139 1.595.416.824.662 1.083 1.153c.261.492.39 1.055.39 1.689s-.129 1.198-.39 1.682a2.896 2.896 0 01-1.083 1.144z"/><path d="M25.681 48.003V37.946h-.849c-.826 0-1.496-.67-1.496-1.496v-3.818h17.707v3.818c0 .826-.67 1.496-1.496 1.496h-.849v10.059l.001.174c.113 8.506 10.798 12.43 16.696 6.3 5.562-5.781 8.984-13.633 8.984-22.29C64.377 14.411 49.966 0 32.189 0c-.983 0-1.952.061-2.913.147 5.624 3.227 9.421 9.278 9.421 16.227v10.057h.849c.826 0 1.496.67 1.496 1.496v3.818H23.335v-3.818c0-.826.67-1.496 1.496-1.496h.849V16.372l-.001-.174c-.113-8.505-10.798-12.43-16.696-6.3C3.422 15.68 0 23.532 0 32.189c0 17.777 14.411 32.189 32.189 32.189.983 0 1.952-.061 2.913-.147-5.624-3.227-9.421-9.278-9.421-16.227z" fill="url(#linear-gradient)"/><path class="cls-2" d="M23.335 29.808h17.707v4.762H23.335z"/></g></svg>