<svg width="90" height="91" fill="none" xmlns="http://www.w3.org/2000/svg"><path d="M46.724 12.176c0 3.322.008 6.644-.003 9.966-.005 1.61-.591 2.193-2.182 2.223-10.534.2-19.201 8.268-20.277 18.874-1.123 11.07 5.92 20.789 16.67 23.005 11.032 2.274 22.555-5.585 24.583-16.79.221-1.224.313-2.475.406-3.718.1-1.355.67-1.991 2.024-1.994 6.676-.014 13.352-.014 20.028 0 1.277.002 2.023.695 2.027 1.775.005 1.103-.72 1.748-2.013 1.755-2.019.011-4.038.026-6.056-.006-.893-.014-1.286.34-1.363 1.253-1.289 15.358-11.96 28.194-26.718 32.168-1.703.459-2.83-.36-2.606-1.895.145-.995.895-1.293 1.712-1.506 2.98-.776 5.807-1.934 8.422-3.572C70.412 68.06 75.59 59.876 77.02 49.255c.044-.325.044-.656.07-.983.059-.699-.246-1.055-.95-1.054-1.954.002-3.908.003-5.862 0-.822 0-.98.53-1.08 1.224-1.226 8.52-5.56 14.873-13.077 18.964a21.82 21.82 0 01-8.154 2.536c-.947.102-1.262.516-1.257 1.46.03 5.591.015 11.182.015 16.773 0 .264.006.527-.002.79-.041 1.23-.688 1.984-1.704 1.992-1.016.008-1.707-.751-1.722-1.97-.022-1.841-.006-3.683-.007-5.525-.001-1.555-.09-1.664-1.619-1.825-7.651-.809-14.366-3.794-20.118-8.934-5.599-5.003-9.247-11.22-11.053-18.54-.296-1.199.152-2.125 1.116-2.374 1.046-.27 1.843.282 2.174 1.55 2.695 10.297 8.8 17.715 18.385 22.18 3.16 1.47 6.503 2.273 9.954 2.655.795.088 1.16-.262 1.16-1.048 0-2.006-.017-4.013.007-6.019.011-.903-.54-1.044-1.25-1.16-10.144-1.65-16.97-7.326-20.279-17.187-.456-1.358-.707-2.802-.904-4.228-.14-1.02-.605-1.299-1.55-1.294-5.731.026-11.463.015-17.194.011-1.145 0-1.837-.444-2.052-1.286-.313-1.221.505-2.232 1.878-2.25 1.92-.025 3.842-.007 5.764-.007 1.656 0 1.742-.072 1.883-1.747.53-6.324 2.567-12.119 6.106-17.351 4.88-7.217 11.507-12.053 19.787-14.579 1.33-.406 2.294.018 2.608 1.108.294 1.02-.319 1.895-1.583 2.3-12.593 4.024-20.257 12.582-23.047 25.601-.24 1.12-.31 2.278-.465 3.417-.118.872.218 1.297 1.125 1.285 1.79-.023 3.582-.026 5.373.002.855.014 1.194-.36 1.308-1.209 1.06-7.831 4.896-13.893 11.518-18.109a22.541 22.541 0 019.778-3.426c.901-.098 1.207-.51 1.203-1.409-.026-5.722-.016-11.445-.008-17.168 0-.423.015-.864.133-1.264.23-.788.824-1.172 1.622-1.157.755.015 1.313.398 1.534 1.145.108.37.134.775.135 1.165.01 3.289.006 6.577.006 9.866zm22.068 20.139c.986.055 1.719-.28 2.417-.992 3.827-3.898 7.68-7.77 11.56-11.615.646-.64 1.035-1.279.706-2.164-.335-.899-1.075-1.134-1.968-1.123-1.92.023-3.84.013-5.76.003-1.097-.005-1.382-.295-1.388-1.406-.01-1.94-.019-3.879.004-5.818.01-.893-.189-1.636-1.074-2.013-.897-.382-1.553.04-2.168.662a3385.595 3385.595 0 01-11.678 11.774c-.573.574-.833 1.2-.824 2.012.028 2.367-.016 4.734.026 7.1.012.723-.227 1.217-.725 1.72-4.6 4.65-9.177 9.325-13.76 13.994-.182.186-.374.37-.527.58-.534.733-.479 1.616.123 2.25.625.657 1.55.73 2.3.156.257-.197.478-.444.707-.677 4.472-4.548 8.949-9.092 13.403-13.657.544-.557 1.11-.84 1.89-.81 1.17.042 2.343.01 3.514.01 1.074 0 2.15-.046 3.221.014zm-5.608-3.484c-.784.004-1.21-.31-1.196-1.174.028-1.643-.025-3.287.031-4.928.014-.409.222-.9.503-1.197a335.823 335.823 0 016.5-6.676c.292-.29.937-.561 1.222-.424.306.147.485.773.534 1.211.085.746.007 1.51.029 2.265.034 1.202.7 1.873 1.899 1.904.878.024 1.762-.05 2.632.034.352.034.821.3.965.596.114.234-.088.77-.317 1.008a477.89 477.89 0 01-6.955 7.053c-.218.217-.636.295-.968.313-.81.044-1.626.014-2.439.014-.813 0-1.627-.005-2.44 0zM46.681 60.007c.833-.133 1.67-.29 2.477-.529 6.006-1.766 10.284-7.526 10.3-13.832.004-1.31-.804-2.117-1.981-1.979-.957.112-1.45.77-1.539 2.059-.442 6.356-4.74 10.701-10.722 10.837-5.57.127-10.338-3.987-11.116-9.594-.76-5.474 2.686-10.757 7.997-12.178.933-.25 1.924-.28 2.885-.427 1.004-.154 1.627-.87 1.59-1.8-.039-.962-.777-1.644-1.83-1.648-.454-.002-.909.063-1.36.114-7.67.88-13.222 7.536-12.821 15.366.39 7.596 6.778 13.688 14.368 13.722.584-.033 1.177-.019 1.752-.111z" fill="#0075BF"/></svg>