<svg width="90" height="102" fill="none" xmlns="http://www.w3.org/2000/svg"><path d="M41.435 0h7.132c2.217.736 3.19 2.353 3.383 4.613.123 1.445.426 2.875.608 4.317.084.667.348 1.005 1.051 1.164 3.633.824 7.019 2.274 10.178 4.24.471.294.773.292 1.21-.046 1.411-1.09 2.855-2.138 4.293-3.192 2.051-1.503 4.05-1.353 5.871.444a225.17 225.17 0 013.43 3.439c1.655 1.704 1.803 3.735.416 5.658a157.586 157.586 0 01-3.244 4.38c-.368.475-.346.813-.043 1.3a33.522 33.522 0 014.23 10.199c.155.663.469.906 1.109.99 1.799.233 3.591.515 5.383.796 2.127.334 3.516 1.939 3.543 4.111.022 1.753.018 3.506.001 5.26-.02 2.22-1.299 3.772-3.474 4.158-1.883.334-3.777.61-5.67.88-.491.07-.717.243-.838.76a34.601 34.601 0 01-4.339 10.475c-.274.44-.253.728.054 1.13a238.945 238.945 0 013.243 4.382c1.455 2 1.295 4.036-.453 5.81a430.018 430.018 0 01-3.29 3.298c-1.864 1.85-3.838 2.014-5.949.48-1.416-1.028-2.81-2.088-4.23-3.11-.24-.172-.66-.397-.844-.302-1.481.768-2.926 1.606-4.382 2.422 1.676 2.917 1.662 2.918 1.877 6.263.018.288.337.668.616.81 1.516.77 2.546 1.946 2.79 3.62.142.973-.055 1.996-.101 3.027 2.66 1.096 3.628 2.54 3.633 5.504.001.793-.04 1.59.01 2.38.057.895-.265 1.538-1.053 1.953h-45.17c-.789-.413-1.1-1.056-1.055-1.95.055-1.089.003-2.182.028-3.273.032-1.478.66-2.695 1.801-3.6.58-.459 1.282-.765 1.934-1.143-.967-3.235.296-5.558 3.25-6.857-.262-2.445.154-4.763 1.906-6.689-1.54-.864-2.93-1.677-4.36-2.411-.217-.112-.68.059-.93.237-1.48 1.051-2.92 2.156-4.392 3.22-1.911 1.38-3.973 1.225-5.645-.417a272.307 272.307 0 01-3.502-3.505c-1.697-1.73-1.853-3.773-.436-5.73a186.618 186.618 0 013.242-4.38c.338-.438.346-.748.054-1.216a34.096 34.096 0 01-4.3-10.379c-.128-.552-.363-.747-.896-.82-1.926-.27-3.853-.548-5.767-.894C1.357 51.446.05 49.863.02 47.83a193.577 193.577 0 01-.002-5.455c.029-2.16 1.429-3.745 3.575-4.078 1.791-.278 3.591-.508 5.374-.833.362-.065.885-.4.961-.704.993-3.938 2.532-7.635 4.698-11.04-.034-.1-.043-.172-.08-.222-1.167-1.601-2.344-3.195-3.506-4.8-1.457-2.01-1.3-4.02.452-5.803a265.9 265.9 0 013.431-3.435c1.733-1.7 3.757-1.844 5.72-.415 1.468 1.068 2.94 2.132 4.373 3.246.447.348.752.329 1.21.043 3.184-1.99 6.605-3.433 10.267-4.27.613-.141.86-.437.936-1.041.184-1.475.496-2.936.621-4.414C38.242 2.347 39.22.736 41.434 0zm10.42 36.707c0-1.092-.041-2.144.009-3.193.081-1.712 1.298-2.901 2.993-2.942a70.423 70.423 0 013.861.003c1.677.052 2.918 1.306 2.935 2.997.028 2.91.03 5.82-.003 8.73-.02 1.8-.91 3.132-2.405 4.08-.27.171-.55.323-.805.472.992 3.645.235 5.267-3.226 7.075-.15.078-.35.251-.356.388-.033.808-.016 1.618-.016 2.413 1.875.11 2.504.498 2.55 1.48.045.98-.51 1.354-2.434 1.64-.37 1.752.027 6.58.64 7.668.119-.043.246-.078.363-.134 10.118-4.835 15.81-16.655 13.287-27.59C65.942 25.47 52.003 17.258 37.8 21.269c-1.17.33-1.975-.007-2.236-.936-.239-.853.27-1.56 1.396-1.904a27.033 27.033 0 0112.624-.8C61.45 19.661 70.476 28.665 72.442 40.77c1.955 12.037-4.095 23.24-14.075 28.722-.688.378-1.394.725-2.23 1.158l2.035 4.896c1.735-.986 3.324-1.85 4.873-2.78 1.32-.794 1.626-.821 2.836.072 1.727 1.274 3.464 2.535 5.175 3.83.743.562 1.369.502 2.006-.151 1.062-1.088 2.148-2.152 3.216-3.233.849-.86.878-1.255.164-2.227-1.31-1.784-2.616-3.571-3.946-5.34-.546-.725-.61-1.416-.096-2.183 2.457-3.664 4.134-7.658 4.976-11.994.19-.979.728-1.457 1.73-1.585 2.125-.273 4.24-.633 6.36-.946 1.294-.19 1.545-.469 1.548-1.805.003-1.489-.023-2.977.009-4.465.02-.924-.357-1.404-1.286-1.532-2.09-.288-4.174-.633-6.263-.932-1.492-.214-1.862-.471-2.12-1.771A32.174 32.174 0 0072.49 26.78c-.581-.87-.562-1.609.07-2.436 1.323-1.733 2.603-3.499 3.892-5.258.69-.942.668-1.342-.125-2.148a315.176 315.176 0 00-3.22-3.228c-.838-.829-1.185-.85-2.137-.15-1.782 1.311-3.569 2.617-5.331 3.954-.757.574-1.463.638-2.263.097-3.654-2.47-7.643-4.139-11.976-4.973-.872-.167-1.384-.639-1.51-1.574-.294-2.194-.64-4.38-.977-6.568-.194-1.255-.496-1.513-1.743-1.517-1.42-.006-2.839-.004-4.259 0-1.36.002-1.642.257-1.845 1.629-.31 2.091-.658 4.178-.92 6.275-.136 1.102-.717 1.607-1.755 1.809-4.197.814-8.07 2.44-11.615 4.823-.901.606-1.652.6-2.513-.067-1.723-1.333-3.49-2.61-5.246-3.9-.945-.694-1.29-.663-2.136.175-1.08 1.07-2.132 2.168-3.23 3.22-.702.671-.747 1.305-.16 2.08 1.278 1.684 2.517 3.398 3.771 5.1.938 1.274.949 1.562.067 2.914a32.396 32.396 0 00-4.627 11.19c-.328 1.579-.584 1.812-2.194 2.048-2.088.307-4.171.647-6.262.935-.939.13-1.29.629-1.27 1.545.033 1.487.006 2.976.01 4.464.003 1.325.257 1.6 1.561 1.792 2.121.312 4.234.68 6.36.944 1.072.133 1.555.707 1.745 1.697.818 4.239 2.459 8.144 4.852 11.727.58.87.568 1.608-.064 2.437-1.322 1.733-2.6 3.5-3.89 5.258-.713.971-.68 1.352.183 2.222a422.527 422.527 0 003.153 3.156c.803.794 1.223.824 2.148.146 1.73-1.27 3.473-2.524 5.168-3.84.887-.688 1.657-.7 2.608-.102 1.584.996 3.24 1.878 5.02 2.897l2.028-4.907c-.345-.18-.542-.29-.745-.39-17.264-8.404-21.319-30.573-8.072-44.492 1.62-1.702 3.643-3.031 5.532-4.463.84-.635 1.779-.421 2.246.328.473.759.225 1.564-.678 2.186-.163.113-.332.216-.499.322-14.687 9.345-15.367 30.723-1.284 41.004 1.28.935 2.697 1.68 4.05 2.515l.362-.201.504-7.603c-2.074-.225-2.634-.542-2.647-1.48-.004-.338.098-.855.324-.983.651-.367 1.391-.578 2.224-.898 0-.335-.04-.83.009-1.315.08-.784-.154-1.189-.971-1.5-2.368-.9-3.561-3.467-2.895-5.922l.255-.944c-2.417-1.1-3.35-2.967-3.257-5.524.093-2.543.005-5.093.028-7.639.016-1.796 1.265-3.038 3.06-3.077 1.122-.024 2.245-.01 3.368-.005 2.167.011 3.35 1.188 3.38 3.373.014.913.003 1.826.003 2.734h1.715c0-1.069-.026-2.059.006-3.047.057-1.781 1.32-3.022 3.105-3.055 1.254-.024 2.51-.011 3.764-.004 2.15.011 3.367 1.229 3.385 3.383.008.914.001 1.829.001 2.76h1.722v-.002zM38.157 59.785c0 .507.022.901-.004 1.292-.122 1.878-.141 3.773-.41 5.63-.726 5.022-2.608 9.608-5.534 13.748-.927 1.311-1.027 2.71-.798 4.265 1.748 0 3.43-.015 5.11.006.98.013 1.551.545 1.588 1.398.039.889-.552 1.496-1.543 1.573-.23.018-.462.007-.693.007-1.948 0-3.896-.006-5.844.003-1.382.007-2.255.769-2.258 1.946-.003 1.158.886 1.954 2.245 1.997.462.014.924.003 1.387.003h27.832c.297 0 .595.012.89-.006 1.277-.076 2.134-.91 2.105-2.037-.03-1.141-.887-1.9-2.204-1.901-5.514-.008-11.028-.003-16.541-.004-.297 0-.597.016-.89-.015-.91-.096-1.499-.74-1.458-1.567.04-.804.614-1.342 1.504-1.397.263-.016.528-.007.792-.007h15.188c.19-2.236.072-2.94-.816-4.218-4.093-5.885-6.05-12.416-5.964-19.576.005-.377-.041-.755-.064-1.139h-13.62zm16.67-26.183v1.613c0 3.909-.743 4.632-4.644 4.525-1.892-.052-2.994-1.155-3.023-3.048-.016-1.015-.003-2.03-.003-3.087h-4.312c0 .61-.033 1.165.005 1.715.259 3.675-1.16 4.604-4.437 4.436-2.117-.108-3.196-1.12-3.233-3.27-.017-.948-.003-1.895-.003-2.862h-3.863c0 2.752-.005 5.428.001 8.104.005 1.682.66 2.341 2.336 2.344 3.63.006 7.26-.002 10.891.004 1.233.002 1.923.55 1.923 1.498 0 .96-.66 1.48-1.92 1.484-2.674.006-5.347-.004-8.02.004-1.477.005-2.418.806-2.417 2.031.002 1.234.912 2.006 2.423 2.02 1.683.014 3.366.003 5.05.003 3.96 0 7.92.007 11.88-.004 1.513-.004 2.426-.78 2.433-2.01.006-1.226-.937-2.027-2.41-2.04-.726-.007-1.452.006-2.178-.004-1.173-.016-1.816-.55-1.813-1.489.003-.93.664-1.485 1.824-1.492 1.716-.012 3.432.005 5.148-.006 1.535-.01 2.21-.7 2.22-2.261.01-1.554.003-3.108.003-4.662v-3.547h-3.861zM24.368 98.578h41.19c.313-2.816.08-4.007-3.289-3.981-11.648.087-23.297.033-34.946.034-.363 0-.727-.011-1.088.016-1.074.082-1.786.76-1.858 1.823-.046.683-.009 1.372-.009 2.108zm27.434-44.38H38.225V56.7h13.577v-2.503z" fill="#0075BF"/></svg>